<svg width="27" height="27" viewBox="0 0 27 27" fill="none" xmlns="http://www.w3.org/2000/svg">
<g clip-path="url(#clip0_311_335)">
<path opacity="0.5" d="M18.1637 16.4347C22.9083 16.4347 26.7546 12.7556 26.7546 8.21727C26.7546 3.67893 22.9083 -0.00012207 18.1637 -0.00012207C13.419 -0.00012207 9.57275 3.67893 9.57275 8.21727C9.57275 12.7556 13.419 16.4347 18.1637 16.4347Z" fill="#FFD400"/>
<path d="M18.2847 2.34772H0V25.8512L0.746315 26.9999L1.61701 25.3211L2.48772 26.9999L3.4828 25.3211L4.60227 26.9999L5.47297 25.3211L6.46806 26.9999L7.46315 25.3211L8.20946 26.9999L9.5777 25.3211L10.4484 26.9999L11.4435 25.3211L12.4386 26.9999L13.558 25.3211L14.4287 26.9999L15.4238 25.3211L16.0458 26.9999L16.9165 25.3211L17.7872 26.9999L18.4091 25.3211L18.2847 2.34772ZM1.99017 8.17941C1.99017 8.0027 2.23894 7.82598 2.48772 7.82598H8.58262C8.83139 7.82598 9.08016 8.0027 9.08016 8.17941V8.53285C9.08016 8.70957 8.83139 8.88629 8.58262 8.88629H2.48772C2.23894 8.88629 1.99017 8.70957 1.99017 8.53285V8.17941ZM1.99017 9.9466C1.99017 9.76988 2.23894 9.59316 2.48772 9.59316H8.58262C8.83139 9.59316 9.08016 9.76988 9.08016 9.9466V10.3C9.08016 10.4767 8.83139 10.6535 8.58262 10.6535H2.48772C2.23894 10.6535 1.99017 10.4767 1.99017 10.3V9.9466ZM1.86579 16.927C1.86579 16.7502 2.11456 16.5735 2.36333 16.5735H8.33385C8.58262 16.5735 8.83139 16.7502 8.83139 16.927V17.2804C8.83139 17.4571 8.58262 17.6338 8.33385 17.6338H2.36333C2.11456 17.6338 1.86579 17.4571 1.86579 17.2804V16.927ZM1.86579 18.4291C1.86579 18.2523 2.11456 18.0756 2.36333 18.0756H11.6923C11.941 18.0756 12.1898 18.2523 12.1898 18.4291V18.5174C12.1898 18.6941 11.941 18.8709 11.6923 18.8709H2.36333C2.11456 18.8709 1.86579 18.6941 1.86579 18.4291ZM1.86579 19.7544C1.86579 19.5777 2.11456 19.401 2.36333 19.401H12.6873C12.9361 19.401 13.1849 19.5777 13.1849 19.7544C13.1849 19.9312 12.9361 20.1079 12.6873 20.1079H2.36333C2.11456 20.1079 1.86579 20.0195 1.86579 19.7544ZM14.0556 21.1682C14.0556 21.3449 13.8068 21.5216 13.558 21.5216H2.48772C2.23894 21.5216 1.99017 21.3449 1.99017 21.1682C1.99017 20.9915 2.23894 20.8148 2.48772 20.8148H13.558C13.8068 20.8148 14.0556 20.9915 14.0556 21.1682ZM14.9263 15.2481C14.9263 15.5132 14.6775 15.6899 14.3044 15.6899H2.48772C2.11456 15.6899 1.86579 15.5132 1.86579 15.2481V15.1598C1.86579 14.8947 2.11456 14.6296 2.48772 14.6296H14.18C14.6775 14.6296 14.9263 14.8947 14.9263 15.2481ZM14.9263 13.5693C14.9263 13.8344 14.6775 14.0111 14.3044 14.0111H2.48772C2.11456 14.0111 1.86579 13.8344 1.86579 13.5693V13.481C1.86579 13.2159 2.11456 13.0392 2.48772 13.0392H14.18C14.6775 13.0392 14.9263 13.2159 14.9263 13.5693ZM14.9263 11.9789C14.9263 12.2439 14.6775 12.4206 14.3044 12.4206H2.48772C2.11456 12.4206 1.86579 12.2439 1.86579 11.9789V11.8905C1.86579 11.6254 2.11456 11.4487 2.48772 11.4487H14.18C14.6775 11.3603 14.9263 11.6254 14.9263 11.9789ZM15.4238 6.0588C15.4238 6.41223 15.0507 6.67731 14.5531 6.67731H2.86087C2.36333 6.67731 1.99017 6.41223 1.99017 6.0588V5.52864C1.99017 5.17521 2.36333 4.91013 2.86087 4.91013H14.5531C15.0507 4.91013 15.4238 5.17521 15.4238 5.52864V6.0588Z" fill="#52AD66"/>
</g>
<defs>
<clipPath id="clip0_311_335">
<rect width="27" height="27" fill="white"/>
</clipPath>
</defs>
</svg>
