<svg width="20" height="21" viewBox="0 0 20 21" fill="none" xmlns="http://www.w3.org/2000/svg">
<g clip-path="url(#clip0_328_411)">
<path d="M13.9775 0.750731C13.935 0.703231 12.4038 0.769481 11.0713 2.21573C9.73878 3.66073 9.94378 5.31823 9.97378 5.36073C10.0038 5.40323 11.8738 5.46948 13.0675 3.78823C14.2613 2.10698 14.02 0.799481 13.9775 0.750731ZM18.12 15.417C18.06 15.297 15.2138 13.8745 15.4788 11.1395C15.7438 8.40323 17.5725 7.65323 17.6013 7.57198C17.63 7.49073 16.855 6.58448 16.0338 6.12573C15.4308 5.8023 14.7634 5.61699 14.08 5.58323C13.945 5.57948 13.4763 5.46448 12.5125 5.72823C11.8775 5.90198 10.4463 6.46448 10.0525 6.48698C9.65753 6.50948 8.48253 5.83448 7.21878 5.65573C6.41003 5.49948 5.55253 5.81948 4.93878 6.06573C4.32628 6.31073 3.16128 7.00823 2.34628 8.86198C1.53128 10.7145 1.95753 13.6495 2.26253 14.562C2.56753 15.4732 3.04378 16.967 3.85378 18.057C4.57378 19.287 5.52878 20.1407 5.92753 20.4307C6.32628 20.7207 7.45128 20.9132 8.23128 20.5145C8.85878 20.1295 9.99128 19.9082 10.4388 19.9245C10.885 19.9407 11.765 20.117 12.6663 20.5982C13.38 20.8445 14.055 20.742 14.7313 20.467C15.4075 20.1907 16.3863 19.1432 17.5288 17.0195C17.9625 16.032 18.16 15.4982 18.12 15.417Z" fill="#00002B"/>
<path d="M13.9775 0.750731C13.935 0.703231 12.4038 0.769481 11.0713 2.21573C9.73878 3.66073 9.94378 5.31823 9.97378 5.36073C10.0038 5.40323 11.8738 5.46948 13.0675 3.78823C14.2613 2.10698 14.02 0.799481 13.9775 0.750731ZM18.12 15.417C18.06 15.297 15.2138 13.8745 15.4788 11.1395C15.7438 8.40323 17.5725 7.65323 17.6013 7.57198C17.63 7.49073 16.855 6.58448 16.0338 6.12573C15.4308 5.8023 14.7634 5.61699 14.08 5.58323C13.945 5.57948 13.4763 5.46448 12.5125 5.72823C11.8775 5.90198 10.4463 6.46448 10.0525 6.48698C9.65753 6.50948 8.48253 5.83448 7.21878 5.65573C6.41003 5.49948 5.55253 5.81948 4.93878 6.06573C4.32628 6.31073 3.16128 7.00823 2.34628 8.86198C1.53128 10.7145 1.95753 13.6495 2.26253 14.562C2.56753 15.4732 3.04378 16.967 3.85378 18.057C4.57378 19.287 5.52878 20.1407 5.92753 20.4307C6.32628 20.7207 7.45128 20.9132 8.23128 20.5145C8.85878 20.1295 9.99128 19.9082 10.4388 19.9245C10.885 19.9407 11.765 20.117 12.6663 20.5982C13.38 20.8445 14.055 20.742 14.7313 20.467C15.4075 20.1907 16.3863 19.1432 17.5288 17.0195C17.9625 16.032 18.16 15.4982 18.12 15.417Z" fill="#00002B"/>
</g>
<defs>
<clipPath id="clip0_328_411">
<rect width="20" height="20" fill="white" transform="translate(0 0.740723)"/>
</clipPath>
</defs>
</svg>
