<svg width="30" height="24" viewBox="0 0 30 24" fill="none" xmlns="http://www.w3.org/2000/svg">
<g clip-path="url(#clip0_311_352)">
<path opacity="0.5" d="M20.733 18.2708C25.851 18.2708 30 14.1807 30 9.13536C30 4.08997 25.851 -0.00012207 20.733 -0.00012207C15.6149 -0.00012207 11.4659 4.08997 11.4659 9.13536C11.4659 14.1807 15.6149 18.2708 20.733 18.2708Z" fill="#FFD400"/>
<path d="M10.9948 23.9999C17.067 23.9999 21.9895 19.1472 21.9895 13.1612C21.9895 7.1751 17.067 2.32245 10.9948 2.32245C4.92252 2.32245 0 7.1751 0 13.1612C0 19.1472 4.92252 23.9999 10.9948 23.9999Z" fill="#52AD66"/>
<path d="M9.76 16.1199V16.9999H5.4V16.0799L7.17 14.2899C7.76333 13.6832 8.17333 13.2299 8.4 12.9299C8.62667 12.6232 8.74 12.3032 8.74 11.9699C8.74 11.6699 8.62333 11.4132 8.39 11.1999C8.15667 10.9865 7.85667 10.8799 7.49 10.8799C7.17667 10.8799 6.90667 10.9732 6.68 11.1599C6.45333 11.3465 6.30667 11.5732 6.24 11.8399L5.4 11.4999C5.53333 11.0799 5.79 10.7265 6.17 10.4399C6.55 10.1465 6.99667 9.99988 7.51 9.99988C8.13 9.99988 8.64667 10.1899 9.06 10.5699C9.47333 10.9499 9.68 11.4165 9.68 11.9699C9.68 12.6299 9.31667 13.3432 8.59 14.1099L6.59 16.1199H9.76ZM14.7653 15.5599V16.9999H13.8453V15.5599H10.5953V14.8599L13.7653 10.1599H14.7653V14.6999H15.6453V15.5599H14.7653ZM11.6353 14.6999H13.8453V11.5099H13.8053L11.6353 14.6999Z" fill="white"/>
</g>
<defs>
<clipPath id="clip0_311_352">
<rect width="30" height="24" fill="white"/>
</clipPath>
</defs>
</svg>
