<svg width="10" height="10" viewBox="0 0 10 10" fill="none" xmlns="http://www.w3.org/2000/svg">
<g clip-path="url(#clip0_319_667)">
<path d="M3.30811 1.02241C3.19094 1.13961 3.12512 1.29856 3.12512 1.46428C3.12512 1.63001 3.19094 1.78895 3.30811 1.90616L6.40186 4.99991L3.30811 8.09366C3.19426 8.21153 3.13127 8.36941 3.13269 8.53328C3.13412 8.69716 3.19985 8.85392 3.31573 8.9698C3.43161 9.08568 3.58836 9.15141 3.75224 9.15283C3.91611 9.15425 4.07399 9.09126 4.19186 8.97741L7.72749 5.44178C7.84466 5.32458 7.91048 5.16564 7.91048 4.99991C7.91048 4.83418 7.84466 4.67524 7.72749 4.55803L4.19186 1.02241C4.07466 0.905239 3.91572 0.839417 3.74999 0.839417C3.58426 0.839417 3.42532 0.905239 3.30811 1.02241Z" fill="#0E4035"/>
</g>
<defs>
<clipPath id="clip0_319_667">
<rect width="10" height="10" fill="white"/>
</clipPath>
</defs>
</svg>
