<svg width="417" height="163" viewBox="0 0 417 163" fill="none" xmlns="http://www.w3.org/2000/svg">
<g filter="url(#filter0_d_319_520)">
<rect x="31.8326" y="20.0071" width="85.1736" height="75.6192" rx="6" transform="rotate(6.34995 31.8326 20.0071)" fill="black" fill-opacity="0.01" />
</g>
<rect x="31.8326" y="20.0071" width="85.1736" height="75.6192" rx="6" transform="rotate(6.34995 31.8326 20.0071)" fill="#D0E0E7"  box-shadow= "4px 10px rgba(14, 64, 53, 1)"/>
<path fill-rule="evenodd" clip-rule="evenodd" d="M53.9208 38.8678L52.5232 38.7123L53.0535 33.947L56.7803 34.3617C57.3393 34.4239 57.7544 34.0842 57.8181 33.5123C57.8817 32.9405 57.5514 32.5178 56.9924 32.4556L53.2656 32.0409L53.5838 29.1817C53.6475 28.6099 53.3172 28.1872 52.7582 28.1249C52.1992 28.0627 51.7841 28.4025 51.7204 28.9743L51.4023 31.8335L50.0047 31.678C47.6755 31.4188 45.6 33.1175 45.3348 35.5002C45.0697 37.8828 46.7209 39.9963 49.0502 40.2555L50.4477 40.411L49.9174 45.1763L45.259 44.6579C44.6999 44.5957 44.2848 44.9354 44.2212 45.5072C44.1576 46.0791 44.4878 46.5018 45.0468 46.564L49.7053 47.0824L49.3871 49.9416C49.3235 50.5134 49.6537 50.9361 50.2128 50.9983C50.7718 51.0605 51.1869 50.7208 51.2505 50.1489L51.5687 47.2898L52.9662 47.4453C55.2955 47.7045 57.371 46.0057 57.6361 43.6231C57.9013 41.2405 56.25 39.127 53.9208 38.8678ZM49.2623 38.3494C47.9579 38.2042 47.0497 37.0418 47.1982 35.7075C47.3467 34.3732 48.4882 33.4389 49.7926 33.5841L51.1901 33.7396L50.6598 38.5049L49.2623 38.3494ZM51.7808 45.3836L53.1784 45.5392C54.4827 45.6843 55.6243 44.75 55.7727 43.4157C55.9212 42.0815 55.013 40.919 53.7086 40.7739L52.3111 40.6184L51.7808 45.3836Z" fill="white"  box-shadow= "4px 10px rgba(14, 64, 53, 0.16)"/>
<mask id="mask0_319_520" style="mask-type:alpha" maskUnits="userSpaceOnUse" x="44" y="28" width="14" height="24"  box-shadow= "4px 10px rgba(14, 64, 53, 0.16)">
<path fill-rule="evenodd" clip-rule="evenodd" d="M53.9208 38.8678L52.5232 38.7123L53.0535 33.947L56.7803 34.3617C57.3393 34.4239 57.7544 34.0842 57.8181 33.5123C57.8817 32.9405 57.5514 32.5178 56.9924 32.4556L53.2656 32.0409L53.5838 29.1817C53.6475 28.6099 53.3172 28.1872 52.7582 28.1249C52.1992 28.0627 51.7841 28.4025 51.7204 28.9743L51.4023 31.8335L50.0047 31.678C47.6755 31.4188 45.6 33.1175 45.3348 35.5002C45.0697 37.8828 46.7209 39.9963 49.0502 40.2555L50.4477 40.411L49.9174 45.1763L45.259 44.6579C44.6999 44.5957 44.2848 44.9354 44.2212 45.5072C44.1576 46.0791 44.4878 46.5018 45.0468 46.564L49.7053 47.0824L49.3871 49.9416C49.3235 50.5134 49.6537 50.9361 50.2128 50.9983C50.7718 51.0605 51.1869 50.7208 51.2505 50.1489L51.5687 47.2898L52.9662 47.4453C55.2955 47.7045 57.371 46.0057 57.6361 43.6231C57.9013 41.2405 56.25 39.127 53.9208 38.8678ZM49.2623 38.3494C47.9579 38.2042 47.0497 37.0418 47.1982 35.7075C47.3467 34.3732 48.4882 33.4389 49.7926 33.5841L51.1901 33.7396L50.6598 38.5049L49.2623 38.3494ZM51.7808 45.3836L53.1784 45.5392C54.4827 45.6843 55.6243 44.75 55.7727 43.4157C55.9212 42.0815 55.013 40.919 53.7086 40.7739L52.3111 40.6184L51.7808 45.3836Z" fill="white" />
</mask>
<g mask="url(#mask0_319_520)"  box-shadow= "4px 10px rgba(14, 64, 53, 0.16)">
<rect x="41.5779" y="26.8809" width="22.4987" height="23.0146" transform="rotate(6.34995 41.5779 26.8809)" fill="#1598D1"  box-shadow= "4px 10px rgba(14, 64, 53, 0.16)"/>
</g>
<path d="M36.7749 81.5275L36.524 83.7816L37.8478 83.9289C38.1818 83.966 38.477 83.8902 38.7334 83.7014C38.9906 83.5067 39.137 83.2483 39.1729 82.9263C39.206 82.6281 39.1246 82.3564 38.9285 82.1113C38.739 81.8608 38.4803 81.7173 38.1524 81.6808L36.7749 81.5275ZM36.1497 87.1448L35.3268 87.0532L36.0395 80.6488L38.2221 80.8916C38.7766 80.9534 39.2272 81.1906 39.5736 81.6035C39.9267 82.011 40.0734 82.4832 40.0137 83.0198C39.9646 83.4611 39.7747 83.8384 39.444 84.1518C39.1199 84.4598 38.732 84.637 38.2801 84.6833L38.2592 84.7082L39.7674 87.5112L39.7634 87.5469L38.7885 87.4384L37.3508 84.6523L36.4384 84.5508L36.1497 87.1448ZM42.2195 87.9652C41.5755 87.8935 41.0693 87.6138 40.701 87.1261C40.3327 86.6383 40.186 86.0575 40.261 85.3837C40.3353 84.7158 40.5998 84.1838 41.0544 83.7877C41.5096 83.3855 42.0533 83.2197 42.6854 83.29C43.3354 83.3623 43.8277 83.6314 44.1622 84.0973C44.5033 84.5578 44.6318 85.1668 44.5475 85.9241L44.5286 86.0126L41.0849 85.6293C41.049 86.06 41.1536 86.4218 41.3988 86.7147C41.6439 87.0076 41.9572 87.1753 42.3389 87.2178C42.8636 87.2762 43.3043 87.0596 43.6609 86.568L44.3545 87.0074C44.1166 87.3552 43.8101 87.6139 43.435 87.7835C43.0659 87.9537 42.6608 88.0143 42.2195 87.9652ZM41.2231 84.9565L43.7366 85.2362C43.7466 84.9294 43.6493 84.665 43.4446 84.443C43.2465 84.2157 42.9596 84.0812 42.5839 84.0394C42.2738 84.0049 41.9949 84.0704 41.747 84.236C41.5052 84.4023 41.3305 84.6424 41.2231 84.9565ZM47.1047 88.3639L46.2817 88.2723L44.9984 83.6923L45.8929 83.7918L46.8027 87.3342L46.8206 87.3362L48.5048 84.0825L49.3814 84.18L47.1047 88.3639ZM51.2516 88.9703C50.6076 88.8986 50.1014 88.6189 49.7331 88.1312C49.3648 87.6435 49.2181 87.0627 49.2931 86.3888C49.3674 85.721 49.6319 85.1889 50.0865 84.7928C50.5418 84.3907 51.0855 84.2248 51.7176 84.2951C52.3675 84.3675 52.8598 84.6366 53.1943 85.1024C53.5355 85.563 53.6639 86.1719 53.5796 86.9292L53.5607 87.0177L50.117 86.6345C50.0812 87.0651 50.1858 87.4269 50.4309 87.7198C50.676 88.0127 50.9894 88.1804 51.371 88.2229C51.8958 88.2813 52.3364 88.0647 52.693 87.5731L53.3866 88.0125C53.1487 88.3604 52.8422 88.619 52.4672 88.7886C52.0981 88.9588 51.6929 89.0194 51.2516 88.9703ZM50.2553 85.9616L52.7688 86.2413C52.7787 85.9346 52.6814 85.6702 52.4767 85.4482C52.2786 85.2209 51.9917 85.0863 51.6161 85.0445C51.306 85.01 51.027 85.0755 50.7792 85.2411C50.5373 85.4074 50.3627 85.6476 50.2553 85.9616ZM54.583 84.7589L55.3702 84.8465L55.3025 85.4547L55.3383 85.4587C55.4874 85.258 55.6981 85.1003 55.9705 84.9857C56.2488 84.8718 56.5281 84.8305 56.8083 84.8617C57.345 84.9214 57.7392 85.1222 57.9909 85.4641C58.2493 85.8008 58.347 86.2524 58.2839 86.8189L57.9773 89.5739L57.1544 89.4823L57.455 86.781C57.5168 86.0634 57.1958 85.6654 56.4921 85.5871C56.1642 85.5506 55.8749 85.6543 55.6244 85.8981C55.3746 86.1359 55.2291 86.4397 55.188 86.8094L54.9182 89.2334L54.0953 89.1418L54.583 84.7589ZM62.7895 90.1094L62.0024 90.0218L62.0701 89.4135L62.0343 89.4096C61.8852 89.6103 61.6715 89.7676 61.3932 89.8815C61.1208 89.9961 60.8445 90.0378 60.5643 90.0066C60.0276 89.9469 59.6301 89.7487 59.3717 89.4121C59.12 89.0701 59.0256 88.6159 59.0887 88.0494L59.3953 85.2944L60.2182 85.386L59.9176 88.0873C59.8558 88.8049 60.1768 89.2028 60.8804 89.2811C61.2084 89.3176 61.4973 89.217 61.7472 88.9792C61.9977 88.7354 62.1435 88.4286 62.1846 88.0589L62.4544 85.6349L63.2773 85.7264L62.7895 90.1094ZM65.6995 90.5781C65.0555 90.5064 64.5493 90.2267 64.181 89.739C63.8127 89.2513 63.6661 88.6705 63.741 87.9966C63.8154 87.3288 64.0798 86.7968 64.5344 86.4006C64.9897 85.9985 65.5334 85.8326 66.1655 85.9029C66.8155 85.9753 67.3077 86.2444 67.6423 86.7102C67.9834 87.1708 68.1118 87.7797 68.0276 88.5371L68.0087 88.6255L64.5649 88.2423C64.5291 88.673 64.6337 89.0347 64.8788 89.3277C65.1239 89.6206 65.4373 89.7882 65.8189 89.8307C66.3437 89.8891 66.7844 89.6725 67.1409 89.1809L67.8346 89.6204C67.5966 89.9682 67.2901 90.2269 66.9151 90.3964C66.546 90.5666 66.1408 90.6272 65.6995 90.5781ZM64.7032 87.5694L67.2167 87.8492C67.2267 87.5424 67.1293 87.278 66.9246 87.056C66.7265 86.8287 66.4397 86.6941 66.064 86.6523C65.7539 86.6178 65.4749 86.6834 65.2271 86.849C64.9852 87.0152 64.8106 87.2554 64.7032 87.5694Z" fill="#808080"/>
<path d="M40.1831 61.8874L39.9444 64.0321L43.6525 64.4448L43.4685 66.0986L39.7603 65.6859L39.5217 67.8307L43.6432 68.2893L43.4592 69.9431L37.5934 69.2904L38.6229 60.0395L44.4887 60.6922L44.3046 62.346L40.1831 61.8874ZM49.7685 65.5047L54.3035 66.0094C54.3179 66.1156 54.3255 66.2429 54.3264 66.3913C54.3274 66.5396 54.3197 66.687 54.3034 66.8334C54.2372 67.4278 54.0845 67.9776 53.8451 68.4829C53.6058 68.9882 53.2693 69.426 52.8357 69.7963C52.3733 70.1896 51.8402 70.4747 51.2363 70.6516C50.6323 70.8286 49.96 70.8758 49.2192 70.7934C48.5474 70.7186 47.9277 70.5276 47.3602 70.2203C46.7927 69.913 46.3133 69.5195 45.9219 69.04C45.5305 68.5604 45.2383 68.0134 45.045 67.3989C44.8528 66.7758 44.7955 66.1154 44.8731 65.4177C44.9507 64.7201 45.1513 64.0927 45.4749 63.5358C45.7995 62.9702 46.2054 62.4965 46.6926 62.1147C47.1798 61.7329 47.734 61.4545 48.3552 61.2795C48.9763 61.1044 49.6228 61.0543 50.2947 61.1291C51.0441 61.2125 51.6972 61.416 52.2542 61.7395C52.8198 62.0641 53.2882 62.4781 53.6594 62.9816L52.327 64.0236C52.061 63.6714 51.7519 63.3928 51.3998 63.1879C51.0485 62.9744 50.6145 62.8389 50.0977 62.7814C49.6757 62.7345 49.2665 62.7674 48.8703 62.8803C48.475 62.9845 48.1199 63.1587 47.805 63.4027C47.49 63.6467 47.2244 63.9572 47.008 64.3342C46.8012 64.7036 46.671 65.1295 46.6173 65.6119C46.5636 66.0942 46.5966 66.5426 46.7162 66.957C46.8453 67.3638 47.0366 67.7208 47.2902 68.0281C47.5524 68.3363 47.8644 68.589 48.2261 68.7863C48.5888 68.9749 48.9855 69.0931 49.4162 69.1411C49.9071 69.1957 50.3283 69.1728 50.6795 69.0724C51.0403 68.9643 51.3538 68.8117 51.6199 68.6146C51.8094 68.4787 51.9774 68.3012 52.1239 68.082C52.2799 67.8552 52.4087 67.5992 52.5102 67.3141L49.6032 66.9905L49.7685 65.5047ZM55.2704 71.2575L56.2999 62.0066L59.5558 62.369C59.9951 62.4178 60.3961 62.5366 60.7588 62.7252C61.131 62.9061 61.4449 63.1416 61.7004 63.4317C61.9559 63.7217 62.1453 64.0567 62.2687 64.4367C62.3931 64.8081 62.4313 65.2091 62.3834 65.6398C62.3345 66.0791 62.2081 66.4705 62.0042 66.814C61.8012 67.149 61.5432 67.4298 61.2302 67.6566C60.9172 67.8834 60.5588 68.0484 60.1549 68.1517C59.7606 68.2473 59.3437 68.2707 58.9045 68.2218L57.3928 68.0536L57.0146 71.4516L55.2704 71.2575ZM59.1143 66.5709C59.5709 66.6217 59.9298 66.5309 60.1911 66.2983C60.4524 66.0658 60.6018 65.7816 60.6391 65.4457C60.6574 65.282 60.6449 65.1193 60.6019 64.9575C60.5675 64.7968 60.4962 64.6537 60.3881 64.5283C60.2895 64.3952 60.1579 64.2846 59.9933 64.1966C59.8287 64.1085 59.6302 64.0515 59.3976 64.0256L57.8601 63.8545L57.5768 66.3998L59.1143 66.5709ZM68.3559 69.5091C68.02 69.4717 67.7003 69.3664 67.3969 69.1931C67.0936 69.0198 66.8309 68.7944 66.6089 68.5168C66.3879 68.2306 66.219 67.9066 66.1023 67.5448C65.9952 67.1753 65.9651 66.7796 66.0121 66.3575C66.0609 65.9182 66.1921 65.523 66.4056 65.1718C66.6201 64.8119 66.8843 64.5143 67.1982 64.2789C67.5208 64.0445 67.8754 63.8747 68.2621 63.7695C68.6584 63.6566 69.0632 63.6232 69.4766 63.6692C69.9504 63.7219 70.3715 63.856 70.7399 64.0714C71.1179 64.2791 71.4289 64.5405 71.6729 64.8554C71.9265 65.1626 72.1054 65.5139 72.2097 65.9092C72.3235 66.2968 72.3574 66.6974 72.3114 67.1108C72.2453 67.7052 72.0638 68.2387 71.767 68.7114C71.4798 69.1765 71.1266 69.6474 70.7073 70.1239L68.2218 72.9473L67.016 71.9106L69.111 69.5408L69.055 69.4561C68.8473 69.5202 68.6143 69.5378 68.3559 69.5091ZM69.3285 65.2354C69.1304 65.2134 68.9371 65.2267 68.7485 65.2755C68.5686 65.3253 68.4025 65.4071 68.2503 65.5209C68.0981 65.6348 67.9689 65.7774 67.8626 65.9487C67.7659 66.1123 67.7056 66.3018 67.6817 66.5171C67.6567 66.7411 67.673 66.9478 67.7304 67.1373C67.7973 67.3192 67.8925 67.4824 68.016 67.6269C68.1394 67.7715 68.2834 67.8878 68.448 67.9759C68.6212 68.0649 68.8069 68.1204 69.005 68.1425C69.1945 68.1636 69.3835 68.1497 69.5721 68.1009C69.7606 68.0522 69.931 67.9708 70.0832 67.857C70.244 67.7441 70.3728 67.6058 70.4694 67.4421C70.5757 67.2708 70.6413 67.0732 70.6662 66.8493C70.6902 66.6339 70.6687 66.4353 70.6017 66.2535C70.5443 66.064 70.4496 65.8965 70.3176 65.751C70.1941 65.6064 70.0458 65.4896 69.8726 65.4006C69.6994 65.3116 69.518 65.2565 69.3285 65.2354ZM73.1765 72.6616L77.5906 66.4949L77.5604 66.4131L73.4906 65.9602L73.6947 64.361L79.6897 65.0281L79.5028 66.7077L74.51 73.6079L73.1765 72.6616ZM82.9129 74.3337L83.094 72.7057L79.0112 72.2514L79.1636 70.8818L83.7413 65.479L85.576 65.6831L84.9491 71.3164L86.0602 71.44L85.8848 73.0163L84.7737 72.8926L84.5925 74.5206L82.9129 74.3337ZM83.616 68.0157L83.5126 68.0042L81.0601 70.8836L83.2694 71.1295L83.616 68.0157ZM89.9083 75.3214C89.5724 75.2841 89.2417 75.1993 88.9163 75.0672C88.5995 74.936 88.3101 74.7555 88.0479 74.5258C87.7857 74.2961 87.5632 74.0228 87.3804 73.7059C87.2073 73.3815 87.092 73.0068 87.0347 72.5818L88.6383 72.1586C88.6851 72.5998 88.8277 72.9645 89.0659 73.2526C89.3128 73.5417 89.6473 73.7097 90.0693 73.7567C90.2761 73.7797 90.4694 73.7663 90.6493 73.7166C90.8388 73.6592 91.0054 73.5731 91.149 73.4582C91.3012 73.3444 91.4213 73.2051 91.5094 73.0405C91.607 72.8683 91.6678 72.6745 91.6918 72.4591C91.7148 72.2524 91.6971 72.0586 91.6388 71.8777C91.59 71.6892 91.5082 71.5231 91.3934 71.3795C91.2795 71.2273 91.136 71.1067 90.9628 71.0177C90.7991 70.921 90.6096 70.8606 90.3943 70.8367C90.1273 70.807 89.8837 70.8409 89.6635 70.9385C89.4444 71.0275 89.252 71.1499 89.0864 71.3059L87.5289 70.3739L88.5374 66.0127L93.5117 66.5663L93.3464 68.0521L89.7804 67.6553L89.2144 69.6851L89.3149 69.7225C89.5035 69.5952 89.7284 69.4938 89.9897 69.4182C90.251 69.3427 90.5582 69.3245 90.9114 69.3638C91.2817 69.405 91.6267 69.5176 91.9464 69.7014C92.267 69.8766 92.5421 70.1078 92.7717 70.3949C93.0014 70.6821 93.1731 71.0195 93.2869 71.4071C93.4017 71.7861 93.4342 72.1996 93.3843 72.6475C93.3355 73.0868 93.2129 73.483 93.0166 73.8361C92.8204 74.1892 92.5653 74.4835 92.2513 74.7189C91.946 74.9552 91.5908 75.1294 91.186 75.2413C90.7907 75.3455 90.3648 75.3722 89.9083 75.3214Z" fill="#00002B"/>
<g filter="url(#filter1_d_319_520)"  box-shadow= "4px 10px rgba(14, 64, 53, 0.16)">
<rect x="217.372" y="40.6548" width="85.1736" height="75.6192" rx="6" transform="rotate(6.34995 217.372 40.6548)" fill="black" fill-opacity="0.01"  box-shadow= "4px 10px rgba(14, 64, 53, 0.16)"/>
</g>
<rect x="217.372" y="40.6548" width="85.1736" height="75.6192" rx="6" transform="rotate(6.34995 217.372 40.6548)" fill="#D4E7DC"  box-shadow= "4px 10px rgba(14, 64, 53, 0.16)"/>
<path d="M225.11 105.547L224.821 108.141L223.998 108.05L224.711 101.645L226.893 101.888C227.448 101.95 227.898 102.187 228.245 102.6C228.597 103.013 228.744 103.485 228.685 104.016C228.624 104.559 228.377 104.99 227.943 105.31C227.521 105.631 227.03 105.761 226.469 105.698L225.11 105.547ZM225.446 102.524L225.197 104.76L226.575 104.913C226.903 104.95 227.186 104.87 227.425 104.673C227.671 104.477 227.81 104.227 227.844 103.923C227.877 103.624 227.796 103.353 227.6 103.108C227.41 102.857 227.151 102.714 226.823 102.677L225.446 102.524ZM229.478 107.301C229.454 107.516 229.523 107.705 229.686 107.868C229.855 108.031 230.062 108.127 230.306 108.154C230.652 108.192 230.974 108.098 231.271 107.872C231.573 107.646 231.744 107.36 231.783 107.014C231.549 106.783 231.202 106.642 230.743 106.591C230.409 106.553 230.12 106.603 229.875 106.739C229.637 106.875 229.504 107.063 229.478 107.301ZM230.896 104.235C231.505 104.303 231.966 104.52 232.282 104.887C232.598 105.249 232.724 105.712 232.661 106.279L232.361 108.98L231.573 108.893L231.641 108.284L231.605 108.28C231.21 108.743 230.729 108.943 230.162 108.88C229.679 108.827 229.29 108.638 228.993 108.316C228.703 107.994 228.582 107.618 228.63 107.189C228.68 106.735 228.89 106.394 229.26 106.163C229.636 105.933 230.11 105.85 230.682 105.914C231.171 105.968 231.564 106.102 231.86 106.316L231.881 106.129C231.913 105.842 231.827 105.588 231.622 105.366C231.418 105.138 231.164 105.007 230.86 104.974C230.4 104.922 230.015 105.076 229.704 105.434L229.03 104.897C229.493 104.369 230.115 104.148 230.896 104.235ZM235.009 103.307C234.991 103.468 234.919 103.599 234.793 103.7C234.668 103.801 234.524 103.842 234.363 103.824C234.202 103.806 234.071 103.734 233.971 103.608C233.87 103.482 233.828 103.339 233.846 103.178C233.864 103.017 233.936 102.886 234.062 102.785C234.188 102.685 234.331 102.643 234.492 102.661C234.654 102.679 234.784 102.751 234.885 102.877C234.986 103.003 235.027 103.146 235.009 103.307ZM234.671 104.8L234.183 109.183L233.36 109.091L233.848 104.708L234.671 104.8ZM237.246 108.908C237.652 108.953 237.999 108.844 238.288 108.58C238.589 108.318 238.765 107.951 238.818 107.48C238.869 107.021 238.777 106.627 238.542 106.299C238.312 105.972 237.998 105.786 237.598 105.742C237.205 105.698 236.857 105.81 236.556 106.078C236.254 106.347 236.078 106.71 236.027 107.17C235.975 107.635 236.067 108.028 236.303 108.35C236.538 108.678 236.853 108.864 237.246 108.908ZM237.028 109.645C236.456 109.581 235.989 109.299 235.628 108.8C235.274 108.296 235.132 107.722 235.204 107.078C235.276 106.434 235.54 105.905 235.996 105.491C236.458 105.083 236.975 104.912 237.548 104.975C237.87 105.011 238.154 105.112 238.402 105.279C238.655 105.446 238.84 105.65 238.958 105.893L238.994 105.897L239.026 105.285L239.251 103.263L240.074 103.355L239.361 109.759L238.574 109.672L238.641 109.063L238.606 109.059C238.437 109.27 238.211 109.429 237.928 109.536C237.65 109.644 237.35 109.68 237.028 109.645ZM243.296 110.197L242.473 110.106L243.186 103.701L244.008 103.793L243.296 110.197ZM244.931 105.942L245.718 106.029L245.651 106.638L245.687 106.642C245.836 106.441 246.046 106.283 246.319 106.169C246.597 106.055 246.876 106.013 247.157 106.045C247.693 106.104 248.088 106.305 248.339 106.647C248.598 106.984 248.695 107.435 248.632 108.002L248.326 110.757L247.503 110.665L247.803 107.964C247.865 107.246 247.544 106.848 246.84 106.77C246.512 106.734 246.223 106.837 245.973 107.081C245.723 107.319 245.577 107.623 245.536 107.992L245.266 110.416L244.444 110.325L244.931 105.942ZM251.246 111.082L250.423 110.99L249.139 106.41L250.034 106.51L250.944 110.052L250.962 110.054L252.646 106.8L253.522 106.898L251.246 111.082ZM253.434 109.107C253.509 108.433 253.783 107.899 254.255 107.505C254.734 107.111 255.298 106.951 255.948 107.023C256.598 107.095 257.11 107.376 257.484 107.864C257.865 108.353 258.017 108.935 257.942 109.608C257.867 110.288 257.59 110.822 257.112 111.209C256.64 111.604 256.078 111.764 255.428 111.692C254.778 111.62 254.263 111.339 253.883 110.85C253.509 110.362 253.359 109.781 253.434 109.107ZM254.257 109.198C254.205 109.669 254.299 110.066 254.541 110.389C254.783 110.712 255.107 110.896 255.512 110.941C255.918 110.986 256.274 110.878 256.581 110.616C256.887 110.354 257.067 109.988 257.119 109.517C257.171 109.052 257.076 108.658 256.834 108.335C256.587 108.006 256.264 107.819 255.864 107.774C255.465 107.73 255.108 107.841 254.795 108.108C254.488 108.37 254.309 108.733 254.257 109.198ZM260.079 106.097C260.061 106.258 259.989 106.389 259.863 106.49C259.737 106.59 259.594 106.632 259.433 106.614C259.272 106.596 259.141 106.524 259.04 106.398C258.94 106.272 258.898 106.129 258.916 105.968C258.934 105.807 259.006 105.676 259.132 105.575C259.258 105.475 259.401 105.433 259.562 105.451C259.723 105.469 259.854 105.541 259.955 105.667C260.056 105.793 260.097 105.936 260.079 106.097ZM259.741 107.59L259.253 111.973L258.43 111.881L258.918 107.498L259.741 107.59ZM262.268 112.453C261.618 112.381 261.103 112.1 260.723 111.611C260.35 111.111 260.2 110.53 260.274 109.868C260.349 109.194 260.623 108.66 261.095 108.266C261.573 107.872 262.138 107.712 262.788 107.784C263.235 107.834 263.613 107.991 263.922 108.254C264.231 108.512 264.447 108.847 264.57 109.259L263.784 109.489C263.613 108.914 263.235 108.595 262.65 108.529C262.275 108.488 261.933 108.604 261.625 108.877C261.322 109.151 261.146 109.512 261.097 109.959C261.047 110.407 261.139 110.797 261.374 111.131C261.614 111.466 261.922 111.654 262.298 111.696C262.9 111.763 263.354 111.536 263.66 111.014L264.358 111.409C264.154 111.785 263.866 112.067 263.495 112.255C263.13 112.438 262.721 112.504 262.268 112.453ZM266.862 112.965C266.218 112.893 265.712 112.613 265.343 112.125C264.975 111.638 264.828 111.057 264.903 110.383C264.978 109.715 265.242 109.183 265.697 108.787C266.152 108.385 266.696 108.219 267.328 108.289C267.978 108.362 268.47 108.631 268.805 109.097C269.146 109.557 269.274 110.166 269.19 110.923L269.171 111.012L265.727 110.629C265.691 111.059 265.796 111.421 266.041 111.714C266.286 112.007 266.6 112.175 266.981 112.217C267.506 112.276 267.947 112.059 268.303 111.567L268.997 112.007C268.759 112.355 268.453 112.613 268.077 112.783C267.708 112.953 267.303 113.014 266.862 112.965ZM265.866 109.956L268.379 110.236C268.389 109.929 268.292 109.664 268.087 109.442C267.889 109.215 267.602 109.081 267.226 109.039C266.916 109.004 266.637 109.07 266.389 109.235C266.148 109.402 265.973 109.642 265.866 109.956ZM273.239 112.298C273.196 112.679 272.994 112.983 272.631 113.208C272.267 113.433 271.832 113.518 271.326 113.461C270.884 113.412 270.509 113.256 270.201 112.992C269.892 112.722 269.688 112.392 269.586 112L270.355 111.768C270.433 112.043 270.565 112.266 270.751 112.437C270.944 112.604 271.163 112.701 271.407 112.728C271.67 112.757 271.893 112.725 272.079 112.63C272.271 112.537 272.375 112.413 272.392 112.258C272.423 111.978 272.232 111.748 271.817 111.569L271.086 111.298C270.258 110.988 269.877 110.529 269.945 109.921C269.989 109.521 270.186 109.22 270.534 109.017C270.889 108.809 271.32 108.734 271.827 108.79C272.215 108.833 272.553 108.964 272.843 109.184C273.138 109.404 273.331 109.676 273.422 110L272.655 110.222C272.592 110.028 272.471 109.87 272.291 109.747C272.118 109.619 271.916 109.542 271.683 109.517C271.468 109.493 271.269 109.525 271.084 109.613C270.905 109.702 270.807 109.824 270.789 109.979C270.762 110.229 270.977 110.434 271.436 110.594L272.079 110.838C272.926 111.149 273.313 111.636 273.239 112.298Z" fill="#808080"/>
<path d="M228.854 82.8835L228.615 85.0282L232.324 85.4409L232.14 87.0947L228.431 86.682L228.193 88.8268L232.314 89.2854L232.13 90.9392L226.264 90.2865L227.294 81.0356L233.16 81.6883L232.976 83.3421L228.854 82.8835ZM238.44 86.5008L242.975 87.0055C242.989 87.1117 242.997 87.239 242.998 87.3874C242.998 87.5357 242.991 87.6831 242.974 87.8295C242.908 88.4239 242.756 88.9737 242.516 89.479C242.277 89.9843 241.94 90.4221 241.507 90.7924C241.044 91.1857 240.511 91.4708 239.907 91.6477C239.303 91.8247 238.631 91.8719 237.89 91.7895C237.218 91.7147 236.599 91.5237 236.031 91.2164C235.464 90.9091 234.984 90.5156 234.593 90.0361C234.202 89.5565 233.909 89.0095 233.716 88.395C233.524 87.7719 233.467 87.1115 233.544 86.4138C233.622 85.7161 233.822 85.0888 234.146 84.5319C234.471 83.9663 234.876 83.4926 235.364 83.1108C235.851 82.729 236.405 82.4506 237.026 82.2756C237.647 82.1005 238.294 82.0504 238.966 82.1252C239.715 82.2086 240.368 82.412 240.925 82.7356C241.491 83.0602 241.959 83.4742 242.331 83.9777L240.998 85.0197C240.732 84.6675 240.423 84.3889 240.071 84.184C239.72 83.9705 239.286 83.835 238.769 83.7775C238.347 83.7305 237.938 83.7635 237.541 83.8764C237.146 83.9806 236.791 84.1547 236.476 84.3987C236.161 84.6427 235.895 84.9533 235.679 85.3303C235.472 85.6997 235.342 86.1256 235.288 86.6079C235.235 87.0903 235.268 87.5387 235.387 87.9531C235.516 88.3599 235.708 88.7169 235.961 89.0242C236.223 89.3324 236.535 89.5851 236.897 89.7824C237.26 89.971 237.657 90.0892 238.087 90.1372C238.578 90.1918 238.999 90.1689 239.351 90.0685C239.711 89.9604 240.025 89.8078 240.291 89.6107C240.481 89.4748 240.649 89.2973 240.795 89.0781C240.951 88.8513 241.08 88.5953 241.181 88.3101L238.274 87.9866L238.44 86.5008ZM243.941 92.2536L244.971 83.0027L248.227 83.3651C248.666 83.4139 249.067 83.5327 249.43 83.7213C249.802 83.9022 250.116 84.1377 250.371 84.4278C250.627 84.7178 250.816 85.0528 250.94 85.4328C251.064 85.8042 251.102 86.2052 251.054 86.6359C251.006 87.0751 250.879 87.4666 250.675 87.8101C250.472 88.1451 250.214 88.4259 249.901 88.6527C249.588 88.8795 249.23 89.0445 248.826 89.1478C248.432 89.2434 248.015 89.2668 247.576 89.2179L246.064 89.0497L245.686 92.4477L243.941 92.2536ZM247.785 87.567C248.242 87.6178 248.601 87.527 248.862 87.2944C249.123 87.0619 249.273 86.7777 249.31 86.4418C249.328 86.2781 249.316 86.1154 249.273 85.9536C249.239 85.7928 249.167 85.6498 249.059 85.5244C248.961 85.3913 248.829 85.2807 248.664 85.1927C248.5 85.1046 248.301 85.0476 248.069 85.0217L246.531 84.8506L246.248 87.3959L247.785 87.567ZM257.027 90.5052C256.691 90.4678 256.371 90.3624 256.068 90.1892C255.765 90.0159 255.502 89.7904 255.28 89.5129C255.059 89.2267 254.89 88.9027 254.773 88.5409C254.666 88.1714 254.636 87.7757 254.683 87.3536C254.732 86.9143 254.863 86.5191 255.077 86.1678C255.291 85.808 255.555 85.5104 255.869 85.275C256.192 85.0406 256.547 84.8708 256.933 84.7656C257.329 84.6527 257.734 84.6193 258.148 84.6653C258.621 84.718 259.043 84.8521 259.411 85.0675C259.789 85.2752 260.1 85.5366 260.344 85.8515C260.598 86.1587 260.776 86.51 260.881 86.9053C260.995 87.2929 261.028 87.6935 260.982 88.1069C260.916 88.7013 260.735 89.2348 260.438 89.7075C260.151 90.1726 259.798 90.6434 259.378 91.12L256.893 93.9434L255.687 92.9067L257.782 90.5369L257.726 90.4522C257.518 90.5162 257.285 90.5339 257.027 90.5052ZM258 86.2315C257.801 86.2095 257.608 86.2228 257.42 86.2716C257.24 86.3214 257.074 86.4032 256.921 86.517C256.769 86.6309 256.64 86.7735 256.534 86.9448C256.437 87.1084 256.377 87.2979 256.353 87.5132C256.328 87.7372 256.344 87.9439 256.401 88.1334C256.468 88.3153 256.564 88.4785 256.687 88.623C256.81 88.7676 256.954 88.8839 257.119 88.9719C257.292 89.061 257.478 89.1165 257.676 89.1386C257.866 89.1597 258.055 89.1458 258.243 89.097C258.432 89.0483 258.602 88.9669 258.754 88.8531C258.915 88.7402 259.044 88.6019 259.141 88.4382C259.247 88.2669 259.312 88.0693 259.337 87.8454C259.361 87.63 259.34 87.4314 259.273 87.2496C259.215 87.0601 259.121 86.8926 258.989 86.7471C258.865 86.6025 258.717 86.4857 258.544 86.3967C258.37 86.3077 258.189 86.2526 258 86.2315ZM261.848 93.6577L266.262 87.491L266.232 87.4092L262.162 86.9563L262.366 85.3571L268.361 86.0242L268.174 87.7038L263.181 94.604L261.848 93.6577ZM271.584 95.3298L271.765 93.7018L267.682 93.2475L267.835 91.8779L272.412 86.4751L274.247 86.6792L273.62 92.3125L274.731 92.4361L274.556 94.0124L273.445 93.8887L273.264 95.5167L271.584 95.3298ZM272.287 89.0118L272.184 89.0003L269.731 91.8797L271.941 92.1256L272.287 89.0118ZM278.579 96.3175C278.243 96.2802 277.913 96.1954 277.587 96.0633C277.271 95.9321 276.981 95.7516 276.719 95.5219C276.457 95.2921 276.234 95.0189 276.052 94.702C275.878 94.3776 275.763 94.0029 275.706 93.5779L277.309 93.1547C277.356 93.5959 277.499 93.9606 277.737 94.2487C277.984 94.5378 278.318 94.7058 278.74 94.7527C278.947 94.7758 279.14 94.7624 279.32 94.7126C279.51 94.6553 279.676 94.5691 279.82 94.4543C279.972 94.3405 280.092 94.2012 280.18 94.0366C280.278 93.8644 280.339 93.6706 280.363 93.4552C280.386 93.2485 280.368 93.0547 280.31 92.8738C280.261 92.6852 280.179 92.5192 280.064 92.3756C279.951 92.2234 279.807 92.1028 279.634 92.0138C279.47 91.9171 279.281 91.8567 279.065 91.8328C278.798 91.8031 278.555 91.837 278.335 91.9346C278.115 92.0235 277.923 92.146 277.757 92.302L276.2 91.37L277.209 87.0088L282.183 87.5624L282.017 89.0482L278.451 88.6514L277.885 90.6812L277.986 90.7186C278.175 90.5913 278.399 90.4899 278.661 90.4143C278.922 90.3388 279.229 90.3206 279.582 90.3599C279.953 90.4011 280.298 90.5137 280.617 90.6975C280.938 90.8727 281.213 91.1038 281.443 91.391C281.672 91.6782 281.844 92.0156 281.958 92.4032C282.073 92.7822 282.105 93.1957 282.055 93.6436C282.007 94.0829 281.884 94.4791 281.688 94.8322C281.491 95.1853 281.236 95.4796 280.922 95.715C280.617 95.9513 280.262 96.1254 279.857 96.2374C279.462 96.3416 279.036 96.3683 278.579 96.3175Z" fill="#00002B"/>
<path fill-rule="evenodd" clip-rule="evenodd" d="M248.901 57.1407C248.919 57.191 248.937 57.2412 248.978 57.294C249.061 57.3997 249.04 57.5903 249.029 57.6856L247.757 69.1223C247.576 70.7425 246.227 71.8467 244.643 71.6704L233.463 70.4262C231.879 70.25 230.806 68.8762 230.986 67.256L232.683 52.0071C232.863 50.3869 234.212 49.2827 235.796 49.459L243.25 50.2885C243.343 50.2988 243.529 50.3196 243.612 50.4252C243.705 50.4356 243.788 50.5413 243.87 50.6469L248.824 56.9874C248.865 57.0402 248.883 57.0905 248.901 57.1407ZM245.968 56.38L243.821 53.6325L243.545 56.1105L245.968 56.38ZM244.855 69.7643L233.675 68.5201C233.116 68.4579 232.786 68.0352 232.849 67.4634L234.546 52.2145C234.61 51.6426 235.025 51.3029 235.584 51.3651L242.106 52.0909L241.576 56.8562C241.512 57.428 241.842 57.8507 242.401 57.9129L247.06 58.4313L245.893 68.9149C245.83 69.4868 245.414 69.8265 244.855 69.7643ZM243.734 62.8856C244.293 62.9478 244.709 62.608 244.772 62.0362C244.836 61.4643 244.506 61.0417 243.947 60.9794L236.493 60.15C235.934 60.0878 235.519 60.4275 235.455 60.9994C235.392 61.5712 235.722 61.9939 236.281 62.0561L243.734 62.8856ZM244.348 65.8484C244.284 66.4202 243.869 66.76 243.31 66.6978L235.857 65.8683C235.298 65.8061 234.967 65.3834 235.031 64.8116C235.095 64.2397 235.51 63.9 236.069 63.9622L243.522 64.7917C244.081 64.8539 244.412 65.2766 244.348 65.8484ZM236.917 56.3378C236.358 56.2755 235.943 56.6153 235.879 57.1871C235.816 57.759 236.146 58.1817 236.705 58.2439L238.568 58.4512C239.128 58.5134 239.543 58.1737 239.606 57.6019C239.67 57.03 239.34 56.6073 238.781 56.5451L236.917 56.3378Z" fill="white"/>
<mask id="mask1_319_520" style="mask-type:alpha" maskUnits="userSpaceOnUse" x="230" y="49" width="20" height="23"  box-shadow= "4px 10px rgba(14, 64, 53, 0.16)">
<path fill-rule="evenodd" clip-rule="evenodd" d="M248.901 57.1407C248.919 57.191 248.937 57.2412 248.978 57.294C249.061 57.3997 249.04 57.5903 249.029 57.6856L247.757 69.1223C247.576 70.7425 246.227 71.8467 244.643 71.6704L233.463 70.4262C231.879 70.25 230.806 68.8762 230.986 67.256L232.683 52.0071C232.863 50.3869 234.212 49.2827 235.796 49.459L243.25 50.2885C243.343 50.2988 243.529 50.3196 243.612 50.4252C243.705 50.4356 243.788 50.5413 243.87 50.6469L248.824 56.9874C248.865 57.0402 248.883 57.0905 248.901 57.1407ZM245.968 56.38L243.821 53.6325L243.545 56.1105L245.968 56.38ZM244.855 69.7643L233.675 68.5201C233.116 68.4579 232.786 68.0352 232.849 67.4634L234.546 52.2145C234.61 51.6426 235.025 51.3029 235.584 51.3651L242.106 52.0909L241.576 56.8562C241.512 57.428 241.842 57.8507 242.401 57.9129L247.06 58.4313L245.893 68.9149C245.83 69.4868 245.414 69.8265 244.855 69.7643ZM243.734 62.8856C244.293 62.9478 244.709 62.608 244.772 62.0362C244.836 61.4643 244.506 61.0417 243.947 60.9794L236.493 60.15C235.934 60.0878 235.519 60.4275 235.455 60.9994C235.392 61.5712 235.722 61.9939 236.281 62.0561L243.734 62.8856ZM244.348 65.8484C244.284 66.4202 243.869 66.76 243.31 66.6978L235.857 65.8683C235.298 65.8061 234.967 65.3834 235.031 64.8116C235.095 64.2397 235.51 63.9 236.069 63.9622L243.522 64.7917C244.081 64.8539 244.412 65.2766 244.348 65.8484ZM236.917 56.3378C236.358 56.2755 235.943 56.6153 235.879 57.1871C235.816 57.759 236.146 58.1817 236.705 58.2439L238.568 58.4512C239.128 58.5134 239.543 58.1737 239.606 57.6019C239.67 57.03 239.34 56.6073 238.781 56.5451L236.917 56.3378Z" fill="white"/>
</mask>
<g mask="url(#mask1_319_520)"  box-shadow= "4px 10px rgba(14, 64, 53, 0.16)">
<rect x="230.312" y="47.8838" width="22.4987" height="23.0146" transform="rotate(6.34995 230.312 47.8838)" fill="#4F8E0C"  box-shadow= "4px 10px rgba(14, 64, 53, 0.16)"/>
</g>
<g filter="url(#filter2_d_319_520)"  box-shadow= "4px 10px rgba(14, 64, 53, 0.16)">
<rect x="126.56" y="30.5488" width="85.1736" height="75.6192" rx="6" transform="rotate(6.34995 126.56 30.5488)" fill="black" fill-opacity="0.01"  box-shadow= "4px 10px rgba(14, 64, 53, 0.16)"/>
</g>
<rect x="126.56" y="30.5488" width="85.1736" height="75.6192" rx="6" transform="rotate(6.34995 126.56 30.5488)" fill="#EFE4D6"  box-shadow= "4px 10px rgba(14, 64, 53, 0.16)"/>
<path d="M130.513 91.9595L129.888 97.5769L129.065 97.4853L129.69 91.868L127.901 91.6689L127.989 90.8817L132.39 91.3715L132.302 92.1586L130.513 91.9595ZM131.67 95.5566C131.745 94.8827 132.019 94.3487 132.491 93.9546C132.97 93.5611 133.534 93.4005 134.184 93.4728C134.834 93.5452 135.346 93.8255 135.72 94.3139C136.1 94.803 136.253 95.3844 136.178 96.0582C136.102 96.7381 135.826 97.2717 135.348 97.6593C134.875 98.0534 134.314 98.2143 133.664 98.142C133.014 98.0697 132.499 97.789 132.119 97.2999C131.745 96.8115 131.595 96.2304 131.67 95.5566ZM132.493 95.6481C132.44 96.1192 132.535 96.5161 132.777 96.8389C133.019 97.1616 133.342 97.3455 133.748 97.3906C134.153 97.4358 134.509 97.3275 134.816 97.0658C135.123 96.8041 135.303 96.4378 135.355 95.9667C135.407 95.5015 135.312 95.1076 135.07 94.7849C134.823 94.4555 134.5 94.2686 134.1 94.2242C133.701 94.1797 133.344 94.291 133.031 94.5579C132.724 94.8196 132.545 95.183 132.493 95.6481ZM138.278 98.583C137.92 98.5432 137.634 98.3997 137.42 98.1525C137.212 97.906 137.127 97.5856 137.165 97.1914L137.438 94.7405L136.669 94.6549L136.752 93.9035L137.521 93.9891L137.671 92.6474L138.494 92.739L138.344 94.0807L139.418 94.2002L139.334 94.9515L138.261 94.8321L138.018 97.0146C137.985 97.3068 138.02 97.5129 138.121 97.6328C138.223 97.7468 138.346 97.8118 138.489 97.8277C138.554 97.835 138.618 97.836 138.679 97.8307C138.746 97.8201 138.808 97.8059 138.865 97.788L139.042 98.5503C138.819 98.604 138.564 98.6148 138.278 98.583ZM140.374 97.3855C140.35 97.6001 140.42 97.789 140.583 97.952C140.752 98.1157 140.958 98.2112 141.203 98.2384C141.549 98.2769 141.87 98.1828 142.167 97.9563C142.47 97.7304 142.64 97.4445 142.679 97.0986C142.445 96.8673 142.099 96.7262 141.639 96.6751C141.305 96.6379 141.016 96.6872 140.772 96.823C140.533 96.9595 140.401 97.1469 140.374 97.3855ZM141.793 94.3196C142.401 94.3873 142.863 94.6047 143.178 94.9718C143.494 95.333 143.621 95.7968 143.558 96.3633L143.257 99.0646L142.47 98.977L142.538 98.3688L142.502 98.3648C142.106 98.8279 141.625 99.0279 141.059 98.9649C140.576 98.9111 140.186 98.7229 139.89 98.4001C139.6 98.0781 139.479 97.7024 139.526 97.273C139.577 96.8198 139.787 96.478 140.157 96.2474C140.532 96.0176 141.006 95.9345 141.579 95.9982C142.068 96.0526 142.46 96.1869 142.757 96.4009L142.777 96.2131C142.809 95.9269 142.723 95.6727 142.518 95.4507C142.314 95.2228 142.06 95.0919 141.756 95.058C141.297 95.0069 140.911 95.1603 140.6 95.518L139.926 94.9812C140.389 94.4532 141.012 94.2327 141.793 94.3196ZM145.721 92.855L145.008 99.2595L144.185 99.1679L144.898 92.7635L145.721 92.855ZM150.943 100.065C149.995 99.9593 149.237 99.5521 148.67 98.843C148.109 98.1346 147.882 97.3033 147.988 96.3492C148.094 95.3951 148.498 94.6372 149.201 94.0754C149.905 93.5017 150.734 93.268 151.688 93.3742C152.654 93.4817 153.399 93.9178 153.924 94.6825L153.27 95.1893C152.872 94.5836 152.316 94.2409 151.6 94.1613C150.891 94.0823 150.271 94.2548 149.74 94.6788C149.217 95.0975 148.913 95.6855 148.829 96.4428C148.745 97.2001 148.912 97.8405 149.33 98.364C149.754 98.8942 150.321 99.1987 151.031 99.2777C151.776 99.3607 152.458 99.1196 153.076 98.5545L153.611 99.2026C153.266 99.5325 152.862 99.7743 152.398 99.928C151.935 100.076 151.45 100.121 150.943 100.065ZM158.033 100.709L157.246 100.621L157.314 100.013L157.278 100.009C157.129 100.21 156.915 100.367 156.637 100.481C156.365 100.596 156.088 100.637 155.808 100.606C155.271 100.547 154.874 100.348 154.615 100.012C154.364 99.6697 154.269 99.2155 154.332 98.649L154.639 95.894L155.462 95.9856L155.161 98.6869C155.099 99.4045 155.42 99.8024 156.124 99.8807C156.452 99.9172 156.741 99.8166 156.991 99.5788C157.241 99.335 157.387 99.0282 157.428 98.6585L157.698 96.2345L158.521 96.326L158.033 100.709ZM162.481 99.9724C162.438 100.354 162.236 100.657 161.873 100.883C161.509 101.108 161.074 101.192 160.568 101.136C160.126 101.087 159.751 100.93 159.443 100.667C159.134 100.397 158.93 100.066 158.828 99.6746L159.597 99.4431C159.675 99.7175 159.807 99.9405 159.993 100.112C160.186 100.278 160.405 100.375 160.649 100.402C160.912 100.432 161.135 100.399 161.321 100.305C161.513 100.212 161.617 100.088 161.634 99.9325C161.665 99.6522 161.474 99.4226 161.059 99.2436L160.328 98.9722C159.5 98.6626 159.119 98.2037 159.187 97.5954C159.231 97.1959 159.428 96.8948 159.776 96.6921C160.131 96.4841 160.562 96.4083 161.069 96.4647C161.457 96.5079 161.795 96.6391 162.085 96.8585C162.38 97.0785 162.573 97.3505 162.664 97.6746L161.897 97.8971C161.834 97.7029 161.713 97.5445 161.533 97.4219C161.36 97.294 161.158 97.2171 160.925 97.1912C160.71 97.1673 160.511 97.1994 160.326 97.2875C160.147 97.3763 160.049 97.4982 160.031 97.6532C160.004 97.9037 160.219 98.1088 160.678 98.2686L161.321 98.5122C162.168 98.8237 162.555 99.3105 162.481 99.9724ZM164.746 101.528C164.388 101.489 164.102 101.345 163.888 101.098C163.68 100.851 163.595 100.531 163.633 100.137L163.905 97.6859L163.136 97.6003L163.22 96.8489L163.989 96.9345L164.138 95.5928L164.961 95.6844L164.812 97.0261L165.885 97.1456L165.802 97.8969L164.728 97.7775L164.485 99.96C164.453 100.252 164.487 100.458 164.589 100.578C164.691 100.692 164.813 100.757 164.956 100.773C165.022 100.78 165.085 100.781 165.146 100.776C165.214 100.765 165.276 100.751 165.332 100.733L165.51 101.496C165.287 101.549 165.032 101.56 164.746 101.528ZM166.13 99.3914C166.205 98.7176 166.479 98.1836 166.951 97.7894C167.43 97.3959 167.994 97.2353 168.644 97.3077C169.294 97.38 169.806 97.6604 170.18 98.1488C170.561 98.6378 170.713 99.2193 170.638 99.8931C170.563 100.573 170.286 101.107 169.808 101.494C169.336 101.888 168.774 102.049 168.124 101.977C167.474 101.905 166.959 101.624 166.579 101.135C166.205 100.646 166.055 100.065 166.13 99.3914ZM166.953 99.483C166.901 99.9541 166.995 100.351 167.237 100.674C167.479 100.996 167.802 101.18 168.208 101.225C168.613 101.271 168.97 101.162 169.276 100.901C169.583 100.639 169.763 100.273 169.815 99.8015C169.867 99.3364 169.772 98.9425 169.53 98.6197C169.283 98.2904 168.96 98.1035 168.56 98.059C168.161 98.0146 167.804 98.1258 167.491 98.3928C167.184 98.6545 167.005 99.0179 166.953 99.483ZM171.877 102.25L171.055 102.158L171.542 97.7751L172.329 97.8627L172.262 98.4709L172.297 98.4749C172.447 98.2742 172.657 98.1165 172.93 98.0019C173.208 97.888 173.475 97.8453 173.732 97.8739C174.054 97.9097 174.329 98.0158 174.557 98.192C174.785 98.3683 174.941 98.594 175.025 98.869C175.451 98.3489 175.986 98.1247 176.63 98.1964C177.137 98.2528 177.51 98.4513 177.75 98.7919C177.99 99.1325 178.078 99.589 178.014 100.162L177.709 102.899L176.887 102.807L177.177 100.195C177.223 99.7837 177.181 99.4802 177.052 99.2847C176.924 99.0833 176.683 98.963 176.332 98.9238C176.016 98.8887 175.735 98.9933 175.491 99.2378C175.246 99.4822 175.104 99.7863 175.063 100.15L174.793 102.574L173.971 102.483L174.261 99.8707C174.307 99.4592 174.265 99.1557 174.136 98.9602C174.008 98.7588 173.767 98.6385 173.416 98.5993C173.1 98.5642 172.819 98.6688 172.575 98.9133C172.33 99.1577 172.188 99.4618 172.147 99.8256L171.877 102.25ZM180.623 103.368C179.979 103.296 179.473 103.016 179.105 102.529C178.737 102.041 178.59 101.46 178.665 100.786C178.739 100.118 179.004 99.5865 179.458 99.1903C179.914 98.7882 180.457 98.6223 181.089 98.6926C181.739 98.765 182.232 99.0341 182.566 99.4999C182.907 99.9605 183.036 100.569 182.952 101.327L182.933 101.415L179.489 101.032C179.453 101.463 179.558 101.824 179.803 102.117C180.048 102.41 180.361 102.578 180.743 102.62C181.268 102.679 181.708 102.462 182.065 101.971L182.759 102.41C182.521 102.758 182.214 103.017 181.839 103.186C181.47 103.356 181.065 103.417 180.623 103.368ZM179.627 100.359L182.141 100.639C182.151 100.332 182.053 100.068 181.849 99.8457C181.65 99.6184 181.364 99.4838 180.988 99.442C180.678 99.4075 180.399 99.4731 180.151 99.6387C179.909 99.8049 179.735 100.045 179.627 100.359ZM184.29 103.631L183.467 103.539L183.955 99.1564L184.742 99.244L184.662 99.9596L184.698 99.9636C184.808 99.7403 184.999 99.5624 185.274 99.43C185.555 99.2922 185.82 99.2372 186.071 99.2651C186.309 99.2917 186.508 99.35 186.667 99.4401L186.328 100.208C186.231 100.155 186.073 100.117 185.852 100.092C185.542 100.057 185.257 100.153 184.996 100.377C184.742 100.602 184.596 100.882 184.559 101.216L184.29 103.631ZM190.032 103.038C189.989 103.42 189.786 103.723 189.423 103.949C189.06 104.174 188.625 104.258 188.118 104.202C187.677 104.153 187.302 103.996 186.993 103.733C186.685 103.463 186.48 103.132 186.379 102.741L187.147 102.509C187.226 102.783 187.358 103.006 187.544 103.178C187.737 103.344 187.955 103.441 188.2 103.468C188.462 103.498 188.686 103.465 188.872 103.371C189.063 103.278 189.168 103.153 189.185 102.998C189.216 102.718 189.024 102.489 188.609 102.31L187.879 102.038C187.05 101.729 186.67 101.27 186.737 100.661C186.782 100.262 186.978 99.9607 187.327 99.758C187.682 99.55 188.113 99.4743 188.62 99.5307C189.007 99.5738 189.346 99.705 189.636 99.9244C189.931 100.144 190.124 100.416 190.215 100.74L189.448 100.963C189.385 100.769 189.263 100.61 189.084 100.488C188.911 100.36 188.708 100.283 188.476 100.257C188.261 100.233 188.061 100.265 187.876 100.353C187.697 100.442 187.599 100.564 187.582 100.719C187.554 100.97 187.77 101.175 188.229 101.334L188.872 101.578C189.719 101.89 190.105 102.376 190.032 103.038Z" fill="#808080"/>
<path d="M132.74 80.0882C132.266 80.0355 131.839 79.9181 131.458 79.7362C131.085 79.5553 130.77 79.3327 130.512 79.0685C130.254 78.7957 130.066 78.4913 129.946 78.1554C129.828 77.8108 129.789 77.449 129.832 77.07C129.86 76.8116 129.922 76.5743 130.015 76.358C130.118 76.1427 130.239 75.9513 130.38 75.7838C130.53 75.6173 130.694 75.4743 130.873 75.3547C131.052 75.235 131.237 75.1379 131.428 75.0633L131.44 74.96C131.177 74.7388 130.955 74.4612 130.774 74.1272C130.602 73.7941 130.538 73.4208 130.585 73.0074C130.624 72.6542 130.733 72.3351 130.913 72.0499C131.094 71.7561 131.326 71.5116 131.61 71.3164C131.893 71.1212 132.218 70.983 132.585 70.9017C132.952 70.8118 133.347 70.7903 133.769 70.8373C134.191 70.8842 134.572 70.992 134.91 71.1605C135.25 71.3204 135.537 71.5267 135.77 71.7794C136.004 72.0321 136.176 72.3216 136.288 72.648C136.401 72.9658 136.438 73.3012 136.399 73.6544C136.353 74.0678 136.205 74.4176 135.955 74.7038C135.714 74.9908 135.44 75.2133 135.135 75.3712L135.123 75.4745C135.294 75.5894 135.453 75.7249 135.601 75.8809C135.75 76.0369 135.874 76.2121 135.975 76.4064C136.084 76.6016 136.16 76.8151 136.204 77.0467C136.257 77.2793 136.269 77.5248 136.24 77.7832C136.198 78.1622 136.081 78.5067 135.89 78.8168C135.699 79.1182 135.448 79.3737 135.137 79.5833C134.827 79.7842 134.466 79.9315 134.055 80.0252C133.652 80.1199 133.213 80.1409 132.74 80.0882ZM133.358 74.5325C133.72 74.5727 134.032 74.5072 134.295 74.336C134.56 74.1561 134.71 73.9025 134.746 73.5752C134.784 73.2392 134.692 72.9631 134.472 72.7468C134.253 72.5218 133.963 72.3892 133.601 72.349C133.239 72.3087 132.927 72.3742 132.663 72.5455C132.401 72.7081 132.251 72.9574 132.214 73.2933C132.177 73.6207 132.268 73.9011 132.486 74.1347C132.706 74.3596 132.996 74.4922 133.358 74.5325ZM132.914 78.5248C133.353 78.5737 133.727 78.502 134.036 78.3097C134.346 78.1087 134.523 77.8145 134.566 77.4269C134.586 77.246 134.566 77.078 134.504 76.923C134.444 76.7593 134.351 76.6138 134.226 76.4865C134.109 76.3601 133.96 76.2563 133.777 76.1749C133.603 76.0945 133.408 76.0423 133.192 76.0183C132.977 75.9943 132.771 76.002 132.575 76.0412C132.388 76.0813 132.219 76.1497 132.068 76.2464C131.927 76.344 131.808 76.466 131.714 76.6124C131.62 76.7502 131.563 76.9095 131.543 77.0904C131.5 77.478 131.607 77.8039 131.866 78.0681C132.125 78.3237 132.474 78.4759 132.914 78.5248ZM138.221 80.5674C137.911 80.5329 137.656 80.3955 137.456 80.1553C137.266 79.9074 137.188 79.6284 137.222 79.3183C137.257 79.0082 137.394 78.7574 137.633 78.5661C137.881 78.3757 138.16 78.2977 138.47 78.3322C138.78 78.3667 139.031 78.5036 139.222 78.7429C139.414 78.9822 139.492 79.2569 139.458 79.567C139.423 79.8771 139.286 80.1321 139.046 80.3321C138.806 80.5235 138.532 80.6019 138.221 80.5674ZM143.589 81.2955C143.253 81.2582 142.922 81.1734 142.597 81.0413C142.28 80.9101 141.991 80.7296 141.729 80.4999C141.466 80.2702 141.244 79.9969 141.061 79.6801C140.888 79.3556 140.773 78.9809 140.715 78.5559L142.319 78.1327C142.366 78.5739 142.508 78.9386 142.747 79.2267C142.994 79.5158 143.328 79.6838 143.75 79.7308C143.957 79.7538 144.15 79.7404 144.33 79.6907C144.52 79.6333 144.686 79.5472 144.83 79.4323C144.982 79.3185 145.102 79.1792 145.19 79.0146C145.288 78.8424 145.349 78.6486 145.373 78.4332C145.396 78.2265 145.378 78.0327 145.32 77.8518C145.271 77.6633 145.189 77.4972 145.074 77.3536C144.96 77.2014 144.817 77.0808 144.644 76.9918C144.48 76.8951 144.29 76.8347 144.075 76.8108C143.808 76.7811 143.564 76.815 143.344 76.9126C143.125 77.0016 142.933 77.124 142.767 77.28L141.21 76.348L142.218 71.9868L147.192 72.5404L147.027 74.0262L143.461 73.6294L142.895 75.6592L142.996 75.6966C143.184 75.5693 143.409 75.4679 143.67 75.3923C143.932 75.3168 144.239 75.2986 144.592 75.3379C144.963 75.3792 145.308 75.4917 145.627 75.6755C145.948 75.8507 146.223 76.0819 146.453 76.369C146.682 76.6562 146.854 76.9936 146.968 77.3812C147.082 77.7602 147.115 78.1737 147.065 78.6216C147.016 79.0609 146.894 79.4571 146.697 79.8102C146.501 80.1633 146.246 80.4576 145.932 80.693C145.627 80.9293 145.272 81.1035 144.867 81.2154C144.471 81.3196 144.046 81.3463 143.589 81.2955ZM151.974 82.0194L152.155 80.3914L148.073 79.9371L148.225 78.5676L152.803 73.1647L154.637 73.3689L154.01 79.0021L155.122 79.1257L154.946 80.702L153.835 80.5784L153.654 82.2063L151.974 82.0194ZM152.677 75.7014L152.574 75.6899L150.122 78.5693L152.331 78.8152L152.677 75.7014ZM158.867 79.5818C158.531 79.5444 158.211 79.4391 157.908 79.2658C157.605 79.0925 157.342 78.8671 157.12 78.5895C156.899 78.3033 156.73 77.9793 156.613 77.6175C156.506 77.248 156.476 76.8523 156.523 76.4302C156.572 75.9909 156.703 75.5957 156.917 75.2445C157.131 74.8846 157.395 74.587 157.709 74.3517C158.032 74.1172 158.386 73.9474 158.773 73.8422C159.169 73.7293 159.574 73.6959 159.988 73.7419C160.461 73.7946 160.883 73.9287 161.251 74.1441C161.629 74.3518 161.94 74.6132 162.184 74.9281C162.438 75.2354 162.616 75.5866 162.721 75.9819C162.835 76.3696 162.868 76.7701 162.822 77.1835C162.756 77.7779 162.575 78.3114 162.278 78.7842C161.991 79.2492 161.638 79.7201 161.218 80.1966L158.733 83.02L157.527 81.9833L159.622 79.6135L159.566 79.5288C159.358 79.5929 159.125 79.6105 158.867 79.5818ZM159.84 75.3081C159.641 75.2861 159.448 75.2994 159.26 75.3482C159.08 75.398 158.914 75.4798 158.761 75.5936C158.609 75.7075 158.48 75.8501 158.374 76.0214C158.277 76.185 158.217 76.3745 158.193 76.5898C158.168 76.8138 158.184 77.0205 158.241 77.21C158.308 77.3919 158.404 77.5551 158.527 77.6996C158.65 77.8442 158.794 77.9605 158.959 78.0486C159.132 78.1376 159.318 78.1931 159.516 78.2152C159.706 78.2363 159.895 78.2224 160.083 78.1736C160.272 78.1249 160.442 78.0435 160.594 77.9297C160.755 77.8168 160.884 77.6785 160.98 77.5149C161.087 77.3436 161.152 77.1459 161.177 76.922C161.201 76.7066 161.18 76.508 161.113 76.3262C161.055 76.1367 160.961 75.9692 160.829 75.8237C160.705 75.6791 160.557 75.5624 160.384 75.4733C160.21 75.3843 160.029 75.3292 159.84 75.3081ZM164.433 74.0403L166.125 74.2287L165.564 79.2676L165.642 79.2762L167.997 77.3931L170.09 77.626L170.078 77.7294L167.472 79.7546L169.591 83.8752L169.579 83.9785L167.576 83.7557L166.154 80.7851L165.323 81.4382L165.096 83.4796L163.403 83.2912L164.433 74.0403Z" fill="#00002B"/>
<path fill-rule="evenodd" clip-rule="evenodd" d="M139.689 44.5528C139.986 41.8843 142.269 40.0156 144.878 40.3059C147.486 40.5963 149.303 42.9211 149.006 45.5896C148.709 48.2582 146.426 50.1268 143.817 49.8365C141.208 49.5462 139.392 47.2214 139.689 44.5528ZM151.46 57.441L151.248 59.3472C151.184 59.919 150.769 60.2587 150.21 60.1965C149.651 60.1343 149.321 59.7116 149.384 59.1398L149.596 57.2337C149.777 55.6135 148.703 54.2397 147.12 54.0635L139.666 53.234C138.082 53.0577 136.733 54.1619 136.553 55.7821L136.341 57.6882C136.277 58.2601 135.862 58.5998 135.303 58.5376C134.744 58.4754 134.414 58.0527 134.477 57.4809L134.689 55.5748C134.986 52.9062 137.269 51.0376 139.878 51.3279L147.332 52.1574C149.94 52.4477 151.757 54.7725 151.46 57.441ZM144.029 47.9304C142.445 47.7541 141.372 46.3804 141.552 44.7602C141.732 43.14 143.082 42.0358 144.665 42.2121C146.249 42.3883 147.323 43.7621 147.142 45.3823C146.962 47.0025 145.613 48.1067 144.029 47.9304Z" fill="white"/>
<mask id="mask2_319_520" style="mask-type:alpha" maskUnits="userSpaceOnUse" x="134" y="40" width="18" height="21"  box-shadow= "4px 10px rgba(14, 64, 53, 0.16)">
<path fill-rule="evenodd" clip-rule="evenodd" d="M139.689 44.5528C139.986 41.8843 142.269 40.0156 144.878 40.3059C147.486 40.5963 149.303 42.9211 149.006 45.5896C148.709 48.2582 146.426 50.1268 143.817 49.8365C141.208 49.5462 139.392 47.2214 139.689 44.5528ZM151.46 57.441L151.248 59.3472C151.184 59.919 150.769 60.2587 150.21 60.1965C149.651 60.1343 149.321 59.7116 149.384 59.1398L149.596 57.2337C149.777 55.6135 148.703 54.2397 147.12 54.0635L139.666 53.234C138.082 53.0577 136.733 54.1619 136.553 55.7821L136.341 57.6882C136.277 58.2601 135.862 58.5998 135.303 58.5376C134.744 58.4754 134.414 58.0527 134.477 57.4809L134.689 55.5748C134.986 52.9062 137.269 51.0376 139.878 51.3279L147.332 52.1574C149.94 52.4477 151.757 54.7725 151.46 57.441ZM144.029 47.9304C142.445 47.7541 141.372 46.3804 141.552 44.7602C141.732 43.14 143.082 42.0358 144.665 42.2121C146.249 42.3883 147.323 43.7621 147.142 45.3823C146.962 47.0025 145.613 48.1067 144.029 47.9304Z" fill="white"/>
</mask>
<g mask="url(#mask2_319_520)"  box-shadow= "4px 10px rgba(14, 64, 53, 0.16)">
<rect x="133.909" y="37.1558" width="22.4987" height="23.0146" transform="rotate(6.34995 133.909 37.1558)" fill="#F89C12"  box-shadow= "4px 10px rgba(14, 64, 53, 0.16)"/>
</g>
<g filter="url(#filter3_d_319_520)"  box-shadow= "4px 10px rgba(14, 64, 53, 0.16)">
<rect x="308.185" y="50.7605" width="85.1736" height="75.6192" rx="6" transform="rotate(6.34995 308.185 50.7605)" fill="black" fill-opacity="0.01" box-shadow= "4px 10px rgba(14, 64, 53, 0.16)"/>
</g>
<rect x="308.185" y="50.7605" width="85.1736" height="75.6192" rx="6" transform="rotate(6.34995 308.185 50.7605)" fill="#F3DED9"  box-shadow= "4px 10px rgba(14, 64, 53, 0.16)"/>
<path d="M312.325 118.024C311.615 117.945 311.069 117.649 310.685 117.135C310.301 116.627 310.151 115.995 310.235 115.238L310.683 111.212L311.506 111.304L311.054 115.365C310.996 115.89 311.087 116.319 311.327 116.654C311.568 116.989 311.929 117.183 312.412 117.237C312.895 117.29 313.291 117.18 313.599 116.907C313.907 116.633 314.091 116.234 314.149 115.709L314.601 111.648L315.424 111.74L314.976 115.765C314.89 116.54 314.607 117.131 314.127 117.536C313.647 117.942 313.046 118.104 312.325 118.024ZM316.197 113.873L316.984 113.96L316.917 114.568L316.952 114.572C317.101 114.372 317.312 114.214 317.584 114.099C317.863 113.986 318.142 113.944 318.422 113.975C318.959 114.035 319.353 114.236 319.605 114.578C319.863 114.914 319.961 115.366 319.898 115.933L319.591 118.688L318.768 118.596L319.069 115.895C319.131 115.177 318.81 114.779 318.106 114.701C317.778 114.664 317.489 114.768 317.238 115.012C316.989 115.25 316.843 115.553 316.802 115.923L316.532 118.347L315.709 118.256L316.197 113.873ZM322.772 118.426C323.165 118.469 323.513 118.357 323.814 118.089C324.115 117.827 324.292 117.463 324.343 116.998C324.394 116.539 324.302 116.145 324.067 115.817C323.832 115.489 323.518 115.303 323.124 115.259C322.725 115.215 322.374 115.327 322.073 115.595C321.777 115.864 321.604 116.228 321.553 116.687C321.501 117.152 321.59 117.549 321.819 117.876C322.055 118.198 322.372 118.381 322.772 118.426ZM322.822 119.192C322.5 119.156 322.213 119.055 321.96 118.888C321.713 118.721 321.53 118.517 321.412 118.274L321.376 118.27L321.344 118.883L321.129 120.815L320.307 120.723L321.009 114.408L321.796 114.496L321.729 115.104L321.765 115.108C321.933 114.897 322.156 114.738 322.433 114.63C322.717 114.523 323.02 114.487 323.342 114.523C323.92 114.587 324.384 114.868 324.733 115.366C325.094 115.871 325.238 116.445 325.166 117.089C325.094 117.739 324.827 118.268 324.365 118.675C323.915 119.084 323.401 119.256 322.822 119.192ZM326.425 118.09C326.401 118.304 326.47 118.493 326.633 118.656C326.802 118.82 327.009 118.915 327.253 118.943C327.599 118.981 327.921 118.887 328.218 118.66C328.52 118.435 328.691 118.149 328.73 117.803C328.496 117.572 328.149 117.43 327.69 117.379C327.356 117.342 327.067 117.391 326.822 117.527C326.584 117.664 326.451 117.851 326.425 118.09ZM327.844 115.024C328.452 115.091 328.914 115.309 329.229 115.676C329.545 116.037 329.671 116.501 329.608 117.067L329.308 119.769L328.521 119.681L328.588 119.073L328.552 119.069C328.157 119.532 327.676 119.732 327.109 119.669C326.626 119.615 326.237 119.427 325.941 119.104C325.65 118.782 325.529 118.407 325.577 117.977C325.627 117.524 325.837 117.182 326.207 116.952C326.583 116.722 327.057 116.639 327.63 116.702C328.119 116.757 328.511 116.891 328.807 117.105L328.828 116.917C328.86 116.631 328.774 116.377 328.569 116.155C328.365 115.927 328.111 115.796 327.807 115.762C327.347 115.711 326.962 115.864 326.651 116.222L325.977 115.685C326.44 115.157 327.062 114.937 327.844 115.024ZM331.956 114.096C331.938 114.257 331.866 114.388 331.741 114.488C331.615 114.589 331.471 114.631 331.31 114.613C331.149 114.595 331.018 114.523 330.918 114.397C330.817 114.271 330.776 114.128 330.793 113.967C330.811 113.806 330.883 113.675 331.009 113.574C331.135 113.473 331.279 113.432 331.44 113.45C331.601 113.468 331.731 113.54 331.832 113.666C331.933 113.791 331.974 113.935 331.956 114.096ZM331.618 115.589L331.13 119.972L330.307 119.88L330.795 115.497L331.618 115.589ZM334.193 119.697C334.599 119.742 334.946 119.633 335.235 119.369C335.536 119.107 335.712 118.74 335.765 118.269C335.816 117.81 335.724 117.416 335.489 117.088C335.259 116.761 334.945 116.575 334.546 116.53C334.152 116.486 333.804 116.599 333.503 116.867C333.201 117.135 333.025 117.499 332.974 117.958C332.922 118.423 333.014 118.817 333.25 119.139C333.485 119.467 333.8 119.653 334.193 119.697ZM333.975 120.433C333.403 120.369 332.936 120.088 332.575 119.589C332.221 119.085 332.079 118.511 332.151 117.867C332.223 117.223 332.487 116.694 332.943 116.28C333.405 115.872 333.922 115.7 334.495 115.764C334.817 115.8 335.102 115.901 335.349 116.067C335.602 116.234 335.787 116.439 335.905 116.682L335.941 116.686L335.973 116.073L336.198 114.052L337.021 114.143L336.308 120.548L335.521 120.46L335.589 119.852L335.553 119.848C335.384 120.059 335.158 120.218 334.875 120.325C334.597 120.433 334.297 120.469 333.975 120.433ZM340.243 120.986L339.42 120.894L340.133 114.49L340.955 114.581L340.243 120.986ZM341.878 116.731L342.666 116.818L342.598 117.426L342.634 117.43C342.783 117.23 342.993 117.072 343.266 116.957C343.544 116.843 343.823 116.802 344.104 116.833C344.64 116.893 345.035 117.094 345.286 117.436C345.545 117.772 345.642 118.224 345.579 118.79L345.273 121.545L344.45 121.454L344.75 118.753C344.812 118.035 344.491 117.637 343.787 117.559C343.46 117.522 343.17 117.626 342.92 117.87C342.67 118.108 342.524 118.411 342.483 118.781L342.214 121.205L341.391 121.113L341.878 116.731ZM348.193 121.87L347.37 121.779L346.087 117.199L346.981 117.298L347.891 120.841L347.909 120.843L349.593 117.589L350.469 117.687L348.193 121.87ZM350.381 119.895C350.456 119.222 350.73 118.688 351.202 118.293C351.681 117.9 352.245 117.739 352.895 117.812C353.545 117.884 354.057 118.164 354.432 118.653C354.812 119.142 354.964 119.723 354.889 120.397C354.814 121.077 354.537 121.611 354.059 121.998C353.587 122.392 353.026 122.553 352.376 122.481C351.726 122.408 351.21 122.128 350.83 121.639C350.456 121.15 350.306 120.569 350.381 119.895ZM351.204 119.987C351.152 120.458 351.246 120.855 351.488 121.178C351.73 121.5 352.054 121.684 352.459 121.729C352.865 121.775 353.221 121.666 353.528 121.405C353.834 121.143 354.014 120.777 354.066 120.305C354.118 119.84 354.023 119.446 353.781 119.124C353.534 118.794 353.211 118.607 352.812 118.563C352.412 118.519 352.055 118.63 351.742 118.897C351.435 119.158 351.256 119.522 351.204 119.987ZM357.026 116.886C357.008 117.047 356.936 117.178 356.81 117.278C356.684 117.379 356.541 117.42 356.38 117.403C356.219 117.385 356.088 117.313 355.987 117.187C355.887 117.061 355.845 116.917 355.863 116.756C355.881 116.595 355.953 116.465 356.079 116.364C356.205 116.263 356.348 116.222 356.509 116.24C356.67 116.258 356.801 116.33 356.902 116.455C357.003 116.581 357.044 116.725 357.026 116.886ZM356.688 118.379L356.2 122.762L355.377 122.67L355.865 118.287L356.688 118.379ZM359.215 123.242C358.565 123.17 358.05 122.889 357.67 122.4C357.297 121.9 357.147 121.318 357.221 120.656C357.296 119.983 357.57 119.449 358.042 119.054C358.521 118.661 359.085 118.5 359.735 118.573C360.182 118.623 360.56 118.779 360.869 119.043C361.178 119.301 361.394 119.636 361.518 120.048L360.731 120.277C360.56 119.703 360.182 119.383 359.597 119.318C359.222 119.276 358.88 119.392 358.572 119.666C358.27 119.94 358.094 120.301 358.044 120.748C357.994 121.195 358.086 121.586 358.321 121.92C358.561 122.255 358.869 122.443 359.245 122.485C359.847 122.552 360.301 122.324 360.607 121.803L361.305 122.198C361.101 122.573 360.813 122.855 360.442 123.043C360.077 123.226 359.668 123.292 359.215 123.242ZM363.809 123.753C363.165 123.681 362.659 123.402 362.29 122.914C361.922 122.426 361.775 121.846 361.85 121.172C361.925 120.504 362.189 119.972 362.644 119.576C363.099 119.174 363.643 119.008 364.275 119.078C364.925 119.15 365.417 119.419 365.752 119.885C366.093 120.346 366.221 120.955 366.137 121.712L366.118 121.801L362.674 121.417C362.639 121.848 362.743 122.21 362.988 122.503C363.233 122.796 363.547 122.963 363.928 123.006C364.453 123.064 364.894 122.848 365.25 122.356L365.944 122.795C365.706 123.143 365.4 123.402 365.025 123.571C364.655 123.742 364.25 123.802 363.809 123.753ZM362.813 120.744L365.326 121.024C365.336 120.717 365.239 120.453 365.034 120.231C364.836 120.004 364.549 119.869 364.173 119.827C363.863 119.793 363.584 119.858 363.337 120.024C363.095 120.19 362.92 120.43 362.813 120.744ZM370.186 123.086C370.144 123.468 369.941 123.771 369.578 123.997C369.214 124.222 368.779 124.306 368.273 124.25C367.831 124.201 367.456 124.044 367.148 123.781C366.84 123.511 366.635 123.18 366.534 122.789L367.302 122.557C367.38 122.831 367.512 123.054 367.698 123.226C367.891 123.392 368.11 123.489 368.354 123.516C368.617 123.546 368.841 123.513 369.026 123.419C369.218 123.326 369.322 123.201 369.339 123.046C369.37 122.766 369.179 122.537 368.764 122.358L368.033 122.086C367.205 121.777 366.824 121.318 366.892 120.709C366.936 120.31 367.133 120.009 367.481 119.806C367.836 119.598 368.267 119.522 368.774 119.579C369.162 119.622 369.5 119.753 369.79 119.972C370.085 120.192 370.279 120.464 370.369 120.789L369.602 121.011C369.539 120.817 369.418 120.658 369.238 120.536C369.065 120.408 368.863 120.331 368.63 120.305C368.415 120.281 368.216 120.313 368.031 120.402C367.852 120.49 367.754 120.612 367.736 120.767C367.709 121.018 367.924 121.223 368.383 121.383L369.026 121.626C369.873 121.938 370.26 122.424 370.186 123.086Z" fill="#808080"/>
<path d="M315.148 100.387C314.674 100.334 314.247 100.217 313.866 100.035C313.494 99.8541 313.178 99.6315 312.92 99.3673C312.662 99.0945 312.474 98.7902 312.354 98.4542C312.236 98.1096 312.198 97.7479 312.24 97.3689C312.268 97.1105 312.33 96.8731 312.424 96.6568C312.526 96.4415 312.648 96.2501 312.788 96.0826C312.938 95.9161 313.102 95.7731 313.281 95.6535C313.46 95.5339 313.645 95.4368 313.836 95.3621L313.848 95.2588C313.585 95.0377 313.363 94.7601 313.182 94.426C313.01 94.0929 312.947 93.7197 312.993 93.3062C313.032 92.9531 313.142 92.6339 313.322 92.3487C313.503 92.0549 313.735 91.8104 314.018 91.6152C314.301 91.42 314.626 91.2818 314.993 91.2005C315.36 91.1106 315.755 91.0891 316.177 91.1361C316.599 91.1831 316.98 91.2908 317.318 91.4593C317.658 91.6192 317.945 91.8255 318.178 92.0782C318.412 92.3309 318.584 92.6205 318.696 92.9468C318.809 93.2646 318.846 93.6001 318.807 93.9532C318.761 94.3667 318.613 94.7165 318.363 95.0026C318.122 95.2897 317.848 95.5121 317.543 95.67L317.532 95.7734C317.702 95.8882 317.861 96.0237 318.01 96.1797C318.158 96.3357 318.282 96.5109 318.383 96.7052C318.492 96.9005 318.568 97.1139 318.612 97.3455C318.665 97.5781 318.677 97.8236 318.648 98.082C318.606 98.461 318.489 98.8055 318.298 99.1156C318.107 99.417 317.856 99.6725 317.545 99.8821C317.235 100.083 316.874 100.23 316.463 100.324C316.06 100.419 315.621 100.44 315.148 100.387ZM315.766 94.8313C316.128 94.8716 316.44 94.8061 316.703 94.6348C316.968 94.4549 317.118 94.2013 317.154 93.874C317.192 93.5381 317.1 93.2619 316.88 93.0456C316.661 92.8206 316.371 92.688 316.009 92.6478C315.647 92.6075 315.335 92.673 315.071 92.8443C314.809 93.007 314.659 93.2562 314.622 93.5922C314.586 93.9195 314.676 94.1999 314.895 94.4335C315.114 94.6584 315.404 94.791 315.766 94.8313ZM315.322 98.8237C315.761 98.8725 316.135 98.8008 316.444 98.6085C316.755 98.4076 316.931 98.1133 316.974 97.7257C316.994 97.5448 316.974 97.3768 316.913 97.2218C316.852 97.0581 316.76 96.9126 316.634 96.7853C316.517 96.659 316.368 96.5551 316.185 96.4737C316.011 96.3933 315.816 96.3411 315.601 96.3171C315.385 96.2932 315.18 96.3008 314.983 96.34C314.796 96.3802 314.627 96.4486 314.477 96.5452C314.335 96.6428 314.217 96.7648 314.122 96.9112C314.028 97.049 313.971 97.2084 313.951 97.3892C313.908 97.7769 314.015 98.1028 314.274 98.367C314.533 98.6225 314.882 98.7748 315.322 98.8237ZM320.63 100.866C320.32 100.832 320.064 100.694 319.864 100.454C319.674 100.206 319.596 99.9272 319.631 99.6171C319.665 99.307 319.802 99.0563 320.041 98.8649C320.289 98.6745 320.568 98.5965 320.878 98.631C321.188 98.6655 321.439 98.8025 321.631 99.0418C321.822 99.2811 321.9 99.5557 321.866 99.8658C321.831 100.176 321.694 100.431 321.454 100.631C321.214 100.822 320.94 100.901 320.63 100.866ZM325.997 101.594C325.661 101.557 325.331 101.472 325.005 101.34C324.688 101.209 324.399 101.028 324.137 100.799C323.875 100.569 323.652 100.296 323.469 99.9789C323.296 99.6544 323.181 99.2797 323.124 98.8547L324.727 98.4315C324.774 98.8727 324.917 99.2374 325.155 99.5255C325.402 99.8146 325.736 99.9826 326.158 100.03C326.365 100.053 326.558 100.039 326.738 99.9895C326.928 99.9321 327.094 99.846 327.238 99.7312C327.39 99.6173 327.51 99.4781 327.598 99.3135C327.696 99.1412 327.757 98.9474 327.781 98.7321C327.804 98.5253 327.786 98.3315 327.728 98.1506C327.679 97.9621 327.597 97.796 327.482 97.6524C327.368 97.5002 327.225 97.3796 327.052 97.2906C326.888 97.1939 326.699 97.1336 326.483 97.1096C326.216 97.0799 325.973 97.1138 325.752 97.2114C325.533 97.3004 325.341 97.4229 325.175 97.5788L323.618 96.6469L324.626 92.2856L329.601 92.8392L329.435 94.325L325.869 93.9282L325.303 95.958L325.404 95.9954C325.592 95.8681 325.817 95.7667 326.079 95.6912C326.34 95.6156 326.647 95.5975 327 95.6368C327.371 95.678 327.716 95.7905 328.035 95.9743C328.356 96.1495 328.631 96.3807 328.861 96.6678C329.09 96.955 329.262 97.2924 329.376 97.68C329.491 98.0591 329.523 98.4725 329.473 98.9204C329.424 99.3597 329.302 99.7559 329.106 100.109C328.909 100.462 328.654 100.756 328.34 100.992C328.035 101.228 327.68 101.402 327.275 101.514C326.88 101.618 326.454 101.645 325.997 101.594ZM334.382 102.318L334.564 100.69L330.481 100.236L330.633 98.8664L335.211 93.4635L337.046 93.6677L336.419 99.3009L337.53 99.4246L337.354 101.001L336.243 100.877L336.062 102.505L334.382 102.318ZM335.086 96.0002L334.982 95.9887L332.53 98.8681L334.739 99.114L335.086 96.0002ZM341.275 99.8806C340.939 99.8432 340.619 99.7379 340.316 99.5646C340.013 99.3913 339.75 99.1659 339.528 98.8883C339.307 98.6021 339.138 98.2781 339.021 97.9163C338.914 97.5469 338.884 97.1511 338.931 96.729C338.98 96.2898 339.111 95.8945 339.325 95.5433C339.539 95.1835 339.803 94.8859 340.117 94.6505C340.44 94.4161 340.795 94.2462 341.181 94.141C341.578 94.0282 341.982 93.9947 342.396 94.0407C342.87 94.0935 343.291 94.2275 343.659 94.4429C344.037 94.6507 344.348 94.912 344.592 95.2269C344.846 95.5342 345.025 95.8855 345.129 96.2807C345.243 96.6684 345.277 97.0689 345.231 97.4824C345.164 98.0767 344.983 98.6102 344.686 99.083C344.399 99.5481 344.046 100.019 343.626 100.495L341.141 103.319L339.935 102.282L342.03 99.9123L341.974 99.8276C341.767 99.8917 341.533 99.9094 341.275 99.8806ZM342.248 95.607C342.05 95.5849 341.856 95.5983 341.668 95.6471C341.488 95.6968 341.322 95.7786 341.17 95.8925C341.017 96.0063 340.888 96.1489 340.782 96.3202C340.685 96.4838 340.625 96.6733 340.601 96.8887C340.576 97.1126 340.592 97.3194 340.65 97.5089C340.717 97.6907 340.812 97.8539 340.935 97.9985C341.059 98.143 341.203 98.2593 341.367 98.3474C341.54 98.4364 341.726 98.492 341.924 98.514C342.114 98.5351 342.303 98.5213 342.491 98.4725C342.68 98.4237 342.85 98.3424 343.002 98.2285C343.163 98.1156 343.292 97.9773 343.389 97.8137C343.495 97.6424 343.56 97.4448 343.585 97.2208C343.609 97.0055 343.588 96.8069 343.521 96.625C343.464 96.4355 343.369 96.268 343.237 96.1225C343.113 95.978 342.965 95.8612 342.792 95.7721C342.619 95.6831 342.437 95.628 342.248 95.607ZM346.841 94.3392L348.533 94.5275L347.973 99.5664L348.05 99.5751L350.405 97.6919L352.498 97.9249L352.486 98.0282L349.88 100.053L351.999 104.174L351.987 104.277L349.985 104.054L348.562 101.084L347.731 101.737L347.504 103.778L345.811 103.59L346.841 94.3392Z" fill="#00002B"/>
<path fill-rule="evenodd" clip-rule="evenodd" d="M334.922 66.7135C334.94 66.7637 334.958 66.814 335 66.8668C335.082 66.9725 335.061 67.1631 335.05 67.2584L333.778 78.6951C333.597 80.3153 332.248 81.4194 330.664 81.2432L319.484 79.999C317.9 79.8227 316.827 78.449 317.007 76.8288L318.704 61.5799C318.884 59.9597 320.233 58.8555 321.817 59.0318L329.271 59.8612C329.364 59.8716 329.55 59.8923 329.633 59.998C329.726 60.0084 329.809 60.114 329.891 60.2197L334.845 66.5601C334.886 66.613 334.904 66.6632 334.922 66.7135ZM331.989 65.9528L329.842 63.2053L329.566 65.6832L331.989 65.9528ZM330.876 79.3371L319.696 78.0929C319.137 78.0307 318.807 77.608 318.87 77.0361L320.567 61.7872C320.631 61.2154 321.046 60.8757 321.605 60.9379L328.127 61.6636L327.597 66.4289C327.533 67.0008 327.863 67.4235 328.422 67.4857L333.081 68.0041L331.914 78.4877C331.851 79.0595 331.435 79.3993 330.876 79.3371ZM329.755 72.4583C330.314 72.5205 330.73 72.1808 330.793 71.6089C330.857 71.0371 330.527 70.6144 329.968 70.5522L322.514 69.7227C321.955 69.6605 321.54 70.0003 321.476 70.5721C321.413 71.1439 321.743 71.5666 322.302 71.6289L329.755 72.4583ZM330.369 75.4212C330.305 75.993 329.89 76.3327 329.331 76.2705L321.878 75.4411C321.319 75.3789 320.988 74.9562 321.052 74.3843C321.116 73.8125 321.531 73.4728 322.09 73.535L329.543 74.3644C330.102 74.4266 330.433 74.8493 330.369 75.4212ZM322.938 65.9105C322.379 65.8483 321.964 66.1881 321.901 66.7599C321.837 67.3317 322.167 67.7544 322.726 67.8166L324.59 68.024C325.149 68.0862 325.564 67.7464 325.627 67.1746C325.691 66.6028 325.361 66.1801 324.802 66.1179L322.938 65.9105Z" fill="white"/>
<mask id="mask3_319_520" style="mask-type:alpha" maskUnits="userSpaceOnUse" x="316" y="59" width="20" height="23"  box-shadow= "4px 10px rgba(14, 64, 53, 0.16)">
<path fill-rule="evenodd" clip-rule="evenodd" d="M334.922 66.7135C334.94 66.7637 334.958 66.814 335 66.8668C335.082 66.9725 335.061 67.1631 335.05 67.2584L333.778 78.6951C333.597 80.3153 332.248 81.4194 330.664 81.2432L319.484 79.999C317.9 79.8227 316.827 78.449 317.007 76.8288L318.704 61.5799C318.884 59.9597 320.233 58.8555 321.817 59.0318L329.271 59.8612C329.364 59.8716 329.55 59.8923 329.633 59.998C329.726 60.0084 329.809 60.114 329.891 60.2197L334.845 66.5601C334.886 66.613 334.904 66.6632 334.922 66.7135ZM331.989 65.9528L329.842 63.2053L329.566 65.6832L331.989 65.9528ZM330.876 79.3371L319.696 78.0929C319.137 78.0307 318.807 77.608 318.87 77.0361L320.567 61.7872C320.631 61.2154 321.046 60.8757 321.605 60.9379L328.127 61.6636L327.597 66.4289C327.533 67.0008 327.863 67.4235 328.422 67.4857L333.081 68.0041L331.914 78.4877C331.851 79.0595 331.435 79.3993 330.876 79.3371ZM329.755 72.4583C330.314 72.5205 330.73 72.1808 330.793 71.6089C330.857 71.0371 330.527 70.6144 329.968 70.5522L322.514 69.7227C321.955 69.6605 321.54 70.0003 321.476 70.5721C321.413 71.1439 321.743 71.5666 322.302 71.6289L329.755 72.4583ZM330.369 75.4212C330.305 75.993 329.89 76.3327 329.331 76.2705L321.878 75.4411C321.319 75.3789 320.988 74.9562 321.052 74.3843C321.116 73.8125 321.531 73.4728 322.09 73.535L329.543 74.3644C330.102 74.4266 330.433 74.8493 330.369 75.4212ZM322.938 65.9105C322.379 65.8483 321.964 66.1881 321.901 66.7599C321.837 67.3317 322.167 67.7544 322.726 67.8166L324.59 68.024C325.149 68.0862 325.564 67.7464 325.627 67.1746C325.691 66.6028 325.361 66.1801 324.802 66.1179L322.938 65.9105Z" fill="white"/>
</mask>
<g mask="url(#mask3_319_520)"  box-shadow= "4px 10px rgba(14, 64, 53, 0.16)">
<rect x="316.333" y="57.4565" width="22.4987" height="23.0146" transform="rotate(6.34995 316.333 57.4565)" fill="#F23C06"  box-shadow= "4px 10px rgba(14, 64, 53, 0.16)"/>
</g>
<defs>
<filter id="filter0_d_319_520" x="0.0953369" y="0.633301" width="139.762" height="131.323" filterUnits="userSpaceOnUse" color-interpolation-filters="sRGB"  box-shadow= "4px 10px rgba(14, 64, 53, 0.16)">
<feFlood flood-opacity="0" result="BackgroundImageFix"  box-shadow= "4px 10px rgba(14, 64, 53, 0.16)"/>
<feColorMatrix in="SourceAlpha" type="matrix" values="0 0 0 0 0 0 0 0 0 0 0 0 0 0 0 0 0 0 127 0" result="hardAlpha"  box-shadow= "4px 10px rgba(14, 64, 53, 0.16)"/>
<feOffset dy="4"/>
<feGaussianBlur stdDeviation="12"  box-shadow= "4px 10px rgba(14, 64, 53, 0.16)"/>
<feColorMatrix type="matrix" values="0 0 0 0 0 0 0 0 0 0 0 0 0 0 0 0 0 0 0.06 0"/>
<feBlend mode="normal" in2="BackgroundImageFix" result="effect1_dropShadow_319_520"/>
<feBlend mode="normal" in="SourceGraphic" in2="effect1_dropShadow_319_520" result="shape"/>
</filter>
<filter id="filter1_d_319_520" x="185.635" y="21.281" width="139.762" height="131.323" filterUnits="userSpaceOnUse" color-interpolation-filters="sRGB">
<feFlood flood-opacity="0" result="BackgroundImageFix"/>
<feColorMatrix in="SourceAlpha" type="matrix" values="0 0 0 0 0 0 0 0 0 0 0 0 0 0 0 0 0 0 127 0" result="hardAlpha"/>
<feOffset dy="4"/>
<feGaussianBlur stdDeviation="12"/>
<feColorMatrix type="matrix" values="0 0 0 0 0 0 0 0 0 0 0 0 0 0 0 0 0 0 0.06 0"/>
<feBlend mode="normal" in2="BackgroundImageFix" result="effect1_dropShadow_319_520"/>
<feBlend mode="normal" in="SourceGraphic" in2="effect1_dropShadow_319_520" result="shape"/>
</filter>
<filter id="filter2_d_319_520" x="94.8224" y="11.175" width="139.762" height="131.323" filterUnits="userSpaceOnUse" color-interpolation-filters="sRGB">
<feFlood flood-opacity="0" result="BackgroundImageFix"/>
<feColorMatrix in="SourceAlpha" type="matrix" values="0 0 0 0 0 0 0 0 0 0 0 0 0 0 0 0 0 0 127 0" result="hardAlpha"/>
<feOffset dy="4"/>
<feGaussianBlur stdDeviation="12"/>
<feColorMatrix type="matrix" values="0 0 0 0 0 0 0 0 0 0 0 0 0 0 0 0 0 0 0.06 0"/>
<feBlend mode="normal" in2="BackgroundImageFix" result="effect1_dropShadow_319_520"/>
<feBlend mode="normal" in="SourceGraphic" in2="effect1_dropShadow_319_520" result="shape"/>
</filter>
<filter id="filter3_d_319_520" x="276.448" y="31.3867" width="139.762" height="131.323" filterUnits="userSpaceOnUse" color-interpolation-filters="sRGB">
<feFlood flood-opacity="0" result="BackgroundImageFix"/>
<feColorMatrix in="SourceAlpha" type="matrix" values="0 0 0 0 0 0 0 0 0 0 0 0 0 0 0 0 0 0 127 0" result="hardAlpha"/>
<feOffset dy="4"/>
<feGaussianBlur stdDeviation="12"/>
<feColorMatrix type="matrix" values="0 0 0 0 0 0 0 0 0 0 0 0 0 0 0 0 0 0 0.06 0"/>
<feBlend mode="normal" in2="BackgroundImageFix" result="effect1_dropShadow_319_520"/>
<feBlend mode="normal" in="SourceGraphic" in2="effect1_dropShadow_319_520" result="shape"/>
</filter>
</defs>
</svg>
