<svg width="414" height="211" viewBox="0 0 414 211" fill="none" xmlns="http://www.w3.org/2000/svg" box-shadow="4px 4px 10px rgba(14, 64, 53, 1)">
<g filter="url(#filter0_d_319_519)" box-shadow="4px 4px 10px rgba(14, 64, 53, 1)">
<rect x="37.2867" y="19.6064" width="355.032" height="125.244" rx="6" transform="rotate(6.34995 37.2867 19.6064)" fill="black" fill-opacity="0.01" box-shadow="4px 4px 10px rgba(14, 64, 53, 1)"/>
</g>
<rect x="37.2867" y="19.6064" width="355.032" height="125.244" rx="6" transform="rotate(6.34995 37.2867 19.6064)" fill="white" box-shadow="4px 4px 10px rgba(14, 64, 53, 1)"/>
<path opacity="0.2" d="M315.439 157.446C339.17 160.087 360.582 143.043 363.221 119.325C365.861 95.606 348.72 74.2721 324.989 71.6312C301.258 68.9904 279.846 86.034 277.206 109.752C274.567 133.471 291.708 154.805 315.439 157.446Z" stroke="#4F8E0C" stroke-width="16"/>
<path opacity="0.4" d="M308.321 156.034C314.538 157.812 321.074 158.177 327.449 157.105C333.823 156.032 339.874 153.548 345.158 149.836C350.441 146.123 354.823 141.276 357.981 135.649C361.139 130.023 362.992 123.76 363.404 117.321C363.815 110.882 362.774 104.431 360.357 98.4431C357.94 92.4553 354.208 87.0836 349.437 82.7228C344.666 78.362 338.977 75.1234 332.789 73.244C326.601 71.3646 320.072 70.892 313.681 71.8602" stroke="#4F8E0C" stroke-width="16"/>
<g opacity="0.74" filter="url(#filter1_d_319_519) " >
<path d="M314.09 71.8075C307.791 72.7018 301.768 74.9701 296.45 78.4512C291.132 81.9322 286.649 86.5401 283.321 91.9469C279.994 97.3536 277.903 103.426 277.198 109.731C276.492 116.037 277.19 122.42 279.24 128.427" stroke="#4F8E0C" stroke-width="16"/>
</g>
<path d="M308.472 110.242C307.998 110.189 307.549 110.076 307.124 109.903C306.709 109.732 306.336 109.502 306.003 109.214C305.671 108.915 305.386 108.558 305.147 108.144C304.919 107.731 304.761 107.263 304.671 106.74L306.841 106.143C306.925 106.723 307.125 107.178 307.441 107.51C307.759 107.83 308.183 108.02 308.712 108.079C308.949 108.105 309.178 108.097 309.399 108.053C309.622 107.998 309.82 107.911 309.993 107.794C310.165 107.676 310.307 107.532 310.417 107.362C310.54 107.182 310.614 106.973 310.64 106.737C310.696 106.241 310.553 105.832 310.213 105.509C309.884 105.187 309.398 104.991 308.756 104.919L307.759 104.808L307.983 102.798L308.895 102.899C309.12 102.924 309.343 102.921 309.564 102.888C309.784 102.856 309.979 102.792 310.149 102.697C310.332 102.592 310.478 102.454 310.589 102.284C310.711 102.104 310.786 101.89 310.814 101.642C310.857 101.259 310.756 100.934 310.512 100.667C310.269 100.39 309.917 100.225 309.455 100.174C308.96 100.118 308.561 100.211 308.261 100.451C307.973 100.681 307.76 100.954 307.623 101.27L305.687 100.216C305.82 99.9458 306.004 99.6755 306.239 99.4052C306.476 99.1236 306.759 98.8815 307.09 98.6788C307.433 98.4661 307.821 98.3097 308.254 98.2097C308.688 98.0984 309.176 98.0728 309.716 98.1329C310.268 98.1944 310.761 98.329 311.194 98.5368C311.638 98.7459 312.008 99.0094 312.303 99.3274C312.6 99.6341 312.817 99.9889 312.954 100.392C313.093 100.784 313.138 101.199 313.089 101.639C313.052 101.976 312.973 102.276 312.853 102.536C312.744 102.797 312.61 103.028 312.451 103.227C312.292 103.426 312.113 103.594 311.916 103.732C311.73 103.859 311.543 103.958 311.352 104.028L311.337 104.163C311.854 104.437 312.261 104.83 312.557 105.342C312.865 105.856 312.979 106.473 312.899 107.194C312.842 107.7 312.695 108.157 312.456 108.564C312.218 108.959 311.901 109.295 311.505 109.57C311.121 109.847 310.672 110.042 310.157 110.155C309.642 110.281 309.08 110.309 308.472 110.242ZM318.044 111.307C317.425 111.238 316.866 111.084 316.368 110.847C315.881 110.61 315.469 110.319 315.131 109.973C314.794 109.617 314.548 109.219 314.391 108.779C314.236 108.329 314.186 107.856 314.241 107.36C314.279 107.022 314.359 106.712 314.482 106.429C314.616 106.147 314.775 105.897 314.959 105.678C315.154 105.46 315.369 105.273 315.603 105.117C315.837 104.96 316.079 104.833 316.329 104.736L316.344 104.601C316 104.312 315.71 103.949 315.474 103.512C315.248 103.076 315.166 102.588 315.226 102.047C315.277 101.586 315.421 101.168 315.656 100.795C315.893 100.411 316.196 100.091 316.567 99.8361C316.937 99.5808 317.362 99.4 317.842 99.2937C318.322 99.1762 318.838 99.1481 319.39 99.2095C319.942 99.2709 320.44 99.4118 320.883 99.6322C321.327 99.8412 321.702 100.111 322.007 100.441C322.313 100.772 322.538 101.151 322.685 101.577C322.832 101.993 322.88 102.432 322.829 102.893C322.769 103.434 322.575 103.891 322.249 104.266C321.933 104.641 321.576 104.932 321.177 105.138L321.162 105.274C321.384 105.424 321.593 105.601 321.787 105.805C321.981 106.009 322.143 106.238 322.275 106.492C322.417 106.748 322.517 107.027 322.575 107.33C322.644 107.634 322.659 107.955 322.622 108.293C322.566 108.788 322.414 109.239 322.163 109.644C321.914 110.038 321.586 110.373 321.179 110.647C320.774 110.909 320.302 111.102 319.764 111.225C319.237 111.348 318.664 111.376 318.044 111.307ZM318.853 104.042C319.326 104.094 319.734 104.009 320.079 103.785C320.424 103.549 320.621 103.218 320.668 102.79C320.717 102.351 320.598 101.989 320.31 101.707C320.023 101.412 319.643 101.239 319.17 101.186C318.697 101.134 318.289 101.219 317.944 101.443C317.601 101.656 317.406 101.982 317.357 102.421C317.309 102.849 317.428 103.216 317.713 103.521C318 103.816 318.38 103.989 318.853 104.042ZM318.272 109.262C318.846 109.326 319.335 109.233 319.74 108.981C320.145 108.718 320.376 108.334 320.433 107.827C320.459 107.59 320.432 107.37 320.352 107.168C320.273 106.954 320.152 106.763 319.988 106.597C319.835 106.432 319.639 106.296 319.4 106.189C319.173 106.084 318.918 106.016 318.636 105.985C318.355 105.953 318.086 105.963 317.829 106.015C317.584 106.067 317.363 106.157 317.166 106.283C316.981 106.411 316.827 106.57 316.703 106.762C316.58 106.942 316.505 107.15 316.479 107.387C316.423 107.894 316.563 108.32 316.901 108.665C317.24 108.999 317.697 109.199 318.272 109.262ZM324.478 102.701C324.522 102.306 324.637 101.943 324.822 101.61C325.019 101.278 325.261 100.997 325.549 100.767C325.849 100.527 326.188 100.354 326.565 100.247C326.943 100.13 327.346 100.095 327.774 100.142C328.202 100.19 328.587 100.313 328.93 100.511C329.285 100.698 329.578 100.942 329.807 101.241C330.048 101.53 330.223 101.857 330.33 102.223C330.449 102.59 330.486 102.97 330.443 103.364C330.399 103.759 330.278 104.127 330.08 104.47C329.895 104.803 329.653 105.084 329.353 105.313C329.065 105.543 328.727 105.716 328.338 105.833C327.961 105.939 327.559 105.968 327.131 105.921C326.703 105.873 326.316 105.756 325.972 105.569C325.629 105.372 325.337 105.128 325.096 104.839C324.865 104.551 324.691 104.224 324.572 103.857C324.466 103.48 324.435 103.095 324.478 102.701ZM326.286 102.902C326.245 103.274 326.324 103.585 326.525 103.835C326.725 104.085 326.988 104.229 327.315 104.265C327.641 104.301 327.93 104.219 328.18 104.019C328.431 103.819 328.576 103.533 328.618 103.161C328.659 102.79 328.58 102.479 328.38 102.228C328.179 101.978 327.916 101.835 327.589 101.798C327.263 101.762 326.974 101.844 326.724 102.044C326.473 102.244 326.328 102.53 326.286 102.902ZM325.699 111.252L334.447 100.885L335.682 101.929L326.934 112.296L325.699 111.252ZM330.939 109.817C330.983 109.423 331.097 109.059 331.283 108.726C331.479 108.395 331.721 108.114 332.009 107.883C332.31 107.643 332.648 107.47 333.025 107.364C333.403 107.246 333.806 107.211 334.234 107.259C334.662 107.306 335.048 107.429 335.391 107.627C335.746 107.815 336.038 108.058 336.267 108.357C336.509 108.646 336.683 108.974 336.791 109.339C336.91 109.706 336.947 110.086 336.903 110.481C336.859 110.875 336.738 111.243 336.541 111.586C336.355 111.919 336.113 112.2 335.814 112.429C335.526 112.659 335.188 112.827 334.8 112.932C334.422 113.05 334.019 113.085 333.591 113.037C333.163 112.989 332.778 112.867 332.435 112.669C332.091 112.482 331.798 112.244 331.556 111.955C331.326 111.667 331.151 111.34 331.033 110.973C330.926 110.597 330.895 110.211 330.939 109.817ZM332.747 110.018C332.705 110.39 332.785 110.701 332.985 110.951C333.185 111.201 333.449 111.345 333.775 111.381C334.102 111.418 334.391 111.336 334.641 111.135C334.891 110.935 335.037 110.649 335.078 110.278C335.12 109.906 335.04 109.595 334.84 109.344C334.64 109.094 334.377 108.951 334.05 108.914C333.723 108.878 333.435 108.96 333.184 109.16C332.934 109.36 332.788 109.646 332.747 110.018Z" fill="#808080"/>
<path d="M306.134 129.035C305.738 128.991 305.365 128.892 305.016 128.74C304.666 128.588 304.353 128.383 304.077 128.126C303.8 127.868 303.568 127.567 303.379 127.224C303.192 126.872 303.057 126.473 302.976 126.028L304.689 125.564C304.758 126.043 304.925 126.454 305.192 126.798C305.46 127.133 305.84 127.328 306.331 127.382C306.512 127.402 306.686 127.4 306.855 127.375C307.033 127.343 307.191 127.291 307.33 127.219C307.478 127.139 307.599 127.035 307.692 126.906C307.785 126.777 307.841 126.622 307.861 126.441C307.88 126.268 307.868 126.11 307.823 125.966C307.778 125.821 307.689 125.68 307.556 125.543C307.431 125.408 307.259 125.271 307.039 125.133C306.827 124.996 306.56 124.848 306.238 124.69L305.692 124.42C305.452 124.307 305.211 124.162 304.969 123.987C304.735 123.813 304.527 123.611 304.343 123.381C304.159 123.151 304.014 122.891 303.907 122.6C303.809 122.301 303.78 121.975 303.819 121.622C303.86 121.26 303.966 120.932 304.138 120.637C304.32 120.335 304.553 120.082 304.838 119.878C305.131 119.667 305.466 119.516 305.843 119.427C306.228 119.331 306.645 119.307 307.093 119.357C307.558 119.409 307.951 119.518 308.273 119.685C308.604 119.844 308.875 120.035 309.085 120.259C309.306 120.476 309.476 120.708 309.596 120.957C309.717 121.206 309.8 121.438 309.846 121.652L308.237 122.127C308.179 121.859 308.046 121.609 307.836 121.376C307.635 121.144 307.337 121.006 306.941 120.962C306.562 120.92 306.237 120.976 305.967 121.129C305.698 121.273 305.548 121.488 305.516 121.772C305.486 122.047 305.58 122.298 305.799 122.523C306.019 122.739 306.382 122.967 306.887 123.206L307.447 123.465C307.803 123.635 308.122 123.823 308.404 124.029C308.696 124.227 308.937 124.455 309.126 124.711C309.324 124.969 309.463 125.254 309.541 125.568C309.629 125.874 309.652 126.221 309.608 126.609C309.555 127.091 309.409 127.498 309.172 127.829C308.944 128.153 308.667 128.41 308.34 128.6C308.014 128.79 307.655 128.921 307.264 128.99C306.872 129.06 306.496 129.075 306.134 129.035ZM314.529 129.079L314.426 129.068C314.201 129.287 313.936 129.467 313.633 129.608C313.338 129.749 312.971 129.795 312.532 129.747C312.205 129.71 311.901 129.62 311.62 129.475C311.348 129.34 311.114 129.166 310.92 128.952C310.726 128.739 310.583 128.492 310.492 128.212C310.401 127.931 310.374 127.632 310.409 127.313C310.445 126.986 310.543 126.7 310.701 126.456C310.859 126.203 311.066 125.995 311.319 125.831C311.573 125.668 311.86 125.556 312.181 125.496C312.511 125.428 312.861 125.414 313.232 125.456C313.645 125.502 313.982 125.574 314.241 125.673C314.501 125.763 314.714 125.852 314.878 125.94L314.9 125.746C314.937 125.41 314.834 125.12 314.591 124.875C314.349 124.621 314.03 124.472 313.634 124.428C313.048 124.363 312.526 124.553 312.066 124.999L310.932 124.023C311.698 123.253 312.662 122.933 313.825 123.063C314.807 123.172 315.53 123.488 315.996 124.011C316.462 124.525 316.644 125.234 316.544 126.138L316.121 129.937L314.454 129.751L314.529 129.079ZM314.74 127.18C314.553 127.063 314.354 126.967 314.145 126.891C313.945 126.808 313.72 126.753 313.47 126.725C313.065 126.68 312.741 126.735 312.496 126.891C312.262 127.039 312.13 127.243 312.102 127.501C312.073 127.76 312.153 127.978 312.343 128.156C312.541 128.335 312.778 128.44 313.053 128.47C313.277 128.495 313.488 128.48 313.686 128.423C313.885 128.358 314.057 128.268 314.2 128.153C314.353 128.031 314.474 127.887 314.562 127.723C314.66 127.55 314.719 127.37 314.74 127.18ZM317.467 130.086L318.496 120.836L320.189 121.024L319.159 130.275L317.467 130.086ZM326.71 129.572C326.36 130.056 325.917 130.43 325.382 130.693C324.855 130.957 324.235 131.049 323.52 130.969C323.037 130.916 322.599 130.784 322.203 130.574C321.818 130.357 321.491 130.081 321.223 129.746C320.955 129.411 320.757 129.031 320.63 128.607C320.513 128.176 320.481 127.714 320.536 127.223C320.587 126.767 320.716 126.345 320.925 125.959C321.135 125.563 321.403 125.231 321.729 124.962C322.056 124.685 322.428 124.478 322.845 124.341C323.27 124.205 323.723 124.164 324.206 124.218C324.714 124.274 325.156 124.411 325.534 124.627C325.912 124.835 326.217 125.104 326.451 125.436C326.685 125.758 326.849 126.13 326.942 126.55C327.034 126.97 327.054 127.417 327.002 127.891C326.995 127.951 326.989 128.003 326.984 128.046C326.97 128.096 326.96 128.143 326.956 128.186C326.942 128.228 326.933 128.275 326.927 128.327L322.159 127.796C322.165 128.059 322.209 128.29 322.291 128.491C322.383 128.685 322.499 128.855 322.64 129.001C322.79 129.14 322.957 129.25 323.14 129.331C323.323 129.404 323.514 129.451 323.712 129.474C324.1 129.517 324.428 129.466 324.697 129.321C324.976 129.169 325.203 128.968 325.379 128.717L326.71 129.572ZM325.446 126.946C325.449 126.833 325.425 126.704 325.371 126.558C325.326 126.414 325.246 126.274 325.13 126.139C325.023 126.005 324.879 125.889 324.698 125.79C324.526 125.692 324.31 125.629 324.052 125.6C323.69 125.56 323.36 125.628 323.061 125.804C322.763 125.98 322.537 126.247 322.383 126.605L325.446 126.946ZM330.271 131.721C329.858 131.675 329.493 131.582 329.177 131.442C328.87 131.303 328.605 131.139 328.382 130.948C328.169 130.75 327.992 130.534 327.852 130.3C327.714 130.058 327.614 129.82 327.552 129.587L329.136 129.109C329.246 129.453 329.413 129.72 329.635 129.91C329.868 130.093 330.135 130.201 330.436 130.235C330.747 130.269 330.998 130.241 331.192 130.149C331.385 130.057 331.49 129.934 331.508 129.779C331.527 129.606 331.465 129.46 331.321 129.339C331.187 129.211 330.94 129.083 330.579 128.956L329.709 128.663C329.516 128.598 329.317 128.506 329.112 128.387C328.916 128.269 328.739 128.128 328.584 127.962C328.428 127.796 328.305 127.604 328.216 127.385C328.127 127.166 328.098 126.918 328.129 126.643C328.163 126.332 328.258 126.064 328.414 125.837C328.579 125.611 328.787 125.43 329.038 125.292C329.289 125.145 329.575 125.046 329.895 124.995C330.224 124.936 330.569 124.926 330.931 124.966C331.534 125.033 332.059 125.214 332.506 125.508C332.954 125.793 333.261 126.207 333.427 126.748L331.901 127.18C331.809 126.917 331.652 126.716 331.432 126.579C331.212 126.441 330.986 126.359 330.753 126.333C330.512 126.306 330.295 126.334 330.103 126.418C329.911 126.492 329.807 126.607 329.79 126.762C329.773 126.908 329.834 127.033 329.97 127.135C330.116 127.239 330.314 127.339 330.565 127.437L331.508 127.777C332.137 128.004 332.587 128.307 332.859 128.686C333.14 129.058 333.255 129.476 333.203 129.941C333.172 130.217 333.078 130.472 332.921 130.708C332.764 130.943 332.554 131.146 332.291 131.318C332.037 131.481 331.736 131.6 331.388 131.675C331.048 131.751 330.676 131.766 330.271 131.721Z" fill="#162C00"/>
<path d="M54.6516 99.2589C54.9358 99.2905 55.2059 99.3833 55.4618 99.5372C55.7185 99.6838 55.9407 99.8746 56.1286 100.109C56.3164 100.344 56.4557 100.618 56.5463 100.931C56.6443 101.244 56.6733 101.579 56.6336 101.937C56.5922 102.308 56.4812 102.643 56.3006 102.94C56.12 103.237 55.8932 103.485 55.6202 103.683C55.3546 103.882 55.0541 104.03 54.7188 104.125C54.3916 104.214 54.0531 104.239 53.7033 104.2C53.2951 104.155 52.9347 104.045 52.6222 103.87C52.3104 103.687 52.0473 103.466 51.8327 103.206C51.6262 102.94 51.4749 102.643 51.3785 102.315C51.2903 101.98 51.2657 101.638 51.3046 101.288C51.3606 100.785 51.5101 100.337 51.7531 99.9435C52.0042 99.5435 52.3072 99.1418 52.6619 98.7386L54.7651 96.3496L55.7841 97.2377L54.0126 99.232L54.06 99.3037C54.2357 99.2495 54.4329 99.2345 54.6516 99.2589ZM53.8286 102.875C53.9889 102.893 54.1489 102.881 54.3084 102.84C54.468 102.799 54.6121 102.73 54.7409 102.633C54.8697 102.537 54.975 102.42 55.0568 102.281C55.1467 102.136 55.2018 101.973 55.2221 101.79C55.2424 101.608 55.2246 101.437 55.1687 101.275C55.1202 101.115 55.0437 100.974 54.9392 100.851C54.8348 100.729 54.7093 100.63 54.5627 100.555C54.4161 100.48 54.2627 100.433 54.1023 100.415C53.9347 100.397 53.7711 100.408 53.6116 100.449C53.4593 100.491 53.3152 100.56 53.1791 100.656C53.0503 100.752 52.941 100.873 52.851 101.018C52.7684 101.163 52.717 101.327 52.6967 101.509C52.6764 101.692 52.6906 101.863 52.7391 102.023C52.7958 102.177 52.8763 102.315 52.9808 102.438C53.0925 102.561 53.218 102.66 53.3573 102.734C53.5039 102.809 53.661 102.856 53.8286 102.875ZM59.9387 104.894C59.5379 104.85 59.1763 104.75 58.854 104.596C58.539 104.443 58.2722 104.255 58.0536 104.031C57.8358 103.801 57.6763 103.543 57.5751 103.259C57.4747 102.967 57.4424 102.661 57.4781 102.34C57.5024 102.122 57.5543 101.921 57.6337 101.738C57.7203 101.556 57.8232 101.394 57.9423 101.252C58.0686 101.111 58.2076 100.99 58.359 100.889C58.5105 100.788 58.6672 100.706 58.8292 100.642L58.8389 100.555C58.6162 100.368 58.4284 100.133 58.2754 99.8503C58.1296 99.5684 58.0763 99.2526 58.1152 98.9028C58.1484 98.6039 58.2412 98.3339 58.3935 98.0926C58.5466 97.844 58.743 97.6371 58.9828 97.4719C59.2225 97.3068 59.4975 97.1898 59.8076 97.121C60.1186 97.0449 60.4527 97.0268 60.8098 97.0665C61.1669 97.1063 61.4888 97.1974 61.7755 97.34C62.0629 97.4753 62.3055 97.6498 62.503 97.8637C62.7006 98.0775 62.8467 98.3225 62.9414 98.5987C63.0369 98.8676 63.0681 99.1514 63.0348 99.4502C62.9959 99.8001 62.8707 100.096 62.6593 100.338C62.4552 100.581 62.2239 100.769 61.9656 100.903L61.9559 100.99C62.1 101.088 62.2348 101.202 62.3603 101.334C62.4858 101.466 62.5911 101.614 62.6761 101.779C62.7684 101.944 62.8331 102.125 62.8703 102.321C62.9148 102.517 62.9249 102.725 62.9006 102.944C62.8649 103.265 62.7661 103.556 62.6041 103.818C62.4429 104.073 62.2306 104.29 61.9674 104.467C61.705 104.637 61.3997 104.762 61.0514 104.841C60.7105 104.921 60.3396 104.939 59.9387 104.894ZM60.4619 100.193C60.768 100.227 61.0324 100.172 61.2551 100.027C61.4787 99.8747 61.6058 99.6601 61.6367 99.3832C61.6683 99.0989 61.591 98.8653 61.4048 98.6822C61.2193 98.4919 60.9736 98.3797 60.6675 98.3456C60.3614 98.3116 60.0969 98.367 59.8742 98.5119C59.6523 98.6495 59.5255 98.8605 59.4939 99.1447C59.4631 99.4217 59.54 99.659 59.7246 99.8566C59.91 100.047 60.1557 100.159 60.4619 100.193ZM60.0859 103.571C60.4576 103.613 60.7743 103.552 61.0359 103.389C61.2983 103.219 61.4478 102.97 61.4843 102.642C61.5013 102.489 61.4839 102.347 61.4321 102.216C61.3811 102.077 61.3026 101.954 61.1965 101.847C61.0977 101.74 60.971 101.652 60.8163 101.583C60.6689 101.515 60.5042 101.471 60.3219 101.45C60.1397 101.43 59.9656 101.437 59.7996 101.47C59.6409 101.504 59.4979 101.562 59.3708 101.643C59.2509 101.726 59.1509 101.829 59.0707 101.953C58.9913 102.07 58.9431 102.205 58.926 102.358C58.8895 102.686 58.9806 102.961 59.1992 103.185C59.4187 103.401 59.7142 103.53 60.0859 103.571ZM64.5772 105.3C64.3148 105.271 64.099 105.154 63.9298 104.951C63.7687 104.741 63.7027 104.505 63.7319 104.243C63.7611 103.98 63.877 103.768 64.0795 103.606C64.2892 103.445 64.5253 103.379 64.7877 103.408C65.0501 103.438 65.2622 103.553 65.4242 103.756C65.5861 103.958 65.6525 104.191 65.6233 104.453C65.5941 104.716 65.4778 104.931 65.2745 105.101C65.072 105.263 64.8396 105.329 64.5772 105.3ZM66.5475 105.453L66.6923 104.152C67.1693 103.777 67.6103 103.427 68.0153 103.103C68.1854 102.967 68.3595 102.828 68.5377 102.686C68.7159 102.543 68.8819 102.41 69.0358 102.287C69.1897 102.164 69.3274 102.054 69.4489 101.957C69.5712 101.853 69.6652 101.771 69.7308 101.712C69.8628 101.586 69.9786 101.474 70.0782 101.374C70.1852 101.275 70.2698 101.178 70.3322 101.081C70.4026 100.978 70.4581 100.878 70.4986 100.779C70.54 100.673 70.5675 100.558 70.5813 100.434C70.6081 100.193 70.5364 99.9751 70.3664 99.7791C70.1972 99.5758 69.9486 99.4559 69.6206 99.4194C69.2926 99.3829 69.027 99.4493 68.8237 99.6185C68.6212 99.7804 68.4742 99.9744 68.3827 100.2L67.1413 99.5198C67.2215 99.3295 67.3386 99.1397 67.4925 98.9502C67.6472 98.7534 67.8355 98.5862 68.0574 98.4486C68.2801 98.3037 68.5357 98.1956 68.824 98.1244C69.1204 98.0467 69.4435 98.0273 69.7933 98.0662C70.1723 98.1084 70.5084 98.2048 70.8015 98.3555C71.0955 98.4989 71.3372 98.6808 71.5266 98.9011C71.7161 99.1214 71.8541 99.3728 71.9407 99.6555C72.0282 99.9308 72.0548 100.222 72.0208 100.528C71.9689 100.994 71.8044 101.411 71.5274 101.779C71.2584 102.14 70.9413 102.47 70.5761 102.769L69.5312 103.604C69.2558 103.824 68.9444 104.07 68.597 104.341L68.6334 104.412L71.6617 104.749L71.5218 106.006L66.5475 105.453ZM72.9954 100.315C73.0238 100.06 73.0979 99.8248 73.2178 99.6095C73.345 99.3949 73.5017 99.2131 73.688 99.0641C73.8824 98.9087 74.1015 98.7965 74.3452 98.7277C74.5898 98.6517 74.8506 98.629 75.1276 98.6598C75.4045 98.6907 75.6539 98.7701 75.8758 98.8981C76.1058 99.0196 76.2948 99.1771 76.443 99.3707C76.5993 99.5578 76.7122 99.7696 76.7818 100.006C76.8587 100.243 76.883 100.49 76.8546 100.745C76.8262 101 76.748 101.238 76.62 101.46C76.5001 101.675 76.3434 101.857 76.1498 102.005C75.9635 102.154 75.7444 102.267 75.4926 102.342C75.2488 102.411 74.9884 102.43 74.7115 102.399C74.4345 102.368 74.1847 102.292 73.962 102.171C73.7401 102.043 73.5511 101.886 73.3948 101.699C73.2458 101.513 73.1329 101.301 73.056 101.063C72.9872 100.82 72.967 100.57 72.9954 100.315ZM74.1652 100.445C74.1384 100.686 74.1898 100.887 74.3193 101.049C74.4489 101.211 74.6193 101.304 74.8307 101.327C75.0421 101.351 75.2287 101.298 75.3907 101.168C75.5527 101.039 75.6471 100.854 75.6739 100.613C75.7006 100.373 75.6492 100.171 75.5197 100.009C75.3901 99.8475 75.2197 99.7548 75.0083 99.7312C74.797 99.7077 74.6103 99.7607 74.4483 99.8903C74.2863 100.02 74.1919 100.205 74.1652 100.445ZM73.7852 105.848L79.4459 99.1404L80.2451 99.8159L74.5844 106.524L73.7852 105.848ZM77.1758 104.92C77.2042 104.665 77.2783 104.429 77.3982 104.214C77.5254 103.999 77.6821 103.818 77.8684 103.669C78.0628 103.513 78.2818 103.401 78.5256 103.332C78.7702 103.256 79.031 103.234 79.3079 103.264C79.5849 103.295 79.8343 103.375 80.0562 103.503C80.2861 103.624 80.4752 103.782 80.6234 103.975C80.7796 104.162 80.8926 104.374 80.9622 104.611C81.0391 104.848 81.0633 105.094 81.0349 105.349C81.0066 105.604 80.9284 105.843 80.8004 106.065C80.6805 106.28 80.5238 106.462 80.3302 106.61C80.1439 106.759 79.9252 106.867 79.6742 106.935C79.4296 107.012 79.1688 107.034 78.8918 107.003C78.6149 106.973 78.3655 106.893 78.1436 106.765C77.9209 106.644 77.7314 106.491 77.5752 106.303C77.4262 106.117 77.3133 105.905 77.2364 105.668C77.1676 105.424 77.1474 105.175 77.1758 104.92ZM78.3455 105.05C78.3188 105.29 78.3702 105.492 78.4997 105.654C78.6293 105.816 78.7997 105.908 79.0111 105.932C79.2224 105.956 79.4091 105.902 79.5711 105.773C79.7331 105.643 79.8275 105.458 79.8542 105.218C79.881 104.977 79.8296 104.776 79.7001 104.614C79.5705 104.452 79.4001 104.359 79.1887 104.336C78.9773 104.312 78.7907 104.365 78.6287 104.495C78.4667 104.624 78.3723 104.809 78.3455 105.05ZM85.2144 107.53L84.2086 107.418L84.8048 102.061L85.7668 102.168L85.6841 102.911L85.7278 102.916C85.9101 102.671 86.1676 102.478 86.5005 102.338C86.8407 102.199 87.1674 102.147 87.4808 102.182C87.8744 102.226 88.2105 102.355 88.489 102.571C88.7676 102.786 88.9582 103.062 89.061 103.398C89.5818 102.762 90.2358 102.488 91.023 102.576C91.6425 102.645 92.0988 102.887 92.3919 103.304C92.685 103.72 92.7926 104.278 92.7147 104.978L92.3424 108.323L91.3366 108.211L91.6919 105.019C91.7478 104.516 91.6969 104.145 91.539 103.906C91.3819 103.66 91.0884 103.513 90.6584 103.465C90.2721 103.422 89.9295 103.55 89.6307 103.849C89.3318 104.148 89.1576 104.519 89.1081 104.964L88.7784 107.926L87.7726 107.815L88.1279 104.622C88.1838 104.119 88.1329 103.748 87.975 103.51C87.8179 103.263 87.5244 103.116 87.0944 103.068C86.7081 103.025 86.3655 103.153 86.0667 103.452C85.7678 103.751 85.5936 104.123 85.5441 104.567L85.2144 107.53ZM93.5103 105.741C93.602 104.918 93.9365 104.265 94.514 103.783C95.0988 103.302 95.7884 103.106 96.5828 103.195C97.3773 103.283 98.0032 103.626 98.4607 104.223C98.9254 104.82 99.1119 105.531 99.0203 106.355C98.9278 107.185 98.5896 107.838 98.0056 108.311C97.4282 108.793 96.7422 108.99 95.9478 108.901C95.1533 108.813 94.5238 108.47 94.059 107.872C93.6016 107.275 93.4187 106.565 93.5103 105.741ZM94.5161 105.853C94.452 106.429 94.5677 106.914 94.8633 107.309C95.1588 107.703 95.5544 107.928 96.05 107.983C96.5456 108.038 96.9809 107.906 97.3559 107.586C97.7309 107.266 97.9504 106.818 98.0145 106.243C98.0778 105.674 97.9616 105.193 97.6661 104.798C97.3641 104.396 96.969 104.167 96.4806 104.113C95.9923 104.059 95.5566 104.195 95.1735 104.521C94.7985 104.841 94.5794 105.285 94.5161 105.853ZM100.535 109.235L99.5291 109.123L100.125 103.766L101.087 103.873L100.99 104.748L101.034 104.752C101.167 104.48 101.402 104.262 101.737 104.1C102.081 103.932 102.405 103.865 102.711 103.899C103.003 103.931 103.246 104.003 103.44 104.113L103.026 105.052C102.908 104.987 102.714 104.939 102.444 104.909C102.065 104.867 101.716 104.983 101.398 105.258C101.087 105.533 100.909 105.875 100.863 106.283L100.535 109.235ZM105.555 109.971C104.768 109.883 104.15 109.541 103.699 108.945C103.249 108.349 103.07 107.639 103.162 106.815C103.253 105.999 103.576 105.349 104.131 104.865C104.688 104.373 105.352 104.171 106.125 104.257C106.919 104.345 107.521 104.674 107.93 105.243C108.347 105.806 108.504 106.55 108.401 107.476L108.378 107.584L104.169 107.116C104.125 107.642 104.253 108.084 104.552 108.442C104.852 108.8 105.235 109.005 105.701 109.057C106.343 109.128 106.881 108.864 107.317 108.263L108.165 108.8C107.874 109.225 107.499 109.541 107.041 109.749C106.59 109.957 106.095 110.031 105.555 109.971ZM104.338 106.293L107.41 106.635C107.422 106.26 107.303 105.937 107.053 105.666C106.811 105.388 106.46 105.224 106.001 105.172C105.622 105.13 105.281 105.21 104.978 105.413C104.682 105.616 104.469 105.909 104.338 106.293ZM113.819 110.89C113.032 110.803 112.413 110.461 111.963 109.865C111.513 109.268 111.333 108.559 111.425 107.735C111.516 106.919 111.839 106.269 112.395 105.784C112.951 105.293 113.616 105.09 114.388 105.176C115.183 105.265 115.784 105.593 116.193 106.163C116.61 106.726 116.767 107.47 116.664 108.396L116.641 108.504L112.432 108.035C112.388 108.562 112.516 109.004 112.816 109.362C113.115 109.72 113.498 109.925 113.965 109.977C114.606 110.048 115.145 109.783 115.581 109.183L116.428 109.72C116.138 110.145 115.763 110.461 115.305 110.668C114.853 110.876 114.358 110.95 113.819 110.89ZM112.601 107.213L115.673 107.555C115.685 107.18 115.566 106.857 115.316 106.585C115.074 106.308 114.723 106.143 114.264 106.092C113.885 106.05 113.544 106.13 113.241 106.332C112.946 106.536 112.732 106.829 112.601 107.213ZM118.263 109.547C118.234 109.81 118.319 110.041 118.518 110.24C118.724 110.44 118.977 110.557 119.276 110.59C119.698 110.637 120.091 110.522 120.454 110.245C120.824 109.969 121.033 109.62 121.08 109.197C120.794 108.914 120.371 108.742 119.809 108.679C119.401 108.634 119.048 108.694 118.749 108.86C118.457 109.027 118.295 109.256 118.263 109.547ZM119.997 105.8C120.74 105.883 121.305 106.149 121.69 106.597C122.076 107.039 122.231 107.606 122.154 108.298L121.786 111.6L120.824 111.493L120.907 110.749L120.863 110.744C120.38 111.31 119.792 111.555 119.099 111.478C118.509 111.412 118.033 111.182 117.671 110.788C117.316 110.394 117.168 109.935 117.227 109.41C117.288 108.856 117.545 108.438 117.997 108.157C118.456 107.876 119.036 107.774 119.735 107.852C120.333 107.918 120.813 108.082 121.175 108.344L121.2 108.115C121.239 107.765 121.134 107.454 120.883 107.183C120.634 106.904 120.323 106.744 119.952 106.703C119.391 106.64 118.92 106.828 118.539 107.265L117.715 106.609C118.282 105.964 119.042 105.694 119.997 105.8ZM123.927 111.838L122.921 111.726L123.517 106.369L124.479 106.476L124.382 107.351L124.425 107.356C124.559 107.083 124.794 106.865 125.129 106.703C125.472 106.535 125.797 106.468 126.103 106.502C126.395 106.534 126.638 106.606 126.832 106.716L126.418 107.655C126.299 107.59 126.105 107.543 125.836 107.513C125.457 107.47 125.108 107.586 124.79 107.861C124.479 108.136 124.301 108.478 124.255 108.886L123.927 111.838ZM127.489 106.811L128.451 106.918L128.368 107.661L128.412 107.666C128.594 107.421 128.851 107.228 129.184 107.088C129.524 106.949 129.866 106.898 130.208 106.937C130.864 107.01 131.346 107.255 131.654 107.673C131.97 108.084 132.089 108.636 132.012 109.329L131.637 112.696L130.631 112.584L130.999 109.282C131.074 108.405 130.682 107.919 129.822 107.823C129.421 107.779 129.068 107.905 128.761 108.203C128.456 108.494 128.278 108.865 128.228 109.317L127.898 112.28L126.892 112.168L127.489 106.811ZM134.92 105.768C134.899 105.964 134.811 106.124 134.657 106.247C134.503 106.37 134.328 106.421 134.131 106.399C133.934 106.377 133.774 106.289 133.651 106.135C133.528 105.982 133.477 105.806 133.499 105.609C133.521 105.413 133.609 105.253 133.763 105.13C133.917 105.007 134.092 104.956 134.289 104.978C134.486 105 134.646 105.088 134.769 105.242C134.892 105.395 134.942 105.571 134.92 105.768ZM134.507 107.592L133.911 112.949L132.905 112.837L133.501 107.48L134.507 107.592ZM135.816 107.738L136.778 107.845L136.695 108.588L136.739 108.593C136.921 108.348 137.179 108.155 137.512 108.015C137.852 107.876 138.193 107.825 138.536 107.863C139.192 107.936 139.674 108.182 139.981 108.6C140.297 109.011 140.416 109.563 140.339 110.255L139.965 113.623L138.959 113.511L139.326 110.209C139.402 109.332 139.009 108.846 138.149 108.75C137.749 108.705 137.395 108.832 137.089 109.13C136.784 109.421 136.606 109.792 136.555 110.244L136.226 113.207L135.22 113.095L135.816 107.738ZM143.58 113.272C144.075 113.328 144.5 113.194 144.853 112.872C145.221 112.551 145.436 112.103 145.501 111.527C145.563 110.966 145.451 110.485 145.163 110.084C144.883 109.684 144.499 109.457 144.01 109.402C143.529 109.349 143.105 109.486 142.736 109.814C142.368 110.142 142.152 110.586 142.09 111.148C142.026 111.716 142.139 112.197 142.427 112.591C142.714 112.992 143.099 113.219 143.58 113.272ZM143.182 116.548C142.883 116.515 142.607 116.444 142.354 116.335C142.099 116.232 141.871 116.1 141.667 115.937C141.471 115.775 141.307 115.591 141.175 115.384C141.043 115.178 140.95 114.954 140.896 114.711L141.891 114.424C141.966 114.749 142.127 115.022 142.376 115.241C142.624 115.461 142.927 115.59 143.284 115.63C143.831 115.691 144.275 115.574 144.618 115.281C144.961 114.987 145.164 114.552 145.228 113.976L145.285 113.462L145.241 113.457C145.02 113.72 144.736 113.918 144.39 114.049C144.051 114.173 143.693 114.215 143.314 114.172C142.614 114.095 142.043 113.754 141.601 113.152C141.168 112.535 140.995 111.83 141.084 111.036C141.172 110.241 141.495 109.595 142.052 109.096C142.617 108.598 143.249 108.388 143.949 108.466C144.328 108.508 144.668 108.631 144.97 108.834C145.28 109.031 145.514 109.282 145.672 109.587L145.716 109.592L145.799 108.849L146.761 108.956L146.19 114.083C146.094 114.943 145.775 115.59 145.233 116.024C144.682 116.465 143.998 116.639 143.182 116.548ZM151.603 113.413C151.551 113.879 151.303 114.25 150.859 114.525C150.415 114.8 149.884 114.904 149.264 114.835C148.725 114.775 148.266 114.583 147.889 114.261C147.513 113.931 147.262 113.527 147.139 113.049L148.078 112.766C148.173 113.101 148.335 113.374 148.562 113.583C148.798 113.787 149.065 113.905 149.364 113.938C149.684 113.974 149.958 113.934 150.185 113.819C150.419 113.705 150.547 113.553 150.568 113.364C150.606 113.021 150.371 112.741 149.864 112.522L148.972 112.19C147.959 111.812 147.494 111.251 147.576 110.507C147.631 110.019 147.871 109.651 148.297 109.403C148.731 109.149 149.258 109.056 149.877 109.125C150.351 109.178 150.765 109.339 151.119 109.607C151.48 109.876 151.716 110.208 151.827 110.604L150.889 110.876C150.812 110.639 150.664 110.445 150.444 110.295C150.233 110.139 149.985 110.045 149.701 110.013C149.439 109.984 149.194 110.023 148.968 110.131C148.75 110.24 148.63 110.389 148.609 110.578C148.575 110.884 148.838 111.135 149.399 111.33L150.185 111.628C151.22 112.009 151.693 112.604 151.603 113.413ZM156.826 115.588C156.389 115.539 156.039 115.364 155.778 115.061C155.524 114.76 155.42 114.369 155.466 113.887L155.799 110.891L154.859 110.787L154.961 109.868L155.901 109.973L156.084 108.333L157.09 108.445L156.907 110.085L158.219 110.231L158.117 111.149L156.805 111.003L156.508 113.671C156.468 114.028 156.51 114.28 156.634 114.426C156.759 114.566 156.909 114.645 157.084 114.664C157.164 114.673 157.241 114.675 157.316 114.668C157.398 114.655 157.474 114.638 157.543 114.616L157.76 115.548C157.487 115.613 157.176 115.627 156.826 115.588ZM159.504 107.872L160.51 107.984L160.235 110.455L160.108 111.194L160.152 111.199C160.334 110.953 160.592 110.761 160.925 110.62C161.265 110.481 161.606 110.431 161.949 110.469C162.605 110.542 163.087 110.787 163.394 111.205C163.71 111.617 163.829 112.169 163.752 112.861L163.378 116.228L162.372 116.116L162.725 112.946C162.832 111.984 162.459 111.455 161.606 111.36C161.198 111.315 160.833 111.448 160.51 111.759C160.196 112.063 160.014 112.441 159.964 112.893L159.639 115.812L158.633 115.7L159.504 107.872ZM165.42 114.795C165.391 115.058 165.476 115.288 165.675 115.488C165.881 115.688 166.134 115.804 166.433 115.838C166.856 115.885 167.248 115.77 167.611 115.493C167.981 115.217 168.19 114.867 168.237 114.445C167.951 114.162 167.528 113.989 166.966 113.927C166.558 113.882 166.205 113.942 165.906 114.108C165.614 114.275 165.452 114.504 165.42 114.795ZM167.154 111.048C167.897 111.131 168.462 111.397 168.847 111.845C169.233 112.287 169.388 112.854 169.311 113.546L168.944 116.848L167.981 116.74L168.064 115.997L168.02 115.992C167.537 116.558 166.949 116.803 166.257 116.726C165.666 116.66 165.19 116.43 164.828 116.035C164.473 115.642 164.325 115.183 164.384 114.658C164.445 114.104 164.702 113.686 165.154 113.404C165.613 113.123 166.193 113.022 166.892 113.1C167.49 113.166 167.97 113.33 168.332 113.592L168.357 113.362C168.396 113.013 168.291 112.702 168.041 112.431C167.791 112.152 167.481 111.992 167.109 111.951C166.548 111.888 166.077 112.076 165.696 112.513L164.873 111.857C165.439 111.211 166.199 110.942 167.154 111.048ZM170.674 111.617L171.636 111.724L171.553 112.467L171.597 112.472C171.779 112.227 172.037 112.034 172.37 111.894C172.71 111.755 173.051 111.704 173.394 111.742C174.05 111.815 174.532 112.061 174.839 112.479C175.155 112.89 175.274 113.442 175.197 114.135L174.823 117.502L173.817 117.39L174.184 114.088C174.26 113.211 173.867 112.725 173.007 112.629C172.607 112.585 172.253 112.711 171.947 113.009C171.642 113.3 171.464 113.671 171.413 114.123L171.084 117.086L170.078 116.974L170.674 111.617ZM51.6473 108.95L50.7762 116.778L49.7704 116.666L50.6415 108.838L51.6473 108.95ZM52.8634 115.35C52.8342 115.612 52.9192 115.843 53.1183 116.042C53.3248 116.242 53.5775 116.359 53.8763 116.392C54.299 116.439 54.6918 116.324 55.0546 116.047C55.4248 115.771 55.6334 115.422 55.6804 114.999C55.3946 114.717 54.9711 114.544 54.4099 114.482C54.0017 114.436 53.6482 114.496 53.3494 114.662C53.0578 114.829 52.8958 115.058 52.8634 115.35ZM54.5974 111.603C55.3409 111.685 55.9053 111.951 56.2907 112.4C56.6769 112.841 56.8315 113.408 56.7544 114.1L56.387 117.402L55.4249 117.295L55.5077 116.552L55.4639 116.547C54.9804 117.113 54.3924 117.357 53.7 117.28C53.1096 117.214 52.6335 116.984 52.2716 116.59C51.9169 116.196 51.7688 115.737 51.8272 115.212C51.8888 114.658 52.1456 114.241 52.5976 113.959C53.0568 113.678 53.6362 113.576 54.3359 113.654C54.9336 113.721 55.4134 113.885 55.7753 114.146L55.8009 113.917C55.8398 113.567 55.7342 113.256 55.484 112.985C55.2346 112.707 54.924 112.547 54.5523 112.505C53.9911 112.443 53.5202 112.63 53.1395 113.067L52.316 112.411C52.8822 111.766 53.6427 111.496 54.5974 111.603ZM61.7332 116.492C61.6813 116.958 61.4334 117.329 60.9896 117.604C60.5457 117.88 60.0141 117.983 59.3945 117.914C58.8552 117.854 58.3969 117.663 58.0196 117.34C57.643 117.011 57.3929 116.606 57.269 116.128L58.2081 115.845C58.3036 116.18 58.4651 116.453 58.6926 116.663C58.9283 116.866 59.1955 116.984 59.4943 117.017C59.815 117.053 60.0887 117.013 60.3155 116.899C60.5496 116.784 60.6771 116.633 60.6982 116.443C60.7363 116.1 60.5019 115.82 59.995 115.601L59.1022 115.269C58.0892 114.891 57.6241 114.33 57.7068 113.587C57.7611 113.098 58.0013 112.73 58.4273 112.483C58.8614 112.228 59.3882 112.136 60.0078 112.205C60.4815 112.257 60.8953 112.418 61.2491 112.686C61.6103 112.955 61.8463 113.287 61.9572 113.683L61.0193 113.955C60.9424 113.718 60.7943 113.524 60.5748 113.375C60.3635 113.218 60.1157 113.124 59.8315 113.093C59.5691 113.063 59.3249 113.103 59.099 113.21C58.8803 113.319 58.7604 113.468 58.7393 113.657C58.7052 113.963 58.9688 114.214 59.53 114.409L60.3159 114.707C61.3508 115.088 61.8232 115.683 61.7332 116.492ZM64.501 118.394C64.0637 118.345 63.7143 118.17 63.4527 117.867C63.1985 117.566 63.0945 117.175 63.1407 116.693L63.4741 113.697L62.5339 113.593L62.6361 112.674L63.5763 112.779L63.7588 111.139L64.7646 111.251L64.5821 112.891L65.894 113.037L65.7918 113.955L64.4799 113.809L64.183 116.477C64.1433 116.834 64.1854 117.086 64.3092 117.232C64.4339 117.372 64.5837 117.451 64.7587 117.47C64.8388 117.479 64.9162 117.481 64.9907 117.474C65.0733 117.461 65.149 117.444 65.2178 117.422L65.4351 118.354C65.1622 118.419 64.8508 118.433 64.501 118.394ZM69.6626 118.879L68.6568 118.768L69.2529 113.411L70.215 113.518L70.1322 114.261L70.176 114.266C70.3582 114.021 70.6158 113.828 70.9487 113.688C71.2888 113.549 71.6156 113.496 71.929 113.531C72.3225 113.575 72.6586 113.705 72.9372 113.92C73.2157 114.136 73.4064 114.411 73.5092 114.748C74.03 114.112 74.684 113.838 75.4711 113.925C76.0906 113.994 76.5469 114.237 76.84 114.653C77.1331 115.07 77.2407 115.628 77.1628 116.327L76.7906 119.673L75.7848 119.561L76.14 116.368C76.196 115.866 76.145 115.495 75.9872 115.256C75.8301 115.01 75.5365 114.862 75.1065 114.815C74.7203 114.772 74.3777 114.9 74.0788 115.198C73.7799 115.497 73.6057 115.869 73.5563 116.313L73.2266 119.276L72.2208 119.164L72.576 115.972C72.632 115.469 72.581 115.098 72.4232 114.859C72.2661 114.613 71.9725 114.466 71.5425 114.418C71.1563 114.375 70.8137 114.503 70.5148 114.802C70.2159 115.1 70.0417 115.472 69.9923 115.917L69.6626 118.879ZM77.9584 117.091C78.0501 116.267 78.3847 115.615 78.9622 115.133C79.5469 114.652 80.2365 114.456 81.031 114.544C81.8254 114.633 82.4513 114.975 82.9088 115.572C83.3735 116.17 83.5601 116.881 83.4684 117.704C83.376 118.535 83.0378 119.187 82.4538 119.661C81.8763 120.143 81.1903 120.339 80.3959 120.251C79.6015 120.163 78.9719 119.82 78.5072 119.222C78.0497 118.625 77.8668 117.915 77.9584 117.091ZM78.9642 117.203C78.9002 117.779 79.0159 118.264 79.3114 118.658C79.6069 119.053 80.0025 119.278 80.4981 119.333C80.9937 119.388 81.429 119.255 81.804 118.936C82.179 118.616 82.3986 118.168 82.4626 117.592C82.5259 117.024 82.4098 116.542 82.1143 116.148C81.8123 115.745 81.4171 115.517 80.9288 115.463C80.4405 115.408 80.0048 115.544 79.6216 115.87C79.2466 116.19 79.0275 116.634 78.9642 117.203ZM84.5734 115.116L85.5354 115.223L85.4527 115.966L85.4964 115.971C85.6787 115.726 85.9363 115.533 86.2691 115.393C86.6093 115.254 86.9506 115.203 87.2932 115.241C87.9491 115.314 88.4309 115.56 88.7386 115.977C89.0544 116.389 89.1737 116.941 89.0967 117.633L88.7219 121L87.7162 120.889L88.0836 117.587C88.159 116.71 87.7668 116.224 86.9067 116.128C86.5059 116.083 86.1524 116.21 85.8462 116.508C85.5408 116.799 85.363 117.17 85.3127 117.622L84.983 120.584L83.9772 120.472L84.5734 115.116ZM91.7362 121.424C91.2989 121.376 90.9495 121.2 90.6879 120.898C90.4337 120.597 90.3297 120.205 90.3759 119.724L90.7093 116.728L89.7691 116.623L89.8713 115.705L90.8115 115.81L90.994 114.17L91.9998 114.282L91.8173 115.922L93.1292 116.068L93.027 116.986L91.7151 116.84L91.4182 119.508C91.3785 119.865 91.4206 120.117 91.5444 120.263C91.6691 120.402 91.8189 120.482 91.9939 120.501C92.074 120.51 92.1514 120.511 92.2259 120.505C92.3085 120.492 92.3842 120.475 92.453 120.453L92.6703 121.385C92.3974 121.45 92.086 121.463 91.7362 121.424ZM94.4143 113.709L95.4201 113.821L95.1451 116.292L95.0187 117.031L95.0624 117.035C95.2446 116.79 95.5022 116.597 95.8351 116.457C96.1752 116.318 96.5166 116.268 96.8591 116.306C97.5151 116.379 97.9969 116.624 98.3045 117.042C98.6203 117.453 98.7397 118.005 98.6626 118.698L98.2879 122.065L97.2821 121.953L97.6349 118.783C97.742 117.821 97.3691 117.292 96.5164 117.197C96.1083 117.152 95.743 117.285 95.4206 117.595C95.1064 117.9 94.9241 118.278 94.8738 118.73L94.549 121.649L93.5432 121.537L94.4143 113.709ZM100.943 121.674C100.921 121.878 100.828 122.045 100.666 122.175C100.512 122.305 100.329 122.358 100.117 122.335C99.9131 122.312 99.7463 122.22 99.6167 122.058C99.4872 121.896 99.4338 121.713 99.4565 121.509C99.48 121.297 99.5724 121.131 99.7335 121.008C99.8955 120.879 100.079 120.825 100.283 120.848C100.494 120.872 100.661 120.964 100.783 121.125C100.913 121.28 100.967 121.463 100.943 121.674Z" fill="#B9B9C3"/>
<path d="M62.181 68.2511L62.035 69.563L57.175 69.0221L56.7984 72.4062L61.1814 72.894L61.0387 74.1761L56.6558 73.6883L56.2792 77.0724L61.1392 77.6133L60.9932 78.9252L54.7616 78.2317L55.9495 67.5576L62.181 68.2511ZM73.3679 75.3368C73.202 76.8276 72.6275 77.9661 71.6446 78.7522C70.5335 79.6951 69.1679 80.0764 67.5479 79.8961C65.9975 79.7236 64.7453 79.0409 63.7914 77.848C62.8375 76.6552 62.4479 75.2737 62.6226 73.7034C62.7974 72.133 63.4812 70.8709 64.674 69.917C65.8668 68.9631 67.2384 68.5724 68.7889 68.7449C69.574 68.8323 70.299 69.0538 70.9637 69.4095C71.6284 69.7652 72.1562 70.2214 72.5471 70.7781L71.4536 71.6525C71.1699 71.2184 70.7768 70.8628 70.2744 70.5855C69.783 70.2994 69.2392 70.1232 68.6429 70.0568C67.48 69.9274 66.4513 70.2204 65.5567 70.9359C64.6709 71.6624 64.16 72.6368 64.024 73.8593C63.8879 75.0818 64.1721 76.1447 64.8765 77.0482C65.592 77.9428 66.5311 78.4548 67.6939 78.5842C68.7573 78.7025 69.6751 78.5028 70.4471 77.985C71.2191 77.4672 71.7178 76.6926 71.9433 75.6612L68.0672 75.2299L68.2099 73.9478L73.3829 74.5235C73.4017 74.8073 73.3966 75.0784 73.3679 75.3368ZM76.3411 76.2563L75.86 80.5796L74.4885 80.427L75.6764 69.7529L79.3139 70.1577C80.2382 70.2605 80.9891 70.656 81.5665 71.3441C82.1539 72.0333 82.3984 72.8201 82.2999 73.7047C82.1993 74.6091 81.7872 75.3279 81.0638 75.8612C80.3603 76.3967 79.5414 76.6124 78.6072 76.5085L76.3411 76.2563ZM76.9019 71.2174L76.4871 74.9444L78.783 75.1999C79.3296 75.2607 79.8023 75.1272 80.201 74.7993C80.6096 74.4725 80.8422 74.0556 80.8986 73.5487C80.9539 73.0518 80.8181 72.599 80.4913 72.1904C80.1755 71.7729 79.7443 71.5337 79.1977 71.4729L76.9019 71.2174Z" fill="#B9B9C3"/>
<path d="M90.4129 82.1991L90.6219 80.3207L85.911 79.7965L86.0869 78.2162L91.3688 71.9821L93.4857 72.2177L92.7624 78.7176L94.0445 78.8603L93.8421 80.679L92.56 80.5364L92.3509 82.4148L90.4129 82.1991ZM91.2242 74.9091L91.1049 74.8958L88.2751 78.2182L90.8243 78.5019L91.2242 74.9091ZM99.2001 83.4185C98.5442 83.3455 97.9677 83.1455 97.4709 82.8185C96.9751 82.4816 96.5649 82.0536 96.2403 81.5345C95.9257 81.0166 95.7049 80.4235 95.578 79.7554C95.4522 79.0773 95.4314 78.3606 95.5154 77.6053C95.5995 76.8499 95.7769 76.1603 96.0475 75.5364C96.3193 74.9026 96.6656 74.3676 97.0864 73.9315C97.5172 73.4965 98.0108 73.1741 98.5675 72.9643C99.1252 72.7447 99.732 72.6714 100.388 72.7443C101.044 72.8173 101.62 73.0223 102.116 73.3592C102.612 73.6862 103.018 74.1086 103.333 74.6266C103.657 75.1457 103.883 75.7443 104.008 76.4223C104.135 77.0905 104.157 77.8022 104.073 78.5575C103.989 79.3129 103.811 80.0075 103.539 80.6413C103.268 81.2652 102.918 81.7946 102.487 82.2297C102.066 82.6658 101.577 82.9937 101.019 83.2134C100.462 83.4231 99.8561 83.4915 99.2001 83.4185ZM99.4058 81.5699C99.7636 81.6097 100.096 81.5612 100.403 81.4243C100.711 81.2774 100.982 81.061 101.215 80.7751C101.459 80.4803 101.654 80.1247 101.801 79.7084C101.958 79.2932 102.064 78.8371 102.12 78.3402C102.176 77.8333 102.173 77.3651 102.11 76.9355C102.058 76.4971 101.945 76.1122 101.771 75.7809C101.607 75.4407 101.391 75.1701 101.121 74.9691C100.853 74.7581 100.54 74.6328 100.182 74.5929C99.8145 74.552 99.4766 74.605 99.1685 74.7518C98.8614 74.8887 98.5908 75.1051 98.3567 75.401C98.1236 75.687 97.9286 76.0376 97.7718 76.4527C97.6259 76.8591 97.5248 77.3157 97.4684 77.8226C97.4131 78.3195 97.4114 78.7872 97.4632 79.2256C97.5249 79.6652 97.6375 80.055 97.8009 80.3952C97.9654 80.7254 98.1818 80.996 98.4501 81.2069C98.7195 81.408 99.0381 81.5289 99.4058 81.5699ZM108.355 84.4373C107.968 84.3941 107.586 84.2963 107.211 84.1439C106.845 83.9925 106.511 83.7843 106.209 83.5192C105.906 83.2541 105.649 82.9388 105.439 82.5732C105.239 82.1988 105.106 81.7665 105.04 81.2762L106.89 80.7878C106.944 81.2969 107.108 81.7177 107.383 82.0501C107.668 82.3837 108.054 82.5776 108.541 82.6317C108.78 82.6583 109.003 82.6429 109.21 82.5855C109.429 82.5193 109.621 82.4199 109.787 82.2874C109.962 82.156 110.101 81.9954 110.203 81.8055C110.315 81.6067 110.385 81.3831 110.413 81.1346C110.44 80.8961 110.419 80.6725 110.352 80.4637C110.296 80.2462 110.201 80.0546 110.069 79.8889C109.937 79.7133 109.772 79.5741 109.572 79.4714C109.383 79.3598 109.164 79.2902 108.916 79.2625C108.608 79.2283 108.327 79.2674 108.073 79.38C107.82 79.4827 107.598 79.624 107.407 79.804L105.61 78.7286L106.773 73.6964L112.513 74.3352L112.322 76.0496L108.208 75.5917L107.555 77.9338L107.671 77.9769C107.888 77.8301 108.148 77.7131 108.449 77.6259C108.751 77.5387 109.105 77.5178 109.513 77.5631C109.94 77.6107 110.338 77.7405 110.707 77.9526C111.077 78.1547 111.394 78.4215 111.659 78.7528C111.924 79.0842 112.122 79.4735 112.254 79.9207C112.386 80.3581 112.424 80.8351 112.366 81.3519C112.31 81.8588 112.168 82.316 111.942 82.7234C111.715 83.1309 111.421 83.4704 111.059 83.742C110.706 84.0147 110.297 84.2156 109.83 84.3448C109.373 84.4651 108.882 84.4959 108.355 84.4373ZM116.916 85.3899C116.528 85.3468 116.147 85.249 115.771 85.0965C115.406 84.9452 115.072 84.7369 114.769 84.4719C114.467 84.2068 114.21 83.8914 113.999 83.5259C113.799 83.1515 113.666 82.7191 113.6 82.2288L115.45 81.7405C115.504 82.2495 115.669 82.6703 115.944 83.0028C116.229 83.3363 116.615 83.5302 117.102 83.5844C117.34 83.6109 117.563 83.5955 117.771 83.5381C117.989 83.4719 118.182 83.3725 118.347 83.2401C118.523 83.1087 118.661 82.948 118.763 82.7581C118.876 82.5593 118.946 82.3357 118.974 82.0873C119 81.8487 118.98 81.6251 118.912 81.4164C118.856 81.1988 118.762 81.0072 118.629 80.8415C118.498 80.6659 118.332 80.5267 118.132 80.424C117.944 80.3124 117.725 80.2428 117.476 80.2152C117.168 80.1809 116.887 80.2201 116.633 80.3327C116.38 80.4353 116.158 80.5766 115.967 80.7566L114.17 79.6812L115.334 74.6491L121.073 75.2878L120.883 77.0022L116.768 76.5443L116.115 78.8865L116.231 78.9295C116.449 78.7827 116.708 78.6657 117.01 78.5785C117.311 78.4913 117.666 78.4704 118.073 78.5157C118.5 78.5633 118.899 78.6931 119.267 78.9052C119.637 79.1074 119.955 79.3741 120.22 79.7055C120.485 80.0368 120.683 80.4261 120.814 80.8734C120.947 81.3107 120.984 81.7878 120.927 82.3046C120.87 82.8115 120.729 83.2686 120.502 83.6761C120.276 84.0835 119.981 84.4231 119.619 84.6947C119.267 84.9674 118.857 85.1683 118.39 85.2974C117.934 85.4177 117.442 85.4485 116.916 85.3899ZM123.286 85.9479C122.929 85.9081 122.634 85.7496 122.404 85.4724C122.184 85.1863 122.094 84.8644 122.134 84.5066C122.173 84.1488 122.331 83.8595 122.608 83.6387C122.894 83.419 123.216 83.329 123.573 83.3689C123.931 83.4087 124.22 83.5666 124.441 83.8428C124.662 84.1189 124.753 84.4358 124.713 84.7936C124.673 85.1514 124.514 85.4457 124.237 85.6764C123.961 85.8972 123.644 85.9877 123.286 85.9479ZM129.48 86.7881C129.092 86.7449 128.711 86.6472 128.335 86.4947C127.97 86.3433 127.636 86.1351 127.333 85.87C127.031 85.6049 126.774 85.2896 126.563 84.9241C126.363 84.5497 126.23 84.1173 126.164 83.627L128.014 83.1386C128.068 83.6477 128.233 84.0685 128.508 84.4009C128.793 84.7345 129.179 84.9284 129.666 84.9826C129.904 85.0091 130.127 84.9937 130.335 84.9363C130.553 84.8701 130.746 84.7707 130.911 84.6382C131.087 84.5068 131.226 84.3462 131.327 84.1563C131.44 83.9575 131.51 83.7339 131.538 83.4854C131.564 83.2469 131.544 83.0233 131.476 82.8145C131.42 82.597 131.326 82.4054 131.193 82.2397C131.062 82.0641 130.896 81.9249 130.696 81.8222C130.508 81.7106 130.289 81.641 130.04 81.6134C129.732 81.5791 129.451 81.6182 129.197 81.7308C128.944 81.8335 128.722 81.9748 128.531 82.1548L126.734 81.0794L127.898 76.0472L133.638 76.686L133.447 78.4004L129.332 77.9425L128.679 80.2846L128.795 80.3277C129.013 80.1809 129.272 80.0639 129.574 79.9767C129.875 79.8895 130.23 79.8686 130.637 79.9139C131.064 79.9615 131.463 80.0913 131.831 80.3034C132.201 80.5055 132.519 80.7723 132.784 81.1036C133.049 81.435 133.247 81.8243 133.378 82.2715C133.511 82.7089 133.548 83.1859 133.491 83.7028C133.434 84.2096 133.293 84.6668 133.066 85.0742C132.84 85.4817 132.545 85.8212 132.183 86.0928C131.831 86.3655 131.421 86.5664 130.954 86.6956C130.498 86.8159 130.006 86.8467 129.48 86.7881ZM139.378 81.0074C139.766 81.0505 140.134 81.177 140.483 81.3869C140.833 81.5868 141.136 81.847 141.392 82.1673C141.648 82.4876 141.838 82.8608 141.962 83.2871C142.095 83.7145 142.135 84.1717 142.081 84.6587C142.024 85.1656 141.873 85.6216 141.627 86.0269C141.38 86.4321 141.071 86.77 140.699 87.0405C140.337 87.3121 139.927 87.513 139.47 87.6432C139.024 87.7646 138.562 87.7988 138.085 87.7457C137.528 87.6838 137.037 87.5335 136.611 87.2949C136.186 87.0463 135.827 86.7448 135.534 86.3903C135.253 86.0269 135.046 85.6216 134.915 85.1743C134.795 84.7182 134.761 84.2516 134.814 83.7746C134.89 83.0888 135.094 82.4776 135.426 81.941C135.768 81.3955 136.181 80.8478 136.665 80.298L139.533 77.0402L140.922 78.2513L138.507 80.9708L138.571 81.0685C138.811 80.9946 139.08 80.9742 139.378 81.0074ZM138.256 85.9385C138.474 85.9628 138.693 85.9469 138.91 85.8906C139.128 85.8343 139.324 85.7405 139.5 85.6091C139.675 85.4777 139.819 85.3176 139.931 85.1288C140.053 84.9311 140.128 84.7081 140.156 84.4596C140.184 84.2111 140.159 83.977 140.083 83.7572C140.017 83.5386 139.913 83.3459 139.77 83.1791C139.628 83.0123 139.457 82.8776 139.257 82.7748C139.057 82.6721 138.848 82.6086 138.629 82.5842C138.4 82.5588 138.177 82.5742 137.96 82.6305C137.752 82.6879 137.556 82.7817 137.37 82.912C137.194 83.0434 137.045 83.2079 136.923 83.4055C136.81 83.6043 136.74 83.8279 136.712 84.0764C136.685 84.3248 136.704 84.5584 136.77 84.7771C136.847 84.9869 136.957 85.1752 137.1 85.342C137.252 85.5099 137.423 85.6446 137.613 85.7463C137.813 85.849 138.027 85.9131 138.256 85.9385Z" fill="#4F8E0C"/>
<path d="M61.0665 48.954L60.1635 57.0679L58.9749 56.9356L59.8778 48.8217L57.2938 48.5342L57.4203 47.3972L63.7771 48.1046L63.6505 49.2416L61.0665 48.954ZM64.8112 48.2197L65.9998 48.3519L65.6749 51.2719L65.5254 52.1447L65.5771 52.1505C65.7925 51.8605 66.0969 51.6328 66.4903 51.4673C66.8923 51.3028 67.2957 51.243 67.7005 51.2881C68.4758 51.3743 69.0452 51.6644 69.4088 52.1583C69.7819 52.6446 69.923 53.2969 69.8319 54.1151L69.3891 58.0946L68.2004 57.9623L68.6174 54.2154C68.7439 53.0784 68.3033 52.4539 67.2955 52.3417C66.8132 52.288 66.3815 52.4449 66.0005 52.8124C65.6291 53.1722 65.4137 53.6191 65.3543 54.1531L64.9704 57.6028L63.7817 57.4706L64.8112 48.2197ZM73.2694 49.9065C73.2435 50.1391 73.1397 50.3281 72.9578 50.4735C72.7759 50.619 72.5687 50.6787 72.3361 50.6529C72.1036 50.627 71.9146 50.5231 71.7691 50.3412C71.6237 50.1594 71.5639 49.9522 71.5898 49.7196C71.6157 49.487 71.7195 49.298 71.9014 49.1526C72.0833 49.0071 72.2905 48.9473 72.523 48.9732C72.7556 48.9991 72.9446 49.103 73.0901 49.2849C73.2355 49.4667 73.2953 49.6739 73.2694 49.9065ZM72.7809 52.0627L72.0764 58.3936L70.8877 58.2613L71.5923 51.9304L72.7809 52.0627ZM78.6639 57.3478C78.6026 57.8991 78.3096 58.3373 77.7851 58.6627C77.2606 58.988 76.6322 59.1099 75.9001 59.0284C75.2627 58.9575 74.721 58.7315 74.2751 58.3505C73.8301 57.9609 73.5345 57.4833 73.3881 56.9177L74.4979 56.5833C74.6108 56.9796 74.8017 57.3017 75.0706 57.5496C75.349 57.7899 75.6648 57.9297 76.018 57.969C76.397 58.0111 76.7205 57.9643 76.9885 57.8284C77.2651 57.6935 77.4159 57.5141 77.4408 57.2902C77.4859 56.8853 77.2088 56.5537 76.6098 56.2951L75.5546 55.903C74.3574 55.4559 73.8077 54.793 73.9055 53.9144C73.9697 53.3373 74.2535 52.9024 74.757 52.6096C75.2701 52.3092 75.8926 52.1997 76.6248 52.2812C77.1847 52.3435 77.6737 52.5331 78.0919 52.8499C78.5187 53.1678 78.7976 53.5607 78.9287 54.0287L77.8203 54.3501C77.7294 54.0697 77.5543 53.8409 77.295 53.6638C77.0452 53.479 76.7524 53.368 76.4165 53.3306C76.1064 53.2961 75.8178 53.3424 75.5508 53.4697C75.2923 53.5979 75.1506 53.774 75.1257 53.9979C75.0855 54.3597 75.3969 54.6559 76.0602 54.8867L76.9889 55.2386C78.212 55.6886 78.7703 56.3917 78.6639 57.3478ZM83.7373 59.6913L82.5487 59.559L83.5781 50.3081L84.7668 50.4404L87.3571 56.4316L87.4087 56.4374L91.2528 51.1622L92.4414 51.2945L91.412 60.5454L90.2233 60.4131L90.8344 54.922L91.0586 53.3773L91.0069 53.3715L87.5477 58.1271L86.85 58.0495L84.5209 52.6498L84.4693 52.644L84.3484 54.2002L83.7373 59.6913ZM93.0572 57.5238C93.1656 56.5505 93.561 55.7791 94.2435 55.2098C94.9346 54.6414 95.7495 54.4095 96.6884 54.5139C97.6273 54.6184 98.367 55.0234 98.9077 55.7288C99.4569 56.4353 99.6774 57.2751 99.5691 58.2484C99.4598 59.2304 99.0601 60.0012 98.3699 60.561C97.6874 61.1304 96.8768 61.3628 95.9379 61.2583C94.999 61.1538 94.255 60.7484 93.7057 60.042C93.1651 59.3365 92.9489 58.4971 93.0572 57.5238ZM94.2459 57.6561C94.1702 58.3365 94.307 58.9098 94.6562 59.376C95.0055 59.8422 95.4729 60.1078 96.0587 60.173C96.6444 60.2382 97.1588 60.0818 97.602 59.7038C98.0452 59.3259 98.3047 58.7966 98.3804 58.1162C98.4552 57.4443 98.3179 56.8753 97.9687 56.4092C97.6118 55.9334 97.1447 55.6635 96.5676 55.5992C95.9905 55.535 95.4756 55.6957 95.0228 56.0813C94.5797 56.4593 94.3207 56.9842 94.2459 57.6561ZM100.875 55.1891L102.012 55.3156L101.914 56.1942L101.966 56.2C102.181 55.91 102.486 55.6823 102.879 55.5168C103.281 55.3522 103.684 55.2925 104.089 55.3375C104.864 55.4238 105.434 55.7139 105.797 56.2078C106.171 56.694 106.312 57.3463 106.221 58.1646L105.778 62.144L104.589 62.0118L105.023 58.1098C105.112 57.0733 104.649 56.4985 103.632 56.3854C103.159 56.3327 102.741 56.4824 102.379 56.8346C102.018 57.1781 101.808 57.6169 101.749 58.1509L101.359 61.6523L100.17 61.52L100.875 55.1891ZM109.34 62.6451C108.823 62.5876 108.41 62.3803 108.101 62.0233C107.801 61.6672 107.678 61.2044 107.732 60.635L108.126 57.0948L107.015 56.9712L107.136 55.8859L108.247 56.0095L108.463 54.0715L109.652 54.2038L109.436 56.1418L110.986 56.3143L110.866 57.3996L109.315 57.2271L108.964 60.3796C108.917 60.8017 108.967 61.0994 109.113 61.2726C109.261 61.4373 109.438 61.5311 109.645 61.5541C109.739 61.5646 109.831 61.5661 109.919 61.5584C110.016 61.5431 110.106 61.5226 110.187 61.4968L110.444 62.5979C110.121 62.6754 109.753 62.6911 109.34 62.6451ZM112.505 53.5272L113.694 53.6595L113.369 56.5795L113.219 57.4523L113.271 57.458C113.486 57.1681 113.791 56.9404 114.184 56.7748C114.586 56.6103 114.99 56.5506 115.394 56.5956C116.17 56.6819 116.739 56.972 117.103 57.4659C117.476 57.9521 117.617 58.6044 117.526 59.4227L117.083 63.4021L115.894 63.2698L116.311 59.523C116.438 58.386 115.997 57.7614 114.989 57.6493C114.507 57.5956 114.075 57.7525 113.694 58.1199C113.323 58.4797 113.108 58.9266 113.048 59.4607L112.664 62.9104L111.476 62.7781L112.505 53.5272Z" fill="#162C00"/>
<defs>
<filter id="filter0_d_319_519" x="0.0609131" y="0.232666" width="413.453" height="210.49" filterUnits="userSpaceOnUse" color-interpolation-filters="sRGB" box-shadow="4px 4px 10px rgba(14, 64, 53, 1)">
<feFlood flood-opacity="0" result="BackgroundImageFix"/>
<feColorMatrix in="SourceAlpha" type="matrix" values="0 0 0 0 0 0 0 0 0 0 0 0 0 0 0 0 0 0 127 0" result="hardAlpha"/>
<feOffset dy="4"/>
<feGaussianBlur stdDeviation="12"/>
<feColorMatrix type="matrix" values="0 0 0 0 0 0 0 0 0 0 0 0 0 0 0 0 0 0 0.06 0"/>
<feBlend mode="normal" in2="BackgroundImageFix" result="effect1_dropShadow_319_519"/>
<feBlend mode="normal" in="SourceGraphic" in2="effect1_dropShadow_319_519" result="shape"/>
</filter>
<filter id="filter1_d_319_519" x="263.92" y="59.8984" width="60.3008" height="81.1023" filterUnits="userSpaceOnUse" color-interpolation-filters="sRGB">
<feFlood flood-opacity="0" result="BackgroundImageFix"/>
<feColorMatrix in="SourceAlpha" type="matrix" values="0 0 0 0 0 0 0 0 0 0 0 0 0 0 0 0 0 0 127 0" result="hardAlpha"/>
<feOffset dx="2" dy="3"/>
<feGaussianBlur stdDeviation="3.5"/>
<feColorMatrix type="matrix" values="0 0 0 0 0.454902 0 0 0 0 0.647059 0 0 0 0 0.243137 0 0 0 1 0"/>
<feBlend mode="normal" in2="BackgroundImageFix" result="effect1_dropShadow_319_519"/>
<feBlend mode="normal" in="SourceGraphic" in2="effect1_dropShadow_319_519" result="shape" box-shadow="4px 4px 10px rgba(14, 64, 53, 1)"/>
</filter>
</defs>
</svg>
