<svg width="19" height="18" viewBox="0 0 19 18" fill="none" xmlns="http://www.w3.org/2000/svg">
<path d="M14.3671 5.27495C14.9847 5.27495 15.4854 4.79153 15.4854 4.19521C15.4854 3.59889 14.9847 3.11548 14.3671 3.11548C13.7495 3.11548 13.2488 3.59889 13.2488 4.19521C13.2488 4.79153 13.7495 5.27495 14.3671 5.27495Z" fill="#00002B"/>
<path d="M9.39243 4.37842C8.446 4.37842 7.52082 4.64946 6.73389 5.15728C5.94696 5.6651 5.33362 6.38688 4.97144 7.23135C4.60925 8.07582 4.51449 9.00504 4.69913 9.90153C4.88377 10.798 5.33952 11.6215 6.00875 12.2678C6.67798 12.9141 7.53063 13.3543 8.45887 13.5326C9.38712 13.7109 10.3493 13.6194 11.2237 13.2696C12.0981 12.9198 12.8454 12.3275 13.3712 11.5675C13.897 10.8075 14.1777 9.91396 14.1777 8.99992C14.1777 7.77422 13.6735 6.59872 12.7761 5.73202C11.8787 4.86532 10.6616 4.37842 9.39243 4.37842ZM9.39243 11.9999C8.77806 11.9999 8.17749 11.824 7.66666 11.4943C7.15584 11.1647 6.75769 10.6961 6.52259 10.148C6.28748 9.59979 6.22596 8.99659 6.34582 8.41465C6.46568 7.8327 6.76152 7.29815 7.19595 6.8786C7.63037 6.45904 8.18386 6.17332 8.78642 6.05756C9.38899 5.94181 10.0136 6.00122 10.5812 6.22828C11.1488 6.45534 11.6339 6.83986 11.9752 7.33321C12.3165 7.82655 12.4987 8.40657 12.4987 8.99992C12.4987 9.79557 12.1715 10.5586 11.5889 11.1212C11.0064 11.6838 10.2163 11.9999 9.39243 11.9999Z" fill="#00002B"/>
<path d="M9.39238 1.6215C11.8805 1.6215 12.1756 1.6305 13.158 1.674C13.7488 1.68077 14.3341 1.78555 14.8882 1.98375C15.2902 2.13352 15.6553 2.36291 15.96 2.65716C16.2646 2.95141 16.5022 3.304 16.6572 3.69225C16.8624 4.2274 16.9709 4.79262 16.978 5.36325C17.023 6.312 17.0323 6.597 17.0323 9.00075C17.0323 11.4045 17.023 11.688 16.978 12.6368C16.9709 13.2074 16.8624 13.7726 16.6572 14.3077C16.5022 14.696 16.2646 15.0486 15.96 15.3428C15.6553 15.6371 15.2902 15.8665 14.8882 16.0163C14.3341 16.2145 13.7488 16.3192 13.158 16.326C12.1756 16.3695 11.8805 16.3785 9.39238 16.3785C6.90423 16.3785 6.60913 16.3695 5.62677 16.326C5.03592 16.3192 4.45067 16.2145 3.89656 16.0163C3.49456 15.8665 3.12947 15.6371 2.82479 15.3428C2.52012 15.0486 2.2826 14.696 2.12752 14.3077C1.9223 13.7726 1.81381 13.2074 1.8068 12.6368C1.76176 11.688 1.75244 11.403 1.75244 9C1.75244 6.597 1.76176 6.312 1.8068 5.36325C1.81381 4.79262 1.9223 4.2274 2.12752 3.69225C2.2826 3.304 2.52012 2.95141 2.82479 2.65716C3.12947 2.36291 3.49456 2.13352 3.89656 1.98375C4.45067 1.78555 5.03592 1.68077 5.62677 1.674C6.60913 1.6305 6.90423 1.6215 9.39238 1.6215ZM9.39238 0C6.86152 0 6.5439 0.0105 5.54989 0.054C4.77702 0.0690721 4.01239 0.210577 3.2885 0.4725C2.66936 0.703723 2.10707 1.05733 1.63768 1.51066C1.16828 1.96399 0.802144 2.50704 0.562728 3.105C0.291438 3.80435 0.144918 4.54308 0.1294 5.28975C0.0843584 6.24975 0.0734863 6.555 0.0734863 9C0.0734863 11.445 0.0843584 11.751 0.1294 12.711C0.145006 13.4574 0.291525 14.1959 0.562728 14.895C0.802144 15.493 1.16828 16.036 1.63768 16.4893C2.10707 16.9427 2.66936 17.2963 3.2885 17.5275C4.01264 17.7895 4.77754 17.931 5.55066 17.946C6.54468 17.9895 6.86152 18 9.39238 18C11.9232 18 12.2408 17.9895 13.2349 17.946C14.008 17.931 14.7729 17.7895 15.497 17.5275C16.1162 17.2963 16.6785 16.9427 17.1479 16.4893C17.6172 16.036 17.9834 15.493 18.2228 14.895C18.4938 14.1956 18.6401 13.4569 18.6554 12.7103C18.7004 11.7503 18.7113 11.445 18.7113 9C18.7113 6.555 18.7004 6.249 18.6554 5.289C18.6397 4.54258 18.4932 3.80412 18.222 3.105C17.9826 2.50704 17.6165 1.96399 17.1471 1.51066C16.6777 1.05733 16.1154 0.703723 15.4962 0.4725C14.7721 0.21075 14.0072 0.0694973 13.2341 0.05475C12.2401 0.00974997 11.924 0 9.39238 0Z" fill="#00002B"/>
</svg>
