<svg width="46" height="29" viewBox="0 0 46 29" fill="none" xmlns="http://www.w3.org/2000/svg">
<path d="M29.0942 3.04443H16.6935V25.4205H29.0942V3.04443Z" fill="#FF5A00"/>
<path d="M17.5188 14.2326C17.5188 9.68648 19.6467 5.6516 22.912 3.04459C20.5089 1.1469 17.4775 0 14.171 0C6.33795 0 0 6.36553 0 14.2326C0 22.0997 6.33795 28.4653 14.171 28.4653C17.4775 28.4653 20.5089 27.3184 22.912 25.4207C19.6421 22.8505 17.5188 18.7788 17.5188 14.2326Z" fill="#EB001B"/>
<path d="M45.8239 14.2326C45.8239 22.0997 39.4859 28.4653 31.6529 28.4653C28.3464 28.4653 25.315 27.3184 22.9119 25.4207C26.2184 22.8091 28.3051 18.7788 28.3051 14.2326C28.3051 9.68648 26.1771 5.6516 22.9119 3.04459C25.3104 1.1469 28.3418 0 31.6483 0C39.4859 0 45.8239 6.40699 45.8239 14.2326Z" fill="#F79E1B"/>
</svg>
