<svg width="98" height="24" viewBox="0 0 98 24" fill="none" xmlns="http://www.w3.org/2000/svg">
<path d="M36.819 5.7561H31.4114C31.0414 5.7561 30.7267 6.0168 30.669 6.37103L28.4819 19.8174C28.4384 20.0827 28.6503 20.3219 28.9278 20.3219H31.5095C31.8795 20.3219 32.1942 20.0612 32.2519 19.7062L32.8418 16.0795C32.8987 15.7245 33.2142 15.4638 33.5835 15.4638H35.2954C38.8575 15.4638 40.9133 13.7923 41.4502 10.48C41.6921 9.03085 41.4605 7.89224 40.7607 7.09483C39.9921 6.21921 38.6289 5.7561 36.819 5.7561ZM37.4429 10.6671C37.1472 12.5487 35.6646 12.5487 34.2311 12.5487H33.4151L33.9875 9.03469C34.0215 8.8223 34.2113 8.66589 34.4327 8.66589H34.8067C35.7832 8.66589 36.7044 8.66589 37.1804 9.20567C37.4642 9.5277 37.5512 10.0061 37.4429 10.6671Z" fill="#253B80"/>
<path d="M52.9835 10.6063H50.394C50.1734 10.6063 49.9828 10.7627 49.9488 10.9751L49.8342 11.6774L49.6531 11.4229C49.0925 10.6339 47.8424 10.3701 46.5947 10.3701C43.7331 10.3701 41.2891 12.4718 40.8131 15.4199C40.5656 16.8905 40.9174 18.2967 41.7777 19.2773C42.5668 20.179 43.696 20.5547 45.0394 20.5547C47.345 20.5547 48.6236 19.1171 48.6236 19.1171L48.5082 19.8148C48.4647 20.0817 48.6766 20.3209 48.9525 20.3209H51.2851C51.656 20.3209 51.9691 20.0602 52.0276 19.7052L53.4271 11.1108C53.4714 10.8463 53.2603 10.6063 52.9835 10.6063ZM49.374 15.4935C49.1241 16.9281 47.9499 17.8911 46.4523 17.8911C45.7004 17.8911 45.0995 17.6572 44.7136 17.214C44.3309 16.7739 44.1854 16.1475 44.3072 15.4498C44.5404 14.0275 45.7344 13.033 47.209 13.033C47.9444 13.033 48.5422 13.2699 48.9359 13.7169C49.3305 14.1686 49.4871 14.7988 49.374 15.4935Z" fill="#253B80"/>
<path d="M66.775 10.6064H64.1728C63.9245 10.6064 63.6912 10.7261 63.5505 10.9262L59.9615 16.0526L58.4402 11.1263C58.3445 10.8181 58.0512 10.6064 57.7191 10.6064H55.1619C54.8512 10.6064 54.6353 10.9009 54.7342 11.1846L57.6005 19.3412L54.9058 23.03C54.6938 23.3205 54.9073 23.72 55.2734 23.72H57.8725C58.1192 23.72 58.3501 23.6035 58.49 23.4072L67.145 11.2927C67.3522 11.0029 67.1395 10.6064 66.775 10.6064Z" fill="#253B80"/>
<path d="M75.3906 5.7561H69.9822C69.6129 5.7561 69.2982 6.0168 69.2405 6.37103L67.0534 19.8174C67.0099 20.0827 67.2218 20.3219 67.4978 20.3219H70.2731C70.5309 20.3219 70.7515 20.1394 70.7918 19.891L71.4125 16.0795C71.4695 15.7245 71.785 15.4638 72.1542 15.4638H73.8653C77.4282 15.4638 79.4832 13.7923 80.0209 10.48C80.2637 9.03085 80.0304 7.89224 79.3306 7.09483C78.5629 6.21921 77.2005 5.7561 75.3906 5.7561ZM76.0144 10.6671C75.7195 12.5487 74.2369 12.5487 72.8026 12.5487H71.9874L72.5606 9.03469C72.5946 8.8223 72.7828 8.66589 73.005 8.66589H73.379C74.3547 8.66589 75.2767 8.66589 75.7527 9.20567C76.0366 9.5277 76.1228 10.0061 76.0144 10.6671Z" fill="#179BD7"/>
<path d="M91.5539 10.6063H88.9659C88.7437 10.6063 88.5548 10.7627 88.5216 10.9751L88.4069 11.6774L88.225 11.4229C87.6644 10.6339 86.4151 10.3701 85.1674 10.3701C82.3058 10.3701 79.8626 12.4718 79.3866 15.4199C79.1399 16.8905 79.4902 18.2967 80.3504 19.2773C81.1411 20.179 82.2687 20.5547 83.6121 20.5547C85.9178 20.5547 87.1963 19.1171 87.1963 19.1171L87.0809 19.8148C87.0374 20.0817 87.2493 20.3209 87.5269 20.3209H89.8586C90.2279 20.3209 90.5426 20.0602 90.6003 19.7052L92.0006 11.1108C92.0433 10.8463 91.8314 10.6063 91.5539 10.6063ZM87.9443 15.4935C87.6961 16.9281 86.5203 17.8911 85.0227 17.8911C84.2723 17.8911 83.6698 17.6572 83.2839 17.214C82.9012 16.7739 82.7573 16.1475 82.8775 15.4498C83.1124 14.0275 84.3047 13.033 85.7794 13.033C86.5147 13.033 87.1125 13.2699 87.5063 13.7169C87.9024 14.1686 88.059 14.7988 87.9443 15.4935Z" fill="#179BD7"/>
<path d="M94.607 6.12518L92.3875 19.8176C92.344 20.0829 92.5559 20.3222 92.8319 20.3222H95.0633C95.4341 20.3222 95.7488 20.0615 95.8057 19.7065L97.9944 6.2609C98.0379 5.99561 97.826 5.75562 97.55 5.75562H95.0514C94.8308 5.75638 94.641 5.9128 94.607 6.12518Z" fill="#179BD7"/>
<path d="M6.02544 22.9351L6.43898 20.388L5.51781 20.3673H1.11914L4.17599 1.57219C4.18548 1.51545 4.21632 1.46254 4.26139 1.42497C4.30646 1.3874 4.36418 1.3667 4.42427 1.3667H11.8411C14.3033 1.3667 16.0025 1.86355 16.8897 2.84421C17.3056 3.30425 17.5705 3.785 17.6986 4.31405C17.833 4.86917 17.8354 5.5324 17.7041 6.34132L17.6946 6.40035V6.91867L18.1105 7.14716C18.4608 7.32734 18.7391 7.5336 18.9526 7.76975C19.3084 8.16309 19.5385 8.66301 19.6358 9.2557C19.7362 9.86526 19.703 10.5906 19.5385 11.4118C19.3488 12.3564 19.042 13.1791 18.6276 13.8523C18.2465 14.4726 17.761 14.9871 17.1846 15.3858C16.6343 15.7646 15.9804 16.0521 15.2411 16.2361C14.5247 16.4171 13.7079 16.5083 12.812 16.5083H12.2348C11.8221 16.5083 11.4212 16.6525 11.1065 16.9108C10.791 17.1746 10.5823 17.535 10.5182 17.9291L10.4747 18.1583L9.74411 22.6476L9.71091 22.8124C9.70221 22.8646 9.68719 22.8907 9.66505 22.9083C9.64528 22.9244 9.61681 22.9351 9.58914 22.9351H6.02544Z" fill="#253B80"/>
<path d="M18.5043 6.45996C18.4822 6.59721 18.4569 6.73752 18.4284 6.88167C17.4503 11.7512 14.1041 13.4335 9.83031 13.4335H7.6543C7.13164 13.4335 6.69122 13.8015 6.60978 14.3014L5.49568 21.153L5.18019 23.0952C5.12722 23.4233 5.38815 23.7193 5.72973 23.7193H9.58914C10.0462 23.7193 10.4344 23.3973 10.5064 22.9602L10.5443 22.7701L11.271 18.2984L11.3176 18.0531C11.3888 17.6145 11.7778 17.2925 12.2348 17.2925H12.812C16.5513 17.2925 19.4784 15.8203 20.334 11.5603C20.6914 9.78072 20.5064 8.29477 19.5607 7.2497C19.2744 6.93457 18.9194 6.67311 18.5043 6.45996Z" fill="#179BD7"/>
<path d="M17.4809 6.06455C17.3314 6.02238 17.1772 5.98405 17.0191 5.94954C16.8602 5.91581 16.6973 5.8859 16.5296 5.85983C15.9429 5.76783 15.3001 5.72412 14.6114 5.72412H8.79816C8.65504 5.72412 8.51904 5.75556 8.39727 5.8123C8.12923 5.93728 7.92997 6.1834 7.88174 6.48473L6.64508 14.0801L6.6095 14.3017C6.69094 13.8017 7.13136 13.4337 7.65401 13.4337H9.83003C14.1038 13.4337 17.45 11.7507 18.4281 6.8819C18.4574 6.73775 18.4819 6.59744 18.504 6.46019C18.2565 6.33291 17.9885 6.22404 17.6999 6.13126C17.6287 6.10826 17.5552 6.08602 17.4809 6.06455Z" fill="#222D65"/>
<path d="M7.88183 6.48468C7.93006 6.18335 8.12932 5.93723 8.39736 5.81302C8.51992 5.75628 8.65513 5.72484 8.79825 5.72484H14.6115C15.3002 5.72484 15.943 5.76855 16.5297 5.86056C16.6974 5.88662 16.8602 5.91653 17.0192 5.95026C17.1773 5.98477 17.3315 6.0231 17.4809 6.06528C17.5553 6.08674 17.6288 6.10898 17.7008 6.13122C17.9894 6.22399 18.2574 6.33363 18.5049 6.46015C18.7959 4.66061 18.5025 3.43535 17.4991 2.32588C16.3929 1.10446 14.3964 0.581543 11.8417 0.581543H4.42488C3.90302 0.581543 3.45785 0.949579 3.3772 1.45026L0.287927 20.4386C0.227043 20.8143 0.525929 21.1532 0.916535 21.1532H5.49549L6.64517 14.08L7.88183 6.48468Z" fill="#253B80"/>
</svg>
