<svg width="33" height="17" viewBox="0 0 33 17" fill="none" xmlns="http://www.w3.org/2000/svg">
<path d="M15.18 13.9532L9.68 12.4733L5.06 15.8559L4.84 10.3592L0 7.39938L5.5 5.49667L7.04 -6.10352e-05L10.56 4.4396L16.28 4.01678L13.2 8.66785L15.18 13.9532Z" fill="#52AD66"/>
<path opacity="0.5" d="M23.32 13.9532L17.82 12.4733L13.2 15.8559V10.3592L8.14001 7.39938L13.64 5.49667L15.18 -6.10352e-05L18.7 4.4396L24.42 4.01678L21.34 8.66785L23.32 13.9532Z" fill="#FFD400"/>
<path d="M31.68 13.9532L25.96 12.4733L21.56 15.8559L21.34 10.3592L16.28 7.39938L21.78 5.49667L23.32 -6.10352e-05L26.84 4.4396L32.78 4.01678L29.48 8.66785L31.68 13.9532Z" fill="#52AD66"/>
</svg>
