<svg width="19" height="14" viewBox="0 0 19 14" fill="none" xmlns="http://www.w3.org/2000/svg">
<path d="M6.34203 13.4076C7.65378 13.4156 8.9541 13.1719 10.1676 12.6908C11.3811 12.2097 12.4836 11.5006 13.4111 10.6048C14.3387 9.70901 15.0729 8.64424 15.571 7.47227C16.0692 6.30031 16.3215 5.04448 16.3132 3.77763V3.33513C16.9932 2.85399 17.5817 2.26275 18.0528 1.58763C17.4125 1.85807 16.735 2.03744 16.0414 2.12013C16.7768 1.69696 17.3285 1.03088 17.5946 0.245125C16.9093 0.642206 16.1578 0.921352 15.3736 1.07013C14.8455 0.52665 14.1466 0.166417 13.3851 0.0451645C12.6237 -0.0760878 11.8421 0.0483997 11.1612 0.399366C10.4804 0.750332 9.93834 1.30821 9.61887 1.98668C9.2994 2.66516 9.22036 3.4264 9.39397 4.15263C8.00081 4.08658 6.63768 3.73789 5.39334 3.12926C4.14899 2.52062 3.05133 1.66569 2.17183 0.620125C1.72835 1.36351 1.59392 2.24187 1.79578 3.07737C1.99764 3.91287 2.52069 4.64307 3.25903 5.12013C2.71435 5.09984 2.18228 4.95595 1.70588 4.70013V4.73763C1.70104 5.5145 1.97203 6.26951 2.47369 6.87683C2.97534 7.48414 3.67735 7.90707 4.46272 8.07513C3.95612 8.20672 3.42545 8.22722 2.90957 8.13513C3.13694 8.79767 3.57097 9.37605 4.15213 9.79096C4.73329 10.2059 5.43312 10.437 6.15566 10.4526C4.92029 11.413 3.38491 11.9417 1.79907 11.9526C1.52102 11.9449 1.24363 11.9223 0.96814 11.8851C2.57328 12.8728 4.43881 13.3935 6.34203 13.3851" fill="#00002B"/>
</svg>
