<svg width="20" height="21" viewBox="0 0 20 21" fill="none" xmlns="http://www.w3.org/2000/svg">
<path d="M3.69888 15.8682C3.69888 16.3905 4.1964 16.8168 4.80854 16.8168H6.0771V19.5042C6.0771 20.1849 6.71529 20.7407 7.49935 20.7407C8.28601 20.7407 8.92159 20.1872 8.92159 19.5042V16.8146H11.1357V19.5019C11.1357 20.1827 11.7739 20.7385 12.558 20.7385C13.3446 20.7385 13.9802 20.1849 13.9802 19.5019V16.8146H15.2488C15.8609 16.8146 16.3584 16.3882 16.3584 15.8659V7.0449H3.69888V15.8682ZM13.0008 2.47368L14.1704 1.02285C14.2381 0.938033 14.2224 0.824198 14.1313 0.768397C14.0401 0.714828 13.9099 0.741613 13.8421 0.82643L12.6283 2.33529C11.8286 2.06521 10.9377 1.91567 10.0026 1.91567C9.06746 1.91567 8.1766 2.06521 7.37692 2.33529L6.16306 0.828662C6.09534 0.743845 5.96509 0.714828 5.87392 0.770629C5.78275 0.824198 5.76712 0.9358 5.83485 1.02508L7.00443 2.47591C5.14457 3.21695 3.84214 4.6209 3.67543 6.26146H16.335C16.1631 4.61867 14.858 3.21472 13.0008 2.47368ZM7.33003 4.76152C7.19144 4.76152 7.05597 4.72631 6.94074 4.66033C6.82551 4.59436 6.7357 4.50059 6.68267 4.39087C6.62963 4.28116 6.61575 4.16044 6.64279 4.04397C6.66983 3.9275 6.73656 3.82051 6.83456 3.73654C6.93255 3.65257 7.05741 3.59539 7.19333 3.57222C7.32925 3.54905 7.47014 3.56094 7.59818 3.60639C7.72621 3.65183 7.83565 3.72879 7.91264 3.82753C7.98964 3.92627 8.03073 4.04235 8.03073 4.1611C8.03025 4.32022 7.95627 4.4727 7.82497 4.58521C7.69367 4.69772 7.51572 4.76111 7.33003 4.76152ZM12.7585 4.76152C12.6199 4.76152 12.4845 4.72631 12.3692 4.66033C12.254 4.59436 12.1642 4.50059 12.1112 4.39087C12.0581 4.28116 12.0442 4.16044 12.0713 4.04397C12.0983 3.9275 12.1651 3.82051 12.2631 3.73654C12.361 3.65257 12.4859 3.59539 12.6218 3.57222C12.7577 3.54905 12.8986 3.56094 13.0267 3.60639C13.1547 3.65183 13.2641 3.72879 13.3411 3.82753C13.4181 3.92627 13.4592 4.04235 13.4592 4.1611C13.4587 4.32022 13.3848 4.4727 13.2535 4.58521C13.1222 4.69772 12.9442 4.76111 12.7585 4.76152ZM18.5777 7.00919C17.7911 7.00919 17.1555 7.56274 17.1555 8.24574V13.0759C17.1555 13.7567 17.7937 14.3124 18.5777 14.3124C19.3644 14.3124 20 13.7589 20 13.0759V8.24351C20.0026 7.56051 19.367 7.00919 18.5777 7.00919ZM1.42224 7.00919C0.635582 7.00919 0 7.56274 0 8.24574V13.0759C0 13.7567 0.638187 14.3124 1.42224 14.3124C2.20891 14.3124 2.84449 13.7589 2.84449 13.0759V8.24351C2.84449 7.56051 2.2063 7.00919 1.42224 7.00919Z" fill="#00002B"/>
</svg>
