<svg width="67" height="23" viewBox="0 0 67 23" fill="none" xmlns="http://www.w3.org/2000/svg">
<path d="M34.4205 7.21281C34.3826 10.2845 37.0831 11.9987 39.1174 13.0178C41.2076 14.0636 41.9096 14.7341 41.9016 15.6691C41.8857 17.1004 40.2343 17.7319 38.6886 17.7565C35.9921 17.7996 34.4245 17.0081 33.1779 16.4094L32.2067 21.0825C33.4572 21.6751 35.7727 22.1918 38.174 22.2144C43.8103 22.2144 47.498 19.3539 47.518 14.9186C47.5399 9.28998 39.9451 8.9783 39.9969 6.46233C40.0149 5.69954 40.7229 4.88548 42.2746 4.67838C43.0425 4.5738 45.1626 4.49383 47.5659 5.63187L48.5092 1.11049C47.2168 0.62657 45.5555 0.163153 43.4872 0.163153C38.182 0.163153 34.4504 3.06258 34.4205 7.21281ZM57.574 0.55275C56.5448 0.55275 55.6773 1.16995 55.2903 2.11729L47.2388 21.8822H52.8711L53.992 18.6977H60.8748L61.525 21.8822H66.4891L62.1572 0.55275H57.574ZM58.3618 6.31469L59.9872 14.324H55.5357L58.3618 6.31469ZM27.5915 0.55275L23.1519 21.8822H28.5189L32.9566 0.55275H27.5915ZM19.6516 0.55275L14.0652 15.0704L11.8055 2.72629C11.5402 1.34835 10.4932 0.55275 9.33039 0.55275H0.197835L0.0701904 1.172C1.94497 1.59031 4.07503 2.26493 5.36544 2.98671C6.15524 3.42757 6.38061 3.81306 6.63989 4.86088L10.92 21.8822H16.5922L25.2879 0.55275H19.6516Z" fill="url(#paint0_linear_350_792)"/>
<defs>
<linearGradient id="paint0_linear_350_792" x1="30.6058" y1="22.6567" x2="31.2619" y2="0.0108301" gradientUnits="userSpaceOnUse">
<stop stop-color="#222357"/>
<stop offset="1" stop-color="#254AA5"/>
</linearGradient>
</defs>
</svg>
