<svg width="22" height="15" viewBox="0 0 22 15" fill="none" xmlns="http://www.w3.org/2000/svg">
<path d="M20.8842 2.20301C20.7663 1.78041 20.5358 1.39501 20.2157 1.08517C19.8956 0.775338 19.4971 0.551868 19.0598 0.437007C17.4383 0.00700739 10.9513 7.59651e-06 10.9513 7.59651e-06C10.9513 7.59651e-06 4.46539 -0.00699261 2.84287 0.404007C2.40584 0.524154 2.00813 0.750784 1.68791 1.06214C1.3677 1.3735 1.13574 1.75913 1.0143 2.18201C0.586663 3.74801 0.582521 6.99601 0.582521 6.99601C0.582521 6.99601 0.578379 10.26 1.00291 11.81C1.24106 12.667 1.93997 13.344 2.82837 13.575C4.46643 14.005 10.9358 14.012 10.9358 14.012C10.9358 14.012 17.4228 14.019 19.0443 13.609C19.4817 13.4943 19.8806 13.2714 20.2015 12.9622C20.5224 12.653 20.7542 12.2682 20.8739 11.846C21.3026 10.281 21.3057 7.03401 21.3057 7.03401C21.3057 7.03401 21.3264 3.76901 20.8842 2.20301ZM8.87633 10.005L8.88151 4.00501L14.273 7.01001L8.87633 10.005Z" fill="#00002B"/>
</svg>
